<svg width="31" height="14" viewBox="0 0 31 14" fill="none" xmlns="http://www.w3.org/2000/svg">
<path fill-rule="evenodd" clip-rule="evenodd" d="M0 0.985867H9.39509V8.79438H0V9.78025H10.5108V8.7174C10.5204 8.72949 10.5306 8.74145 10.5415 8.7532C10.5929 8.80872 10.6456 8.92198 10.7017 9.09577C10.7168 9.14256 10.7329 9.19677 10.7496 9.25335C10.7842 9.37003 10.8219 9.4971 10.86 9.58954C10.9217 9.73951 11.0238 9.85711 11.1193 9.94918C11.1771 10.0049 11.2506 10.0671 11.3108 10.118C11.3395 10.1422 11.3652 10.1639 11.3847 10.1811C11.426 10.2176 11.4652 10.2503 11.5031 10.2818C11.5711 10.3384 11.635 10.3916 11.6994 10.4574C11.7999 10.5602 11.817 10.6151 11.817 10.6312C11.817 10.6783 11.8137 10.7326 11.8093 10.7986L11.8084 10.8112C11.8044 10.8714 11.7998 10.9399 11.7983 11.0084C11.7953 11.1476 11.8025 11.3314 11.8843 11.494C11.9144 11.554 11.9144 11.6329 11.911 11.8123C11.9082 11.9596 11.904 12.1859 12.0329 12.3954C12.0328 12.3954 12.033 12.3966 12.0336 12.3992C12.0354 12.4069 12.04 12.4273 12.0445 12.468C12.0459 12.4815 12.0476 12.4997 12.0494 12.5206C12.0542 12.5733 12.0605 12.6434 12.07 12.7002C12.0839 12.7828 12.1128 12.9055 12.2002 13.0107C12.3037 13.1354 12.4614 13.2037 12.6477 13.2037C12.8228 13.2037 12.9647 13.0783 12.9647 12.9236C12.9647 12.7856 12.8517 12.6709 12.703 12.6478C12.7011 12.6396 12.6991 12.6298 12.6971 12.618C12.6906 12.5792 12.6877 12.546 12.6842 12.5053C12.6819 12.4791 12.6794 12.4497 12.6754 12.4138C12.6682 12.348 12.654 12.2298 12.5909 12.1294C12.5509 12.0659 12.5418 11.982 12.5449 11.8216C12.5451 11.8101 12.5454 11.7978 12.5458 11.7849C12.5493 11.6519 12.5547 11.4477 12.4636 11.2665C12.4421 11.2238 12.4294 11.1465 12.4321 11.0192C12.4334 10.9623 12.4373 10.9041 12.4415 10.8414L12.4421 10.8315C12.4463 10.7679 12.4509 10.6975 12.4509 10.6312C12.4509 10.3998 12.2958 10.2105 12.179 10.0911C12.094 10.0042 11.9844 9.91252 11.9057 9.84674C11.8761 9.82195 11.8508 9.80084 11.8329 9.78503C11.7907 9.74772 11.755 9.7178 11.7223 9.69034C11.6747 9.65037 11.6332 9.61553 11.5867 9.57075C11.5186 9.50502 11.4773 9.45049 11.4557 9.39811C11.4268 9.32791 11.4036 9.2487 11.3754 9.1528C11.3571 9.09039 11.3367 9.02091 11.3114 8.94224C11.2568 8.77313 11.1762 8.55404 11.0321 8.3985C11.0287 8.39477 11.0167 8.37903 11.0021 8.3361C10.9874 8.29265 10.9764 8.24173 10.9618 8.17196C10.9604 8.16531 10.959 8.15832 10.9575 8.15101C10.9336 8.03458 10.8934 7.83839 10.763 7.6902C10.732 7.65493 10.7019 7.61996 10.6721 7.58523C10.6192 7.52362 10.5669 7.46266 10.5108 7.40235V6.92054C10.5385 6.9545 10.5663 6.98823 10.5942 7.0218C10.6211 7.05416 10.648 7.08635 10.6748 7.11844C10.8435 7.3201 11.0092 7.51825 11.1426 7.73039C11.3639 8.08245 11.6397 8.44975 11.9328 8.73922C11.9471 8.7534 11.9661 8.77291 11.9882 8.79569C12.0363 8.84535 12.0995 8.9105 12.1631 8.96964C12.2103 9.01344 12.2599 9.05626 12.3076 9.09024C12.3534 9.12286 12.4046 9.15282 12.4543 9.16258C12.6042 9.19201 12.709 9.11465 12.7855 9.04048C12.8073 9.01933 12.8308 8.99416 12.8528 8.97068C12.8674 8.95515 12.8812 8.94036 12.8934 8.92794C12.9279 8.89282 12.9583 8.86661 12.9883 8.85102C13.17 8.75656 13.2917 8.55237 13.368 8.34553C13.4195 8.20611 13.4529 8.05878 13.4694 7.92881C13.5211 7.98063 13.5661 8.0316 13.6033 8.08239C13.7089 8.2265 13.8833 8.32118 14.0068 8.38064C14.0745 8.41327 14.143 8.44244 14.2016 8.46714L14.2241 8.47665C14.2751 8.49813 14.3153 8.51503 14.3491 8.53084C14.6404 8.6671 14.9676 8.66557 15.2074 8.66445C15.2283 8.66435 15.2485 8.66426 15.268 8.66426C15.3656 8.66426 15.477 8.67058 15.6075 8.67799L15.6358 8.6796C15.7735 8.68739 15.9282 8.69564 16.0814 8.69449C16.3689 8.69233 16.7391 8.65876 17.0058 8.44932C17.0089 8.44792 17.0212 8.44229 17.0488 8.43448C17.0832 8.42472 17.1185 8.4173 17.1664 8.40724L17.1777 8.40484C17.1911 8.40202 17.2055 8.39898 17.221 8.39563C17.2883 8.38114 17.3792 8.36033 17.4653 8.32532C17.5495 8.29106 17.6509 8.2346 17.7248 8.13721C17.7354 8.13127 17.7529 8.12307 17.786 8.10955C17.7908 8.10758 17.7964 8.10535 17.8025 8.10289L17.8068 8.10115C17.8364 8.08926 17.8774 8.07283 17.9137 8.05603C17.9624 8.03345 18.0249 8.00065 18.0829 7.95228C18.1523 7.89433 18.2037 7.83151 18.238 7.78962L18.2387 7.78868C18.2781 7.74059 18.297 7.71791 18.3177 7.69956C18.4075 7.62025 18.5133 7.55307 18.644 7.47123L18.6542 7.46482C18.7755 7.3889 18.9204 7.29821 19.0484 7.18509C19.0922 7.14635 19.1438 7.11564 19.223 7.0685C19.246 7.0548 19.272 7.03932 19.3002 7.02224C19.4073 6.95723 19.5554 6.86208 19.6582 6.71685C19.6787 6.68785 19.7523 6.61842 19.8691 6.53157C19.9782 6.4504 20.09 6.37968 20.1552 6.34579C20.2565 6.29313 20.3758 6.21488 20.4892 6.13044V9.78025H31V8.79438H21.6049V0.985867H31V0H20.4892V5.33506C20.4542 5.35518 20.4232 5.38176 20.3986 5.41438C20.3557 5.47126 20.2625 5.56017 20.1434 5.65405C20.0264 5.7462 19.9094 5.82367 19.8337 5.86297C19.7282 5.91783 19.5868 6.00929 19.4608 6.10304C19.3424 6.19109 19.1989 6.30929 19.1206 6.41997C19.0929 6.45914 19.0422 6.49924 18.9414 6.56042C18.9273 6.56895 18.9114 6.57837 18.894 6.5886C18.8095 6.63843 18.6922 6.70767 18.6001 6.789C18.5129 6.86605 18.4088 6.93192 18.2774 7.0142L18.2708 7.01834C18.1481 7.09518 18.0009 7.18733 17.8695 7.30347C17.8105 7.35559 17.7635 7.41322 17.7324 7.45149L17.7249 7.46058C17.6891 7.50436 17.6689 7.52721 17.6479 7.5448C17.6468 7.54555 17.6393 7.55068 17.6194 7.55988C17.6003 7.56872 17.5825 7.57588 17.5572 7.58605C17.5466 7.59031 17.534 7.59539 17.5201 7.60105L17.515 7.60313C17.4471 7.63079 17.3014 7.69015 17.2069 7.81359C17.2051 7.81443 17.2028 7.81542 17.2001 7.81653C17.1743 7.82701 17.1356 7.83746 17.0708 7.85144C17.0644 7.85282 17.0575 7.85427 17.0503 7.85579L17.0353 7.85893C16.983 7.86989 16.9154 7.88405 16.8553 7.90104C16.7799 7.92241 16.6752 7.95864 16.5858 8.02973C16.5061 8.09308 16.3481 8.13231 16.076 8.13436C15.9487 8.13532 15.8152 8.12845 15.6763 8.12059L15.643 8.1187C15.5187 8.11161 15.3871 8.10411 15.268 8.10411H15.2595C14.9661 8.10411 14.7918 8.10412 14.6457 8.03578C14.599 8.01397 14.5453 7.99134 14.4961 7.97064L14.4746 7.96161C14.4166 7.93714 14.3616 7.91356 14.3101 7.88877C14.1951 7.83342 14.1477 7.79466 14.1356 7.77809C14.0023 7.59609 13.8212 7.43566 13.6526 7.29773C13.5818 7.23986 13.5158 7.1878 13.4533 7.13855C13.3551 7.06105 13.2655 6.9904 13.1803 6.9151C13.0966 6.84115 12.9832 6.76952 12.8977 6.71549C12.8747 6.70095 12.8536 6.68766 12.8358 6.67597C12.728 6.60542 12.6795 6.56122 12.6597 6.52815C12.5902 6.41205 12.487 6.34873 12.4383 6.31884L12.4318 6.31486C12.4132 6.30337 12.403 6.29652 12.398 6.29308C12.3641 6.23646 12.3149 6.15824 12.2563 6.08257C12.1998 6.00956 12.1125 5.90944 11.9981 5.84402C11.9564 5.82017 11.8974 5.76769 11.8284 5.68383C11.7627 5.60399 11.7025 5.51399 11.652 5.43372C11.5744 5.31026 11.4873 5.19711 11.4042 5.09288C11.3816 5.06451 11.3596 5.03714 11.3381 5.01036C11.2778 4.93546 11.2214 4.86526 11.1664 4.79103C11.1134 4.71938 11.0754 4.65254 11.0345 4.58017L11.0297 4.57159C10.9929 4.50655 10.9454 4.42243 10.8817 4.34827C10.8079 4.26243 10.7111 4.18695 10.5754 4.13572C10.5543 4.12776 10.5328 4.12058 10.5108 4.1141V0H0V0.985867ZM13.3528 7.81959C13.3117 7.78336 13.268 7.7465 13.2219 7.7088C13.1701 7.66639 13.1123 7.62072 13.0528 7.57368C12.9431 7.48697 12.8275 7.39557 12.732 7.31119C12.6885 7.27274 12.6372 7.24022 12.5642 7.19399C12.5332 7.17432 12.4982 7.15216 12.4583 7.12601C12.3495 7.05477 12.1965 6.94825 12.1032 6.79643C12.0988 6.79329 12.0887 6.78637 12.0687 6.77405L12.0611 6.76935C12.014 6.74057 11.9105 6.67735 11.8422 6.56267C11.8121 6.51209 11.7742 6.45192 11.7331 6.39889C11.7127 6.37258 11.694 6.35117 11.6777 6.33513C11.6633 6.32108 11.6551 6.31535 11.6537 6.31435C11.6534 6.31418 11.6534 6.31414 11.6537 6.31435C11.5142 6.23459 11.4005 6.11628 11.3157 6.0133C11.2276 5.90631 11.1529 5.7934 11.0978 5.70575C11.0371 5.60918 10.9659 5.51574 10.8859 5.41532C10.8669 5.39158 10.8472 5.36709 10.8271 5.342C10.7649 5.2647 10.6981 5.18174 10.6358 5.09757C10.5848 5.0286 10.5442 4.96342 10.5108 4.90644V6.72562C10.5706 6.80282 10.6329 6.87915 10.6964 6.9555C10.7229 6.98747 10.7497 7.01946 10.7765 7.05152C10.9449 7.25278 11.1157 7.45698 11.2534 7.67599C11.4718 8.02336 11.7423 8.38314 12.0273 8.66452C12.0446 8.68169 12.0654 8.7031 12.0887 8.72717C12.1358 8.77573 12.1934 8.83514 12.2551 8.89246C12.3005 8.93468 12.3458 8.97351 12.3872 9.00305C12.4306 9.03397 12.4625 9.04943 12.4818 9.05321C12.5599 9.06854 12.6204 9.03421 12.6917 8.96505C12.7131 8.94428 12.7315 8.92453 12.7508 8.90387C12.7654 8.88821 12.7804 8.87203 12.7977 8.85448C12.8338 8.81773 12.8753 8.77976 12.924 8.75446C13.0635 8.68196 13.173 8.51255 13.2475 8.31078C13.3099 8.14191 13.3439 7.96069 13.3528 7.81959Z" fill="black"/>
</svg>
