<svg width="32" height="71" viewBox="0 0 32 71" fill="none" xmlns="http://www.w3.org/2000/svg">
<path d="M17.2788 0.522229L17.3643 12.8749L15.9918 12.8844L14.6193 12.8939L14.5338 0.541229L17.2788 0.522229Z" fill="#C4C4C4"/>
<path d="M16.1343 33.4721C17.6503 33.4616 18.8708 32.2241 18.8603 30.7081C18.8498 29.192 17.6123 27.9716 16.0963 27.9821C14.5802 27.9925 13.3597 29.23 13.3702 30.7461C13.3807 32.2621 14.6182 33.4826 16.1343 33.4721Z" fill="#C4C4C4"/>
<path fill-rule="evenodd" clip-rule="evenodd" d="M15.9918 12.8844C24.33 12.8267 31.1362 19.5393 31.194 27.8776L31.384 55.3279C31.4417 63.6661 24.729 70.4723 16.3908 70.5301C8.05256 70.5878 1.24631 63.8751 1.1886 55.5369L0.998596 28.0866C0.940882 19.7483 7.65356 12.9421 15.9918 12.8844ZM30.0114 55.3374L29.8214 27.8871C29.769 20.3069 23.5815 14.2044 16.0013 14.2569C8.42108 14.3094 2.31864 20.4969 2.37111 28.0771L2.56111 55.5274C2.61358 63.1076 8.80108 69.21 16.3813 69.1575C23.9615 69.1051 30.0639 62.9176 30.0114 55.3374Z" fill="#C4C4C4"/>
</svg>
