<svg width="1920" height="750" viewBox="0 0 1920 750" fill="none" xmlns="http://www.w3.org/2000/svg">
<g clip-path="url(#clip0_705_545)">
<rect width="1920" height="750" fill="#F4F3F3"/>
<path d="M1403 0C1331.16 298.274 1088.45 635.981 348 750.5H423C1163.45 635.981 1500.16 298.274 1572 0H1403Z" fill="#FF0000" fill-opacity="0.54"/>
<path d="M1572 0C1503.53 283.679 1189.4 629.024 426.25 750L495.499 750.5C1296.26 645.21 1692.86 305.494 1717.5 0H1572Z" fill="#FFD600" fill-opacity="0.36"/>
<path d="M1856 0C1835.33 319.964 1386.05 709.408 567.5 750H500.5C661.774 728.73 806.502 697.337 935 658.383C988.472 642.769 1038.76 626.188 1086 608.765C1202.17 563.474 1300.07 513.933 1381.5 461.706C1431.72 428.143 1475.34 394.546 1513 360.961C1647.68 238.505 1706.83 118.384 1717.5 0H1856Z" fill="#05FF00" fill-opacity="0.36"/>
</g>
<defs>
<clipPath id="clip0_705_545">
<rect width="1920" height="750" fill="white"/>
</clipPath>
</defs>
</svg>
