<svg width="38" height="37" viewBox="0 0 38 37" fill="none" xmlns="http://www.w3.org/2000/svg">
<path d="M30.5305 5.12523L30.1022 4.69887C29.7516 4.3499 29.7516 3.78316 30.1022 3.43418C30.4362 3.10171 30.9677 3.08712 31.319 3.39042C31.0162 3.03926 31.0318 2.50876 31.3659 2.17612C31.6395 1.90373 32.0458 1.84471 32.3768 1.99906C32.3358 1.72778 32.4201 1.44125 32.6297 1.23257C32.979 0.884839 33.5444 0.884839 33.8937 1.23258L34.1672 1.50485L34.7989 0.875951C35.3024 0.374683 36.1179 0.374683 36.6214 0.875951C37.1262 1.37846 37.1262 2.19412 36.6214 2.69663L35.9929 3.32235L36.4212 3.7487C36.7717 4.09768 36.7717 4.66441 36.4212 5.01339C36.1475 5.28578 35.7413 5.3448 35.4102 5.19045C35.4513 5.46173 35.367 5.74826 35.1574 5.95694M30.5305 5.12523L35.1574 5.95694M30.5305 5.12523L27.1063 8.53405C24.7619 7.07572 21.6637 7.3032 18.8615 8.23306C15.4633 9.36072 11.778 11.7188 8.51459 14.9676C5.25124 18.2163 2.88211 21.8854 1.74906 25.2692C0.660704 28.5196 0.528225 32.1894 2.92961 34.58C5.32976 36.9694 9.0132 36.8377 12.2772 35.7546C15.6754 34.627 19.3607 32.2688 22.6241 29.0201C25.8874 25.7714 28.2566 22.1023 29.3896 18.7184C30.3486 15.8542 30.5649 12.6742 28.9648 10.3188L32.3562 6.94273L32.6297 7.215C32.979 7.56273 33.5444 7.56274 33.8937 7.215C34.2278 6.88236 34.2435 6.35187 33.9406 6.00071M30.5305 5.12523L33.9406 6.00071M35.1574 5.95694C34.8234 6.28941 34.2919 6.304 33.9406 6.00071M35.1574 5.95694L33.9406 6.00071M4.53294 30.3286V30.8286H5.03294H6.60977H7.10977V30.3286V30.0429V29.5429H6.88087V29.0771V28.7914V28.4595H7.0698V27.9595V27.6738V27.1738H6.5698H5.03294H4.53294V27.6738V30.3286ZM8.67808 30.3286V30.8286H9.17808H9.51597H10.016V30.3286V28.4595H10.3225H10.8225V27.9595V27.6738V27.1738H10.3225H8.3715H7.8715V27.6738V27.9595V28.4595H8.3715H8.67808V30.3286ZM14.3523 30.3239L14.6399 29.9933L14.3498 29.6648L14.1645 29.4551L13.7984 29.0406L13.4228 29.4464C13.3177 29.56 13.2495 29.5827 13.1721 29.5827C13.0708 29.5827 13.0121 29.5483 12.965 29.4864C12.9069 29.41 12.8437 29.2556 12.8437 28.994C12.8437 28.7419 12.9076 28.5929 12.9664 28.5184C13.0161 28.4555 13.0799 28.4197 13.183 28.4197C13.2178 28.4197 13.2439 28.427 13.2676 28.4388C13.2936 28.4516 13.3255 28.4744 13.362 28.5136L13.7479 28.9281L14.1113 28.4939L14.293 28.2768L14.5712 27.9445L14.2817 27.6219C14.055 27.3694 13.673 27.1268 13.1793 27.1268C12.7062 27.1268 12.2722 27.3125 11.9616 27.6624C11.6544 28.0083 11.4985 28.4789 11.4985 29.0048C11.4985 29.5304 11.6514 29.999 11.9549 30.3435C12.2621 30.6923 12.6914 30.8756 13.1575 30.8756C13.6613 30.8756 14.0562 30.6645 14.3523 30.3239ZM19.2287 21.9939C19.2287 21.4169 19.0937 20.8703 18.8536 20.3847L27.0777 12.1975C27.8035 13.6727 27.7163 15.8353 26.7797 18.3662C25.7373 21.1828 23.683 24.3309 20.8016 27.1994C17.7602 30.2271 14.4069 32.3366 11.4627 33.3136C8.48657 34.3012 6.08846 34.0896 4.75212 32.7593C3.41701 31.4302 3.20426 29.0457 4.19592 26.084C5.17702 23.154 7.29566 19.8161 10.3371 16.7883C13.1651 13.973 16.2642 11.9502 19.0544 10.8949C21.5363 9.95611 23.684 9.81299 25.1916 10.4401L16.9695 18.6253C16.5378 18.447 16.0646 18.3488 15.5694 18.3488C13.5505 18.3488 11.91 19.9786 11.91 21.9939C11.91 24.0092 13.5505 25.6391 15.5694 25.6391C17.5882 25.6391 19.2287 24.0092 19.2287 21.9939Z" fill="black" stroke="black"/>
</svg>
