<svg width="36" height="38" viewBox="0 0 36 38" fill="none" xmlns="http://www.w3.org/2000/svg">
<path d="M10.5 15C10.5 9.67969 18 1 18 1C18 1 25.5 9.67969 25.5 15C25.5 19.4004 22.125 23 18 23C13.875 23 10.5 19.4004 10.5 15Z" fill="black"/>
<path d="M4.74743 29.7213C4.81276 29.7713 4.87597 29.8196 4.95279 29.8225C5.12767 29.8293 5.109 29.6066 5.09412 29.4292C5.09123 29.3946 5.08847 29.3618 5.08732 29.3327C5.12951 29.313 5.16432 29.3201 5.19536 29.3415C5.1919 29.3854 5.19238 29.4313 5.19284 29.475L5.19314 29.518C5.19314 29.7359 5.3689 29.7869 5.53988 29.7869C5.74618 29.7869 5.88591 29.6747 5.95049 29.4875C5.96411 29.5169 5.97723 29.5403 5.98906 29.5556C6.00593 29.5773 6.01977 29.6342 6.03401 29.6927C6.05258 29.7691 6.07183 29.8482 6.09939 29.8561C6.16137 29.8739 6.21808 29.858 6.2741 29.8423C6.30382 29.834 6.33336 29.8257 6.36339 29.8225C6.46136 29.8122 6.55393 29.7923 6.64625 29.7725C6.77857 29.7441 6.91042 29.7157 7.05686 29.7157C7.07855 29.7157 7.10133 29.7152 7.12495 29.714C7.22137 29.756 7.31791 29.77 7.45632 29.7236C7.52282 29.7014 7.58125 29.6746 7.63501 29.6447C7.67487 29.6659 7.71147 29.6939 7.74743 29.7213C7.81276 29.7713 7.87597 29.8196 7.95279 29.8225C8.12767 29.8293 8.109 29.6066 8.09412 29.4292C8.09123 29.3946 8.08847 29.3618 8.08732 29.3327C8.12951 29.313 8.16432 29.3201 8.19536 29.3415C8.1919 29.3854 8.19238 29.4313 8.19284 29.475L8.19314 29.518C8.19314 29.7359 8.3689 29.7869 8.53988 29.7869C8.74618 29.7869 8.88591 29.6747 8.95049 29.4875C8.96411 29.5169 8.97723 29.5403 8.98906 29.5556C9.00593 29.5773 9.01977 29.6342 9.03401 29.6927C9.05258 29.7691 9.07183 29.8482 9.09939 29.8561C9.16137 29.8739 9.21807 29.858 9.2741 29.8423C9.30382 29.834 9.33335 29.8257 9.36339 29.8225C9.46135 29.8122 9.55393 29.7923 9.64625 29.7725C9.77856 29.7441 9.91042 29.7157 10.0569 29.7157C10.0785 29.7157 10.1013 29.7152 10.125 29.714C10.2214 29.756 10.3179 29.77 10.4563 29.7236C10.5228 29.7014 10.5813 29.6746 10.635 29.6447C10.6749 29.6659 10.7115 29.6939 10.7474 29.7213C10.8128 29.7713 10.876 29.8196 10.9528 29.8225C11.1277 29.8293 11.109 29.6066 11.0941 29.4292C11.0912 29.3946 11.0885 29.3618 11.0873 29.3327C11.1295 29.313 11.1643 29.3201 11.1954 29.3415C11.1919 29.3854 11.1924 29.4313 11.1928 29.475L11.1931 29.518C11.1931 29.7359 11.3689 29.7869 11.5399 29.7869C11.7462 29.7869 11.8859 29.6747 11.9505 29.4875C11.9641 29.5169 11.9772 29.5403 11.9891 29.5556C12.0059 29.5773 12.0198 29.6342 12.034 29.6927C12.0526 29.7691 12.0718 29.8482 12.0994 29.8561C12.1614 29.8739 12.2181 29.858 12.2741 29.8423C12.3038 29.834 12.3334 29.8257 12.3634 29.8225C12.4614 29.8122 12.5539 29.7923 12.6462 29.7725C12.7786 29.7441 12.9104 29.7157 13.0569 29.7157C13.0785 29.7157 13.1013 29.7152 13.125 29.714C13.2214 29.756 13.3179 29.77 13.4563 29.7236C13.5228 29.7014 13.5813 29.6746 13.635 29.6447C13.6749 29.6659 13.7115 29.6939 13.7474 29.7213C13.8128 29.7713 13.876 29.8196 13.9528 29.8225C14.1277 29.8293 14.109 29.6066 14.0941 29.4292C14.0912 29.3946 14.0885 29.3618 14.0873 29.3327C14.1295 29.313 14.1643 29.3201 14.1954 29.3415C14.1919 29.3854 14.1924 29.4313 14.1928 29.475L14.1931 29.518C14.1931 29.7359 14.3689 29.7869 14.5399 29.7869C14.7462 29.7869 14.8859 29.6747 14.9505 29.4875C14.9641 29.5169 14.9772 29.5403 14.9891 29.5556C15.0059 29.5773 15.0198 29.6342 15.034 29.6927C15.0526 29.7691 15.0718 29.8482 15.0994 29.8561C15.1614 29.8739 15.2181 29.858 15.2741 29.8423C15.3038 29.834 15.3334 29.8257 15.3634 29.8225C15.4614 29.8122 15.5539 29.7923 15.6462 29.7725C15.7786 29.7441 15.9104 29.7157 16.0569 29.7157C16.0785 29.7157 16.1013 29.7152 16.125 29.714C16.2214 29.756 16.3179 29.77 16.4563 29.7236C16.5228 29.7014 16.5813 29.6746 16.635 29.6447C16.6749 29.6659 16.7115 29.6939 16.7474 29.7213C16.8128 29.7713 16.876 29.8196 16.9528 29.8225C17.1277 29.8293 17.109 29.6066 17.0941 29.4292C17.0912 29.3946 17.0885 29.3618 17.0873 29.3327C17.1295 29.313 17.1643 29.3201 17.1954 29.3415C17.1919 29.3853 17.1924 29.4311 17.1928 29.4748L17.1931 29.518C17.1931 29.7359 17.3689 29.7869 17.5399 29.7869C17.7462 29.7869 17.8859 29.6747 17.9505 29.4875C17.9641 29.5169 17.9772 29.5403 17.9891 29.5556C18.0059 29.5773 18.0198 29.6342 18.034 29.6927C18.0526 29.7691 18.0718 29.8482 18.0994 29.8561C18.1614 29.8739 18.2181 29.858 18.2741 29.8423C18.3038 29.834 18.3334 29.8257 18.3634 29.8225C18.4614 29.8122 18.5539 29.7923 18.6463 29.7725C18.7786 29.7441 18.9104 29.7157 19.0569 29.7157C19.0785 29.7157 19.1013 29.7152 19.125 29.714C19.2214 29.756 19.3179 29.77 19.4563 29.7236C19.5228 29.7014 19.5813 29.6746 19.635 29.6447C19.6749 29.6659 19.7115 29.6939 19.7474 29.7213C19.8128 29.7713 19.876 29.8196 19.9528 29.8225C20.1277 29.8293 20.109 29.6066 20.0941 29.4292C20.0912 29.3946 20.0885 29.3618 20.0873 29.3327C20.1295 29.313 20.1643 29.3201 20.1954 29.3415C20.1919 29.3854 20.1924 29.4312 20.1928 29.4749L20.1931 29.518C20.1931 29.7359 20.3689 29.7869 20.5399 29.7869C20.7462 29.7869 20.8859 29.6747 20.9505 29.4875C20.9641 29.5169 20.9772 29.5403 20.9891 29.5556C21.0059 29.5773 21.0198 29.6342 21.034 29.6927C21.0526 29.7691 21.0718 29.8482 21.0994 29.8561C21.1614 29.8739 21.2181 29.858 21.2741 29.8423C21.3038 29.834 21.3334 29.8257 21.3634 29.8225C21.4614 29.8122 21.5539 29.7923 21.6463 29.7725C21.7786 29.7441 21.9104 29.7157 22.0569 29.7157C22.0785 29.7157 22.1013 29.7152 22.125 29.714C22.2214 29.756 22.3179 29.77 22.4563 29.7236C22.5228 29.7014 22.5813 29.6746 22.635 29.6447C22.6749 29.6659 22.7115 29.6939 22.7474 29.7213C22.8128 29.7713 22.876 29.8196 22.9528 29.8225C23.1277 29.8293 23.109 29.6066 23.0941 29.4292C23.0912 29.3946 23.0885 29.3618 23.0873 29.3327C23.1295 29.313 23.1643 29.3201 23.1954 29.3415C23.1919 29.3854 23.1924 29.4312 23.1928 29.4749L23.1931 29.518C23.1931 29.7359 23.3689 29.7869 23.5399 29.7869C23.7462 29.7869 23.8859 29.6747 23.9505 29.4875C23.9641 29.5169 23.9772 29.5403 23.9891 29.5556C24.0059 29.5773 24.0198 29.6342 24.034 29.6927C24.0526 29.7691 24.0718 29.8482 24.0994 29.8561C24.1614 29.8739 24.2181 29.858 24.2741 29.8423C24.3038 29.834 24.3334 29.8257 24.3634 29.8225C24.4614 29.8122 24.5539 29.7923 24.6463 29.7725C24.7786 29.7441 24.9104 29.7157 25.0569 29.7157C25.0785 29.7157 25.1013 29.7152 25.125 29.714C25.2214 29.756 25.3179 29.77 25.4563 29.7236C25.5228 29.7014 25.5813 29.6746 25.635 29.6447C25.6749 29.6659 25.7115 29.6939 25.7474 29.7213C25.8128 29.7713 25.876 29.8196 25.9528 29.8225C26.1277 29.8293 26.109 29.6066 26.0941 29.4292C26.0912 29.3946 26.0885 29.3618 26.0873 29.3327C26.1295 29.313 26.1643 29.3201 26.1954 29.3415C26.1919 29.3854 26.1924 29.4313 26.1928 29.475L26.1931 29.518C26.1931 29.7359 26.3689 29.7869 26.5399 29.7869C26.7462 29.7869 26.8859 29.6747 26.9505 29.4875C26.9641 29.5169 26.9772 29.5403 26.9891 29.5556C27.0059 29.5773 27.0198 29.6342 27.034 29.6927C27.0526 29.7691 27.0718 29.8482 27.0994 29.8561C27.1614 29.8739 27.2181 29.858 27.2741 29.8423C27.3038 29.834 27.3334 29.8257 27.3634 29.8225C27.4614 29.8122 27.5539 29.7923 27.6463 29.7725C27.7786 29.7441 27.9104 29.7157 28.0569 29.7157C28.0785 29.7157 28.1013 29.7152 28.125 29.714C28.2214 29.756 28.3179 29.77 28.4563 29.7236C28.5228 29.7014 28.5813 29.6746 28.635 29.6447C28.6749 29.6659 28.7115 29.6939 28.7474 29.7213C28.8128 29.7713 28.876 29.8196 28.9528 29.8225C29.1277 29.8293 29.109 29.6066 29.0941 29.4292C29.0912 29.3946 29.0885 29.3618 29.0873 29.3327C29.1295 29.313 29.1643 29.3201 29.1954 29.3415C29.1919 29.3854 29.1924 29.4313 29.1928 29.475L29.1931 29.518C29.1931 29.7359 29.3689 29.7869 29.5399 29.7869C29.7462 29.7869 29.8859 29.6747 29.9505 29.4875C29.9641 29.5169 29.9772 29.5403 29.9891 29.5556C30.0059 29.5773 30.0198 29.6342 30.034 29.6927C30.0526 29.7691 30.0718 29.8482 30.0994 29.8561C30.1614 29.8739 30.2181 29.858 30.2741 29.8423C30.3038 29.834 30.3334 29.8257 30.3634 29.8225C30.4614 29.8122 30.5539 29.7923 30.6463 29.7725C30.7786 29.7441 30.9104 29.7157 31.0569 29.7157C31.2969 29.7157 31.6721 29.646 31.8173 29.4231C31.9324 29.2464 31.8283 29.0824 31.7188 28.9603C31.661 28.8959 31.596 28.8375 31.5305 28.7787C31.436 28.6939 31.3404 28.6081 31.2637 28.5016C31.1731 28.3756 30.9986 28.2706 30.8236 28.2081C30.738 28.1776 30.6522 28.1572 30.5762 28.1496C30.5137 28.1433 30.4638 28.12 30.414 28.0967C30.3561 28.0697 30.2984 28.0428 30.2215 28.0428C30.1693 28.0428 30.1214 28.034 30.0732 28.0252C30.0242 28.0162 29.9748 28.0072 29.9201 28.0072C29.8351 28.0072 29.7492 28.0054 29.6628 28.0036C29.404 27.9983 29.1411 27.9928 28.8897 28.0349C28.6965 28.0672 28.5074 28.12 28.3189 28.1727C28.2001 28.2059 28.0815 28.239 27.9623 28.2669C27.9171 28.2446 27.8704 28.2248 27.8236 28.2081C27.738 28.1776 27.6522 28.1572 27.5762 28.1496C27.5137 28.1433 27.4638 28.12 27.414 28.0967C27.3561 28.0697 27.2984 28.0428 27.2215 28.0428C27.1693 28.0428 27.1214 28.034 27.0732 28.0252C27.0242 28.0162 26.9748 28.0072 26.9201 28.0072C26.8351 28.0072 26.7492 28.0054 26.6628 28.0036C26.404 27.9983 26.1411 27.9928 25.8897 28.0349C25.6966 28.0672 25.5075 28.12 25.3189 28.1727C25.2001 28.2059 25.0815 28.239 24.9623 28.2669C24.9171 28.2446 24.8704 28.2248 24.8236 28.2081C24.738 28.1776 24.6522 28.1572 24.5762 28.1496C24.5137 28.1433 24.4638 28.12 24.414 28.0967C24.3561 28.0697 24.2984 28.0428 24.2215 28.0428C24.1693 28.0428 24.1214 28.034 24.0732 28.0252C24.0242 28.0162 23.9748 28.0072 23.9201 28.0072C23.8351 28.0072 23.7492 28.0054 23.6628 28.0036C23.404 27.9983 23.1411 27.9928 22.8897 28.0349C22.6966 28.0672 22.5075 28.12 22.3189 28.1727C22.2002 28.2059 22.0815 28.239 21.9623 28.2669C21.9171 28.2446 21.8704 28.2248 21.8236 28.2081C21.738 28.1776 21.6522 28.1572 21.5762 28.1496C21.5137 28.1433 21.4638 28.12 21.414 28.0967C21.3561 28.0697 21.2984 28.0428 21.2215 28.0428C21.1693 28.0428 21.1214 28.034 21.0732 28.0252C21.0242 28.0162 20.9748 28.0072 20.9201 28.0072C20.8351 28.0072 20.7491 28.0054 20.6626 28.0036C20.4038 27.9983 20.1411 27.9928 19.8897 28.0349C19.6966 28.0672 19.5075 28.12 19.319 28.1727C19.2002 28.2059 19.0815 28.239 18.9623 28.2669C18.9171 28.2446 18.8704 28.2248 18.8236 28.2081C18.738 28.1776 18.6522 28.1572 18.5762 28.1496C18.5137 28.1433 18.4638 28.12 18.414 28.0967C18.3561 28.0697 18.2984 28.0428 18.2215 28.0428C18.1693 28.0428 18.1214 28.034 18.0732 28.0252C18.0242 28.0162 17.9748 28.0072 17.9201 28.0072C17.8351 28.0072 17.7492 28.0054 17.6628 28.0036C17.404 27.9983 17.1411 27.9928 16.8897 28.0349C16.6965 28.0672 16.5074 28.12 16.3188 28.1727C16.2001 28.2059 16.0815 28.239 15.9623 28.2669C15.9171 28.2446 15.8704 28.2248 15.8236 28.2081C15.738 28.1776 15.6522 28.1572 15.5762 28.1496C15.5137 28.1433 15.4638 28.12 15.414 28.0967C15.3561 28.0697 15.2984 28.0428 15.2215 28.0428C15.1693 28.0428 15.1214 28.034 15.0732 28.0252C15.0242 28.0162 14.9748 28.0072 14.9201 28.0072C14.8351 28.0072 14.7492 28.0054 14.6628 28.0036C14.404 27.9983 14.1411 27.9928 13.8897 28.0349C13.6966 28.0672 13.5076 28.12 13.319 28.1727C13.2003 28.2058 13.0815 28.239 12.9623 28.2669C12.9171 28.2446 12.8704 28.2248 12.8236 28.2081C12.738 28.1776 12.6522 28.1572 12.5762 28.1496C12.5137 28.1433 12.4638 28.12 12.414 28.0967C12.3561 28.0697 12.2984 28.0428 12.2215 28.0428C12.1693 28.0428 12.1214 28.034 12.0732 28.0252C12.0242 28.0162 11.9748 28.0072 11.9201 28.0072C11.8351 28.0072 11.7492 28.0054 11.6628 28.0036C11.404 27.9983 11.1411 27.9928 10.8897 28.0349C10.6966 28.0672 10.5076 28.12 10.3191 28.1726C10.2003 28.2058 10.0815 28.239 9.96226 28.2669C9.91714 28.2446 9.87039 28.2248 9.82362 28.2081C9.73797 28.1776 9.65223 28.1572 9.57616 28.1496C9.51371 28.1433 9.46378 28.12 9.41398 28.0967C9.35612 28.0697 9.29844 28.0428 9.22154 28.0428C9.16933 28.0428 9.12144 28.034 9.07319 28.0252C9.02419 28.0162 8.97478 28.0072 8.92011 28.0072C8.83515 28.0072 8.74919 28.0054 8.66281 28.0036C8.40398 27.9983 8.14113 27.9928 7.88974 28.0349C7.69662 28.0672 7.50759 28.12 7.31908 28.1726C7.20033 28.2058 7.0815 28.239 6.96226 28.2669C6.91714 28.2446 6.87039 28.2248 6.82362 28.2081C6.73797 28.1776 6.65223 28.1572 6.57616 28.1496C6.51371 28.1433 6.46378 28.12 6.41398 28.0967C6.35612 28.0697 6.29844 28.0428 6.22154 28.0428C6.16933 28.0428 6.12144 28.034 6.07319 28.0252C6.02419 28.0162 5.97478 28.0072 5.92011 28.0072C5.83515 28.0072 5.74919 28.0054 5.66281 28.0036C5.40398 27.9983 5.14113 27.9928 4.88974 28.0349C4.69663 28.0672 4.50762 28.12 4.31912 28.1726C4.16238 28.2164 4.00565 28.2602 3.84755 28.292C3.71239 28.3191 3.39261 28.4866 3.38458 28.6479C3.36471 29.0467 3.5825 29.4083 3.93227 29.609L3.97538 29.6339C4.13537 29.7271 4.24878 29.7931 4.45632 29.7236C4.52282 29.7014 4.58125 29.6746 4.63501 29.6447C4.67487 29.6659 4.71147 29.6939 4.74743 29.7213Z" fill="black"/>
<path fill-rule="evenodd" clip-rule="evenodd" d="M10.5396 31C10.6757 30.9806 10.8019 31.0747 10.8222 31.2105C10.8899 31.2184 10.9599 31.2237 11.0346 31.2289L11.0655 31.2311C11.1833 31.2392 11.3141 31.2482 11.4466 31.2698C11.4878 31.2765 11.5304 31.2832 11.5741 31.2901L11.5769 31.2906C11.7917 31.3244 12.033 31.3624 12.2649 31.423C12.2952 31.4072 12.326 31.3919 12.3572 31.3772C12.7292 31.2023 13.1148 31.0607 13.5396 31C13.6757 30.9806 13.8019 31.0747 13.8222 31.2105C13.8899 31.2184 13.9599 31.2237 14.0346 31.2289L14.0655 31.2311C14.1833 31.2392 14.3141 31.2482 14.4466 31.2698L14.4818 31.2755L14.5777 31.2907C14.7925 31.3245 15.033 31.3624 15.2649 31.423C15.2952 31.4072 15.326 31.3919 15.3572 31.3772C15.7292 31.2023 16.1148 31.0607 16.5396 31C16.6757 30.9806 16.8019 31.0747 16.8222 31.2105C16.8899 31.2184 16.9599 31.2237 17.0346 31.2289L17.0655 31.2311C17.1833 31.2392 17.3141 31.2482 17.4466 31.2698C17.4887 31.2767 17.5322 31.2835 17.5768 31.2905C17.7915 31.3244 18.033 31.3624 18.2649 31.423C18.2952 31.4072 18.326 31.3919 18.3572 31.3772C18.7292 31.2023 19.1148 31.0607 19.5396 31C19.6757 30.9806 19.8019 31.0747 19.8222 31.2105C19.8899 31.2184 19.9599 31.2237 20.0346 31.2289L20.0655 31.2311C20.1833 31.2392 20.3141 31.2482 20.4466 31.2698L20.5123 31.2804L20.5777 31.2907C20.7925 31.3245 21.033 31.3624 21.2649 31.423C21.2952 31.4072 21.326 31.3919 21.3572 31.3772C21.7292 31.2023 22.1148 31.0607 22.5396 31C22.6757 30.9806 22.8019 31.0747 22.8222 31.2105C22.8899 31.2184 22.9599 31.2237 23.0346 31.2289L23.0655 31.2311C23.1833 31.2392 23.3141 31.2482 23.4466 31.2698C23.489 31.2767 23.5328 31.2836 23.5777 31.2907C23.7925 31.3245 24.033 31.3624 24.2649 31.423C24.2952 31.4072 24.326 31.3919 24.3572 31.3772C24.7292 31.2023 25.1148 31.0607 25.5396 31C25.6757 30.9806 25.8019 31.0747 25.8222 31.2105C25.8899 31.2184 25.9599 31.2237 26.0346 31.2289L26.0655 31.2311C26.1833 31.2392 26.3141 31.2482 26.4466 31.2698C26.4887 31.2767 26.5322 31.2835 26.5768 31.2905C26.7915 31.3244 27.033 31.3624 27.2649 31.423C27.2952 31.4072 27.326 31.3919 27.3572 31.3772C27.7292 31.2023 28.1148 31.0607 28.5396 31C28.6762 30.9805 28.8029 31.0754 28.8224 31.2121C28.8419 31.3488 28.747 31.4754 28.6103 31.495C28.3698 31.5293 28.1394 31.595 27.9091 31.6838C27.9885 31.7322 28.065 31.7873 28.1372 31.8505C28.224 31.9265 28.3161 32.0036 28.4105 32.0827C28.5996 32.2413 28.798 32.4076 28.9818 32.5873L29.0193 32.5433C29.3803 32.1194 29.7822 31.6475 30.3572 31.3772C30.7292 31.2023 31.1148 31.0607 31.5396 31C31.6762 30.9805 31.8029 31.0754 31.8224 31.2121C31.8419 31.3488 31.747 31.4754 31.6103 31.495C31.2521 31.5461 30.9163 31.6669 30.5699 31.8297C30.1882 32.0091 29.8978 32.2976 29.6027 32.633C29.6498 32.6784 29.6791 32.7423 29.6791 32.8129C29.6791 32.951 29.5672 33.0629 29.4291 33.0629L29.4011 33.0631C29.5616 33.2725 29.7073 33.4929 29.8453 33.7061C29.8762 33.6702 29.9077 33.6375 29.9397 33.6085C30.4965 33.1038 31.2075 32.7121 31.9733 32.5973L32.0197 32.5428C32.3807 32.1189 32.7822 31.6475 33.3572 31.3772C33.7292 31.2023 34.1148 31.0607 34.5396 31C34.6762 30.9805 34.8029 31.0754 34.8224 31.2121C34.8419 31.3488 34.7469 31.4754 34.6103 31.495C34.2521 31.5461 33.9163 31.6669 33.5699 31.8297C33.1882 32.0091 32.8978 32.2976 32.6027 32.633C32.6498 32.6784 32.6791 32.7423 32.6791 32.8129C32.6791 32.951 32.5672 33.0629 32.4291 33.0629C32.3617 33.0629 32.2944 33.0657 32.2273 33.0711C31.8284 33.5582 31.5251 34.1362 31.4285 34.7434C31.3946 34.9563 31.451 36.0401 31.4823 36.6405C31.4909 36.8051 31.4976 36.9334 31.5 36.9975C31.6294 36.7347 31.7648 36.3171 31.9133 35.8592C32.1932 34.9958 32.5195 33.9894 32.9397 33.6085C33.6056 33.0048 34.4921 32.5629 35.4291 32.5629C35.5672 32.5629 35.6791 32.6748 35.6791 32.8129C35.6791 32.951 35.5672 33.0629 35.4291 33.0629C34.6476 33.0629 33.8757 33.4349 33.2755 33.979C32.9435 34.2799 32.666 34.9099 32.3889 35.5392C31.8366 36.7932 31.2854 38.0449 30.3059 36.6867C30.2447 36.6018 30.1867 36.5189 30.1302 36.4381C30.0004 36.2524 29.8779 36.0774 29.7412 35.914C29.6427 35.7963 29.5455 35.678 29.4486 35.5602L29.4037 35.5055L29.3889 35.5392C28.8366 36.7932 28.2854 38.0449 27.3059 36.6867C27.2447 36.6018 27.1867 36.5189 27.1302 36.4381C27.0004 36.2524 26.8779 36.0774 26.7412 35.914C26.6427 35.7963 26.5455 35.678 26.4486 35.5602L26.4037 35.5055L26.3889 35.5392C25.8366 36.7932 25.2854 38.0449 24.3059 36.6867C24.2447 36.6018 24.1867 36.5189 24.1302 36.4381C24.0004 36.2524 23.8779 36.0774 23.7412 35.914C23.6427 35.7963 23.5455 35.678 23.4486 35.5602L23.4037 35.5055L23.3889 35.5392C22.8366 36.7932 22.2854 38.0449 21.3059 36.6867C21.2447 36.6018 21.1867 36.5189 21.1302 36.4381C21.0004 36.2524 20.8779 36.0774 20.7412 35.914C20.6427 35.7963 20.5455 35.678 20.4486 35.5602L20.4037 35.5055L20.3889 35.5392C19.8366 36.7932 19.2854 38.0449 18.3059 36.6867C18.2447 36.6018 18.1867 36.5189 18.1302 36.4381C18.0004 36.2524 17.8779 36.0774 17.7412 35.914C17.6427 35.7963 17.5455 35.678 17.4486 35.5602L17.4037 35.5055L17.3889 35.5392C16.8366 36.7932 16.2854 38.0449 15.3059 36.6867C15.2447 36.6018 15.1867 36.5189 15.1302 36.4381C15.0003 36.2524 14.8779 36.0774 14.7412 35.914C14.6427 35.7963 14.5455 35.678 14.4486 35.5602L14.4037 35.5055L14.3889 35.5392C13.8366 36.7932 13.2854 38.0449 12.3059 36.6867C12.2447 36.6018 12.1867 36.5189 12.1302 36.4381C12.0003 36.2524 11.8779 36.0774 11.7412 35.914C11.6427 35.7963 11.5455 35.678 11.4486 35.5602L11.4037 35.5055L11.3889 35.5392C10.8366 36.7932 10.2854 38.0449 9.30588 36.6867C9.24466 36.6018 9.1867 36.5189 9.13019 36.4381C9.00035 36.2524 8.87792 36.0774 8.74123 35.914C8.64275 35.7963 8.54551 35.678 8.44865 35.5602L8.40371 35.5055L8.38887 35.5392C7.83661 36.7932 7.28539 38.0449 6.30588 36.6867C6.24465 36.6018 6.1867 36.5189 6.13019 36.4381C6.00034 36.2524 5.87793 36.0774 5.74123 35.914C5.64275 35.7963 5.54551 35.678 5.44865 35.5602C4.87118 34.8577 4.30713 34.1715 3.57248 33.7247C3.1584 33.4729 2.65561 33.2371 2.17103 33.1576C1.69173 33.0789 1.25918 33.1558 0.926777 33.4882C0.829146 33.5858 0.670854 33.5858 0.573223 33.4882C0.475592 33.3906 0.475592 33.2323 0.573223 33.1346C1.05585 32.652 1.6724 32.569 2.25199 32.6642C2.71561 32.7402 3.17374 32.9318 3.56464 33.1437L3.56883 33.1391L3.57322 33.1346C3.80779 32.9001 4.074 32.7599 4.35222 32.6887C4.27516 32.6221 4.19624 32.556 4.1157 32.4885L4.11488 32.4878C4.015 32.4041 3.9123 32.3181 3.80795 32.2268C3.63853 32.0785 3.41905 31.9826 3.16444 31.9137C2.95183 31.8561 2.73164 31.8213 2.50792 31.7859C2.46115 31.7785 2.41328 31.771 2.36624 31.7633C2.25762 31.7456 2.14905 31.7381 2.02692 31.7296L1.99967 31.7277C1.87047 31.7186 1.72688 31.7077 1.57928 31.6789C1.54917 31.673 1.51124 31.6708 1.45898 31.6714C1.44687 31.6716 1.42503 31.6722 1.40007 31.673C1.36012 31.6742 1.31215 31.6756 1.2832 31.6756C1.14513 31.6756 1.0332 31.5637 1.0332 31.4256C1.0332 31.2875 1.14513 31.1756 1.2832 31.1756C1.31677 31.1756 1.33824 31.1748 1.36281 31.1738C1.38579 31.173 1.41186 31.172 1.45277 31.1715C1.51692 31.1707 1.59498 31.1724 1.67529 31.1882C1.7892 31.2104 1.90478 31.2198 2.03457 31.2289L2.06546 31.2311C2.18327 31.2392 2.31412 31.2482 2.44658 31.2698C2.48808 31.2766 2.53097 31.2833 2.57495 31.2903L2.5769 31.2906C2.80096 31.3259 3.0539 31.3657 3.29508 31.431C3.5874 31.5101 3.888 31.6324 4.1372 31.8505C4.22404 31.9265 4.3161 32.0036 4.41045 32.0827C4.61695 32.2558 4.83451 32.4381 5.03194 32.6372C5.10565 32.6431 5.17911 32.6522 5.25199 32.6642C5.71561 32.7402 6.17374 32.9318 6.56464 33.1437L6.57007 33.1378L6.57322 33.1346C6.80779 32.9001 7.07399 32.7599 7.35221 32.6887C7.27497 32.622 7.19585 32.5557 7.1151 32.488C7.01522 32.4043 6.9123 32.3181 6.80795 32.2268C6.63853 32.0785 6.41905 31.9826 6.16444 31.9137C5.95183 31.8561 5.73164 31.8213 5.50792 31.7859C5.46117 31.7785 5.41326 31.771 5.36624 31.7633C5.25762 31.7456 5.14905 31.7381 5.02692 31.7296L4.99967 31.7277C4.87047 31.7186 4.72688 31.7077 4.57928 31.6789C4.54917 31.673 4.51124 31.6708 4.45898 31.6714C4.44687 31.6716 4.42503 31.6722 4.40007 31.673C4.36012 31.6742 4.31215 31.6756 4.2832 31.6756C4.14513 31.6756 4.0332 31.5637 4.0332 31.4256C4.0332 31.2875 4.14513 31.1756 4.2832 31.1756C4.31677 31.1756 4.33824 31.1748 4.36281 31.1738C4.38579 31.173 4.41186 31.172 4.45277 31.1715C4.51692 31.1707 4.59498 31.1724 4.67529 31.1882C4.7892 31.2104 4.90478 31.2198 5.03457 31.2289L5.06546 31.2311C5.18327 31.2392 5.31412 31.2482 5.44658 31.2698C5.48871 31.2767 5.53227 31.2835 5.57694 31.2906C5.801 31.3259 6.0539 31.3657 6.29508 31.431C6.5874 31.5101 6.888 31.6324 7.1372 31.8505C7.22404 31.9265 7.3161 32.0036 7.41045 32.0827C7.59957 32.2412 7.79808 32.4076 7.98177 32.5873L8.01973 32.5428C8.22566 32.301 8.44476 32.0437 8.70172 31.8172C8.63748 31.8064 8.57285 31.7962 8.50792 31.7859C8.46112 31.7785 8.41331 31.771 8.36624 31.7633C8.25762 31.7456 8.14905 31.7381 8.02692 31.7296L7.99967 31.7277C7.87047 31.7186 7.72688 31.7077 7.57928 31.6789C7.54917 31.673 7.51124 31.6708 7.45898 31.6714C7.44687 31.6716 7.42503 31.6722 7.40007 31.673C7.36012 31.6742 7.31215 31.6756 7.2832 31.6756C7.14513 31.6756 7.0332 31.5637 7.0332 31.4256C7.0332 31.2875 7.14513 31.1756 7.2832 31.1756C7.31677 31.1756 7.33824 31.1748 7.36281 31.1738C7.38583 31.173 7.41178 31.172 7.45277 31.1715C7.51692 31.1707 7.59498 31.1724 7.67529 31.1882C7.7892 31.2104 7.90478 31.2198 8.03457 31.2289L8.06546 31.2311C8.18327 31.2392 8.31412 31.2482 8.44658 31.2698C8.48871 31.2767 8.53227 31.2835 8.57694 31.2906C8.79169 31.3244 9.03298 31.3624 9.26495 31.423C9.2952 31.4072 9.32595 31.3919 9.35721 31.3772C9.72922 31.2023 10.1148 31.0607 10.5396 31ZM24.9091 31.6838C24.9777 31.6573 25.0464 31.6329 25.1153 31.6108C25.1597 31.6511 25.2186 31.6756 25.2832 31.6756C25.3121 31.6756 25.3601 31.6742 25.4001 31.673C25.425 31.6722 25.4469 31.6716 25.459 31.6714C25.5112 31.6708 25.5492 31.673 25.5793 31.6789C25.7269 31.7077 25.8705 31.7186 25.9997 31.7277L26.0269 31.7296C26.1491 31.7381 26.2576 31.7456 26.3662 31.7633C26.4132 31.771 26.4602 31.7784 26.5069 31.7858L26.5079 31.7859C26.5729 31.7962 26.6375 31.8064 26.7017 31.8172C26.4448 32.0437 26.2257 32.301 26.0198 32.5427L25.9818 32.5873C25.798 32.4076 25.5997 32.2413 25.4105 32.0827C25.3162 32.0037 25.224 31.9265 25.1372 31.8505C25.065 31.7873 24.9885 31.7322 24.9091 31.6838ZM26.6027 32.633C26.8326 32.3717 27.0596 32.1389 27.3291 31.964C27.5143 32.0279 27.6763 32.1115 27.8079 32.2268C27.9123 32.318 28.0147 32.4038 28.1145 32.4875C28.2138 32.5707 28.3111 32.6522 28.405 32.7347C28.1068 32.8342 27.8219 32.9728 27.5569 33.1395C27.2876 32.9941 26.9867 32.8585 26.6743 32.7637C26.6641 32.7129 26.6386 32.6676 26.6027 32.633ZM28.6738 33.9481C28.766 33.7465 28.878 33.552 29.0047 33.3674C29.1723 33.5862 29.3255 33.8233 29.4831 34.0671L29.5491 34.1692C29.475 34.3148 29.4041 34.4757 29.3361 34.6455C29.1276 34.4051 28.9086 34.1683 28.6738 33.9481ZM29.6328 34.9965C29.697 34.8595 29.7621 34.7274 29.8286 34.6041C30.2078 35.2129 30.5544 35.8644 30.8108 36.529C30.7776 36.4851 30.7445 36.4401 30.7114 36.3942C30.6597 36.3225 30.6071 36.2472 30.5534 36.1705C30.4181 35.9771 30.276 35.774 30.1247 35.5932C30.0323 35.4827 29.9388 35.3688 29.8442 35.2534C29.7746 35.1685 29.7042 35.0827 29.6328 34.9965ZM28.4878 34.4634C28.7128 34.6889 28.9263 34.9326 29.1372 35.1839C29.059 35.4097 28.9847 35.639 28.9134 35.859C28.7649 36.3169 28.6294 36.7347 28.5 36.9975C28.4976 36.9334 28.4909 36.8051 28.4823 36.6405C28.451 36.0401 28.3946 34.9563 28.4285 34.7434C28.4434 34.6493 28.4634 34.5559 28.4878 34.4634ZM28.4947 33.2328C28.4179 33.3545 28.3463 33.4804 28.2814 33.6101C28.2039 33.5492 28.1245 33.4906 28.0433 33.4345C28.1896 33.356 28.3406 33.2882 28.4947 33.2328ZM28.0795 34.0889C27.921 33.9573 27.7552 33.8364 27.5797 33.7292C27.4743 33.8074 27.3726 33.8909 27.2755 33.979C27.2215 34.0279 27.1689 34.0856 27.1176 34.1505C27.2652 34.4734 27.4323 35.0908 27.5913 35.6787C27.7426 36.2377 27.8866 36.7701 28 36.9975C27.999 36.9192 27.9897 36.7125 27.9779 36.4519C27.9491 35.8119 27.9057 34.8472 27.9347 34.6648C27.966 34.468 28.0153 34.2756 28.0795 34.0889ZM26.5344 33.2438C26.7271 33.3026 26.9184 33.3803 27.1018 33.4684C27.0464 33.514 26.9923 33.5608 26.9397 33.6085C26.9077 33.6375 26.8762 33.6702 26.8453 33.7061C26.7465 33.5535 26.6437 33.3971 26.5344 33.2438ZM24.5877 33.1203C24.8187 32.8943 25.0797 32.7584 25.3522 32.6887C25.2749 32.6219 25.1957 32.5555 25.1149 32.4878C25.015 32.4042 24.9123 32.318 24.8079 32.2268C24.6763 32.1115 24.5143 32.0279 24.3291 31.964C24.0596 32.1389 23.8326 32.3717 23.6027 32.633C23.6386 32.6676 23.6641 32.7129 23.6743 32.7637C23.9867 32.8585 24.2876 32.9941 24.5569 33.1395L24.5877 33.1203ZM30.5913 35.6787C30.4323 35.0908 30.2652 34.4734 30.1176 34.1505C30.1689 34.0856 30.2215 34.0279 30.2755 33.979C30.6325 33.6553 31.0503 33.3926 31.4947 33.2328C31.2219 33.6647 31.0166 34.1498 30.9347 34.6648C30.9057 34.8472 30.9491 35.8119 30.9779 36.4519C30.9897 36.7125 30.999 36.9192 31 36.9975C30.8866 36.7701 30.7426 36.2377 30.5913 35.6787ZM21.9091 31.6838C21.9777 31.6573 22.0464 31.6329 22.1153 31.6108C22.1597 31.6511 22.2186 31.6756 22.2832 31.6756C22.2971 31.6756 22.3154 31.6753 22.3351 31.6748L22.4001 31.673C22.425 31.6722 22.4469 31.6716 22.459 31.6714C22.5112 31.6708 22.5492 31.673 22.5793 31.6789C22.7269 31.7077 22.8705 31.7186 22.9997 31.7277L23.0269 31.7296C23.1491 31.7381 23.2576 31.7456 23.3662 31.7633C23.4132 31.771 23.4602 31.7784 23.5069 31.7858L23.5079 31.7859C23.5729 31.7962 23.6375 31.8064 23.7017 31.8172C23.4448 32.0437 23.2258 32.3009 23.0199 32.5426L22.9818 32.5873C22.798 32.4076 22.5997 32.2413 22.4105 32.0827C22.3162 32.0037 22.224 31.9265 22.1372 31.8505C22.065 31.7873 21.9885 31.7322 21.9091 31.6838ZM25.6738 33.9481C25.766 33.7465 25.878 33.552 26.0047 33.3674C26.1723 33.5862 26.3255 33.8233 26.4831 34.0671L26.5491 34.1692C26.475 34.3148 26.4041 34.4757 26.3361 34.6455C26.1276 34.4051 25.9086 34.1683 25.6738 33.9481ZM26.6328 34.9965C26.697 34.8595 26.7621 34.7274 26.8286 34.6041C27.2078 35.2129 27.5544 35.8644 27.8108 36.529C27.7776 36.4851 27.7445 36.4401 27.7114 36.3942C27.6597 36.3225 27.6071 36.2472 27.5534 36.1705C27.4181 35.9771 27.276 35.774 27.1247 35.5932C27.0323 35.4827 26.9388 35.3688 26.8442 35.2534C26.7746 35.1685 26.7042 35.0827 26.6328 34.9965ZM25.4878 34.4634C25.7128 34.6889 25.9263 34.9326 26.1372 35.1839C26.059 35.4097 25.9847 35.639 25.9134 35.859C25.7649 36.3169 25.6294 36.7347 25.5 36.9975C25.4976 36.9334 25.4909 36.8051 25.4823 36.6405C25.451 36.0401 25.3946 34.9563 25.4285 34.7434C25.4434 34.6493 25.4634 34.5559 25.4878 34.4634ZM25.4947 33.2328C25.4179 33.3545 25.3463 33.4804 25.2814 33.6101C25.2039 33.5492 25.1245 33.4906 25.0433 33.4345C25.1896 33.356 25.3406 33.2882 25.4947 33.2328ZM25.0795 34.0889C24.921 33.9573 24.7552 33.8364 24.5797 33.7292C24.4743 33.8074 24.3726 33.8909 24.2755 33.979C24.2215 34.0279 24.1689 34.0856 24.1176 34.1505C24.2652 34.4734 24.4323 35.0908 24.5913 35.6787C24.7426 36.2377 24.8866 36.7701 25 36.9975C24.999 36.9192 24.9897 36.7125 24.9779 36.4519C24.9491 35.8119 24.9057 34.8472 24.9347 34.6648C24.966 34.468 25.0153 34.2756 25.0795 34.0889ZM23.5344 33.2438C23.7271 33.3026 23.9184 33.3803 24.1018 33.4684C24.0464 33.514 23.9923 33.5608 23.9397 33.6085C23.9077 33.6375 23.8762 33.6702 23.8453 33.7061C23.7465 33.5535 23.6437 33.3971 23.5344 33.2438ZM21.5877 33.1203C21.8188 32.8943 22.0797 32.7584 22.3522 32.6887C22.2749 32.6219 22.1957 32.5555 22.1149 32.4878C22.015 32.4042 21.9123 32.318 21.8079 32.2268C21.6763 32.1115 21.5143 32.0279 21.3291 31.964C21.0596 32.1389 20.8326 32.3717 20.6027 32.633C20.6386 32.6676 20.6641 32.7129 20.6743 32.7637C20.9867 32.8585 21.2876 32.9941 21.5569 33.1395L21.5877 33.1203ZM18.9091 31.6838C18.9777 31.6573 19.0464 31.6329 19.1153 31.6108C19.1597 31.6511 19.2186 31.6756 19.2832 31.6756C19.3121 31.6756 19.3601 31.6742 19.4001 31.673C19.425 31.6722 19.4469 31.6716 19.459 31.6714C19.5112 31.6708 19.5492 31.673 19.5793 31.6789C19.7269 31.7077 19.8705 31.7186 19.9997 31.7277L20.0269 31.7296C20.1491 31.7381 20.2576 31.7456 20.3662 31.7633C20.4136 31.771 20.4609 31.7785 20.5079 31.7859C20.5729 31.7962 20.6375 31.8064 20.7017 31.8172C20.4448 32.0437 20.2258 32.3009 20.0199 32.5426L19.9818 32.5873C19.798 32.4075 19.5997 32.2413 19.4105 32.0827C19.3162 32.0037 19.224 31.9265 19.1372 31.8505C19.065 31.7873 18.9885 31.7322 18.9091 31.6838ZM22.6738 33.9481C22.766 33.7465 22.878 33.552 23.0047 33.3674C23.1723 33.5862 23.3255 33.8233 23.4831 34.0671L23.5491 34.1692C23.475 34.3148 23.4041 34.4757 23.3361 34.6455C23.1276 34.4051 22.9086 34.1683 22.6738 33.9481ZM23.6328 34.9965C23.697 34.8595 23.7621 34.7274 23.8286 34.6041C24.2078 35.2129 24.5544 35.8644 24.8108 36.529C24.7776 36.4851 24.7445 36.4401 24.7114 36.3942C24.6597 36.3225 24.6071 36.2472 24.5534 36.1705C24.4181 35.9771 24.276 35.774 24.1247 35.5932C24.0323 35.4827 23.9388 35.3688 23.8442 35.2534C23.7746 35.1685 23.7042 35.0827 23.6328 34.9965ZM22.4878 34.4634C22.7128 34.6889 22.9263 34.9326 23.1372 35.1839C23.059 35.4097 22.9847 35.639 22.9134 35.859C22.7649 36.3169 22.6294 36.7347 22.5 36.9975C22.4976 36.9334 22.4909 36.8051 22.4823 36.6405C22.451 36.0401 22.3946 34.9563 22.4285 34.7434C22.4434 34.6493 22.4634 34.5559 22.4878 34.4634ZM22.4947 33.2328C22.4179 33.3545 22.3463 33.4804 22.2814 33.6101C22.2039 33.5492 22.1245 33.4906 22.0433 33.4345C22.1896 33.356 22.3406 33.2882 22.4947 33.2328ZM22.0795 34.0889C21.921 33.9573 21.7552 33.8364 21.5797 33.7292C21.4743 33.8074 21.3726 33.8909 21.2755 33.979C21.2215 34.0279 21.1689 34.0856 21.1176 34.1505C21.2652 34.4734 21.4323 35.0908 21.5913 35.6787C21.7426 36.2377 21.8866 36.7701 22 36.9975C21.999 36.9192 21.9897 36.7125 21.9779 36.4519C21.9491 35.8119 21.9057 34.8472 21.9347 34.6648C21.966 34.468 22.0153 34.2756 22.0795 34.0889ZM20.5344 33.2438C20.7271 33.3026 20.9184 33.3803 21.1018 33.4684C21.0464 33.514 20.9923 33.5608 20.9397 33.6085C20.9077 33.6375 20.8762 33.6702 20.8453 33.7061C20.7465 33.5535 20.6437 33.3971 20.5344 33.2438ZM18.5877 33.1203C18.8188 32.8943 19.0797 32.7584 19.3522 32.6887C19.2749 32.6219 19.1957 32.5555 19.1149 32.4878C19.015 32.4042 18.9123 32.318 18.8079 32.2268C18.6763 32.1115 18.5143 32.0279 18.3291 31.964C18.0596 32.1389 17.8326 32.3717 17.6027 32.633C17.6386 32.6676 17.6641 32.7129 17.6743 32.7637C17.9867 32.8585 18.2876 32.9941 18.5569 33.1395L18.5877 33.1203ZM15.9091 31.6838C15.9777 31.6573 16.0464 31.6329 16.1153 31.6108C16.1597 31.6511 16.2186 31.6756 16.2832 31.6756C16.3122 31.6756 16.3601 31.6742 16.4001 31.673L16.4361 31.6719L16.459 31.6714C16.5112 31.6708 16.5492 31.673 16.5793 31.6789C16.7269 31.7077 16.8705 31.7186 16.9997 31.7277L17.0269 31.7296C17.1491 31.7381 17.2576 31.7456 17.3662 31.7633C17.4132 31.771 17.4602 31.7784 17.5069 31.7858L17.5079 31.7859C17.5729 31.7962 17.6375 31.8064 17.7017 31.8172C17.4448 32.0437 17.2258 32.3009 17.0199 32.5426L16.9818 32.5873C16.798 32.4075 16.5997 32.2413 16.4105 32.0827C16.3162 32.0037 16.224 31.9265 16.1372 31.8505C16.065 31.7873 15.9885 31.7322 15.9091 31.6838ZM19.6738 33.9481C19.766 33.7465 19.878 33.552 20.0047 33.3674C20.1723 33.5862 20.3255 33.8233 20.4831 34.0671L20.5491 34.1692C20.475 34.3148 20.4041 34.4757 20.3361 34.6455C20.1276 34.4051 19.9086 34.1683 19.6738 33.9481ZM20.6328 34.9965C20.697 34.8595 20.7621 34.7274 20.8286 34.6041C21.2078 35.2129 21.5544 35.8644 21.8108 36.529C21.7776 36.4851 21.7445 36.4401 21.7114 36.3942C21.6597 36.3225 21.6071 36.2472 21.5534 36.1705C21.4181 35.9771 21.276 35.774 21.1247 35.5932C21.0323 35.4827 20.9388 35.3688 20.8442 35.2534C20.7746 35.1685 20.7042 35.0827 20.6328 34.9965ZM19.4878 34.4634C19.7128 34.6889 19.9263 34.9326 20.1372 35.1839C20.059 35.4097 19.9847 35.639 19.9134 35.859C19.7649 36.3169 19.6294 36.7347 19.5 36.9975C19.4976 36.9334 19.4909 36.8051 19.4823 36.6405C19.451 36.0401 19.3946 34.9563 19.4285 34.7434C19.4434 34.6493 19.4634 34.5559 19.4878 34.4634ZM19.4947 33.2328C19.4179 33.3545 19.3463 33.4804 19.2814 33.6101C19.2039 33.5492 19.1245 33.4906 19.0433 33.4345C19.1896 33.356 19.3406 33.2882 19.4947 33.2328ZM19.0795 34.0889C18.921 33.9573 18.7552 33.8364 18.5797 33.7292C18.4743 33.8074 18.3726 33.8909 18.2755 33.979C18.2215 34.0279 18.1689 34.0856 18.1176 34.1505C18.2652 34.4734 18.4323 35.0908 18.5913 35.6787C18.7426 36.2377 18.8866 36.7701 19 36.9975C18.999 36.9192 18.9897 36.7125 18.9779 36.4519C18.9491 35.8119 18.9057 34.8472 18.9347 34.6648C18.966 34.468 19.0153 34.2756 19.0795 34.0889ZM17.5344 33.2438C17.7271 33.3026 17.9184 33.3803 18.1018 33.4684C18.0464 33.514 17.9923 33.5608 17.9397 33.6085C17.9077 33.6375 17.8762 33.6702 17.8453 33.7061C17.7465 33.5535 17.6437 33.3971 17.5344 33.2438ZM15.5877 33.1203C15.8188 32.8943 16.0797 32.7584 16.3522 32.6887C16.2749 32.6219 16.1957 32.5555 16.1149 32.4878L16.1141 32.4871C16.0144 32.4036 15.9121 32.3179 15.8079 32.2268C15.6763 32.1115 15.5143 32.0279 15.3291 31.964C15.0596 32.1389 14.8326 32.3717 14.6027 32.633C14.6386 32.6676 14.6641 32.7129 14.6743 32.7637C14.9867 32.8585 15.2876 32.9941 15.5569 33.1395L15.5877 33.1203ZM12.9091 31.6838C12.9777 31.6573 13.0464 31.6329 13.1153 31.6108C13.1597 31.6511 13.2186 31.6756 13.2832 31.6756C13.3122 31.6756 13.3601 31.6742 13.4001 31.673L13.4428 31.6718L13.459 31.6714C13.5112 31.6708 13.5492 31.673 13.5793 31.6789C13.7269 31.7077 13.8705 31.7186 13.9997 31.7277L14.0269 31.7296C14.1491 31.7381 14.2576 31.7456 14.3662 31.7633L14.4531 31.7772L14.5079 31.7859C14.5729 31.7962 14.6375 31.8064 14.7017 31.8172C14.4448 32.0437 14.2257 32.301 14.0197 32.5428L13.9818 32.5873C13.798 32.4075 13.5997 32.2413 13.4105 32.0827C13.3161 32.0036 13.224 31.9265 13.1372 31.8505C13.065 31.7873 12.9885 31.7322 12.9091 31.6838ZM16.6738 33.9481C16.766 33.7465 16.878 33.552 17.0047 33.3674C17.1723 33.5862 17.3255 33.8233 17.4831 34.0671L17.5491 34.1692C17.475 34.3148 17.4041 34.4757 17.3361 34.6455C17.1276 34.4051 16.9086 34.1683 16.6738 33.9481ZM17.6328 34.9965C17.697 34.8595 17.7621 34.7274 17.8286 34.6041C18.2078 35.2129 18.5544 35.8644 18.8108 36.529C18.7776 36.4851 18.7445 36.4401 18.7114 36.3942C18.6597 36.3225 18.6071 36.2472 18.5534 36.1705C18.4181 35.9771 18.276 35.774 18.1247 35.5932C18.0323 35.4827 17.9388 35.3688 17.8442 35.2534C17.7746 35.1685 17.7042 35.0827 17.6328 34.9965ZM16.4878 34.4634C16.7128 34.6889 16.9263 34.9326 17.1372 35.1839C17.059 35.4097 16.9847 35.639 16.9134 35.859C16.7649 36.3169 16.6294 36.7347 16.5 36.9975C16.4976 36.9334 16.4909 36.8051 16.4823 36.6405C16.451 36.0401 16.3946 34.9563 16.4285 34.7434C16.4434 34.6493 16.4634 34.5559 16.4878 34.4634ZM16.4947 33.2328C16.4179 33.3545 16.3463 33.4804 16.2814 33.6101C16.2039 33.5492 16.1245 33.4906 16.0433 33.4345C16.1896 33.356 16.3406 33.2882 16.4947 33.2328ZM16.0795 34.0889C15.921 33.9573 15.7552 33.8364 15.5797 33.7292C15.4743 33.8074 15.3726 33.8909 15.2755 33.979C15.2215 34.0279 15.1689 34.0856 15.1176 34.1505C15.2652 34.4734 15.4323 35.0908 15.5913 35.6787C15.7426 36.2377 15.8866 36.7701 16 36.9975C15.999 36.9192 15.9897 36.7126 15.978 36.4522C15.9491 35.8122 15.9057 34.8472 15.9347 34.6648C15.966 34.468 16.0153 34.2756 16.0795 34.0889ZM14.5344 33.2438C14.7271 33.3026 14.9184 33.3803 15.1018 33.4684C15.0464 33.514 14.9923 33.5608 14.9397 33.6085C14.9077 33.6375 14.8762 33.6702 14.8453 33.7061C14.7465 33.5535 14.6437 33.3971 14.5344 33.2438ZM12.5877 33.1203C12.8188 32.8943 13.0797 32.7584 13.3522 32.6887C13.2749 32.6219 13.1957 32.5555 13.1149 32.4878L13.1141 32.4871C13.0144 32.4036 12.9121 32.3179 12.8079 32.2268C12.6763 32.1115 12.5143 32.0279 12.3291 31.964C12.0596 32.1389 11.8326 32.3717 11.6027 32.633C11.6386 32.6676 11.6641 32.7129 11.6743 32.7637C11.9867 32.8585 12.2876 32.9941 12.5569 33.1395L12.5877 33.1203ZM11.5079 31.7859C11.5729 31.7962 11.6375 31.8064 11.7017 31.8172C11.4448 32.0437 11.2257 32.301 11.0197 32.5428L10.9818 32.5873C10.798 32.4075 10.5997 32.2413 10.4105 32.0827C10.3161 32.0036 10.224 31.9265 10.1372 31.8505C10.065 31.7873 9.98849 31.7322 9.90911 31.6838C9.97774 31.6573 10.0464 31.6329 10.1153 31.6108C10.1597 31.6511 10.2186 31.6756 10.2832 31.6756C10.3122 31.6756 10.3601 31.6742 10.4001 31.673L10.4499 31.6716L10.459 31.6714C10.5112 31.6708 10.5492 31.673 10.5793 31.6789C10.7269 31.7077 10.8705 31.7186 10.9997 31.7277L11.0269 31.7296C11.1491 31.7381 11.2576 31.7456 11.3662 31.7633L11.4163 31.7714L11.5079 31.7859ZM13.6738 33.9481C13.766 33.7465 13.878 33.552 14.0047 33.3674C14.1723 33.5862 14.3255 33.8233 14.4831 34.0671L14.5491 34.1692C14.475 34.3148 14.4041 34.4757 14.3361 34.6455C14.1276 34.4051 13.9086 34.1683 13.6738 33.9481ZM14.6328 34.9965C14.6971 34.8595 14.7621 34.7274 14.8286 34.6041C15.2078 35.2129 15.5544 35.8644 15.8108 36.529C15.7776 36.4851 15.7445 36.4401 15.7114 36.3942C15.6597 36.3225 15.6071 36.2472 15.5534 36.1705C15.4181 35.9771 15.276 35.774 15.1247 35.5932C15.0324 35.4828 14.9391 35.3691 14.8446 35.2538C14.775 35.1689 14.7042 35.0827 14.6328 34.9965ZM13.4878 34.4634C13.7128 34.6889 13.9263 34.9326 14.1372 35.1839C14.059 35.4098 13.9847 35.6391 13.9133 35.8591C13.7649 36.317 13.6294 36.7347 13.5 36.9975C13.4976 36.9334 13.4909 36.8051 13.4823 36.6405C13.451 36.0401 13.3946 34.9563 13.4285 34.7434C13.4434 34.6493 13.4634 34.5559 13.4878 34.4634ZM13.4947 33.2328C13.4179 33.3545 13.3463 33.4804 13.2814 33.6101C13.2039 33.5492 13.1245 33.4906 13.0433 33.4345C13.1896 33.356 13.3406 33.2882 13.4947 33.2328ZM13.0795 34.0889C12.921 33.9573 12.7552 33.8364 12.5797 33.7292C12.4743 33.8074 12.3726 33.8909 12.2755 33.979C12.2215 34.0279 12.1689 34.0856 12.1176 34.1505C12.2652 34.4734 12.4323 35.0908 12.5913 35.6787C12.7426 36.2377 12.8866 36.7701 13 36.9975C12.999 36.9192 12.9897 36.7126 12.978 36.4522C12.9491 35.8122 12.9057 34.8472 12.9347 34.6648C12.966 34.468 13.0153 34.2756 13.0795 34.0889ZM11.5344 33.2438C11.7271 33.3026 11.9184 33.3803 12.1018 33.4684C12.0464 33.514 11.9923 33.5608 11.9397 33.6085C11.9077 33.6375 11.8762 33.6702 11.8453 33.7061C11.7465 33.5535 11.6437 33.3971 11.5344 33.2438ZM9.58774 33.1203C9.81875 32.8943 10.0797 32.7584 10.3522 32.6887C10.2749 32.6219 10.1957 32.5555 10.1149 32.4878L10.1141 32.4871C10.0144 32.4036 9.91212 32.3179 9.80795 32.2268C9.67625 32.1115 9.51431 32.0279 9.32912 31.964C9.02934 32.1586 8.7822 32.4246 8.52516 32.7219C8.89067 32.8158 9.24498 32.971 9.55692 33.1395L9.58774 33.1203ZM10.6738 33.9481C10.766 33.7465 10.878 33.552 11.0047 33.3674C11.1723 33.5862 11.3255 33.8233 11.4831 34.0671L11.5491 34.1692C11.475 34.3148 11.4041 34.4757 11.3361 34.6455C11.1276 34.4051 10.9086 34.1683 10.6738 33.9481ZM11.6328 34.9965C11.6971 34.8595 11.7621 34.7274 11.8286 34.6041C12.2078 35.2129 12.5544 35.8644 12.8108 36.529C12.7776 36.4851 12.7445 36.4401 12.7114 36.3942C12.6597 36.3225 12.6071 36.2472 12.5534 36.1705C12.4181 35.9771 12.276 35.774 12.1247 35.5932C12.0324 35.4828 11.9391 35.3691 11.8446 35.2538C11.775 35.1689 11.7042 35.0827 11.6328 34.9965ZM10.4878 34.4634C10.7128 34.6889 10.9263 34.9326 11.1372 35.1839C11.059 35.4098 10.9847 35.6391 10.9133 35.8591C10.7649 36.317 10.6294 36.7347 10.5 36.9975C10.4976 36.9334 10.4909 36.8051 10.4823 36.6405C10.451 36.0401 10.3946 34.9563 10.4285 34.7434C10.4434 34.6493 10.4634 34.5559 10.4878 34.4634ZM10.4947 33.2328C10.4179 33.3545 10.3463 33.4804 10.2814 33.6101C10.2039 33.5492 10.1245 33.4906 10.0433 33.4345C10.1896 33.356 10.3406 33.2882 10.4947 33.2328ZM10.0795 34.0889C9.92096 33.9573 9.7552 33.8364 9.57971 33.7292C9.47426 33.8074 9.37261 33.8909 9.27546 33.979C9.22146 34.0279 9.16891 34.0856 9.11757 34.1505C9.26524 34.4734 9.43227 35.0908 9.59133 35.6787C9.74258 36.2377 9.88664 36.7701 10 36.9975C9.99899 36.9192 9.98968 36.7126 9.97795 36.4522C9.94912 35.8122 9.90565 34.8472 9.93466 34.6648C9.96598 34.468 10.0153 34.2756 10.0795 34.0889ZM8.53445 33.2438C8.72708 33.3026 8.91838 33.3803 9.10177 33.4684C9.04641 33.514 8.99234 33.5608 8.93965 33.6085C8.90766 33.6375 8.87621 33.6702 8.84528 33.7061C8.74648 33.5535 8.64373 33.3971 8.53445 33.2438ZM7.01016 33.4118C7.1695 33.2786 7.34887 33.1971 7.54317 33.1577C7.44776 33.3025 7.35978 33.4536 7.28143 33.6101C7.19335 33.541 7.103 33.4747 7.01016 33.4118ZM7.67382 33.9481C7.76603 33.7465 7.87797 33.552 8.00468 33.3674C8.17231 33.5862 8.32554 33.8233 8.48306 34.0671L8.54914 34.1692C8.47502 34.3148 8.40415 34.4757 8.33613 34.6455C8.12761 34.4051 7.90864 34.1683 7.67382 33.9481ZM8.63282 34.9965C8.69705 34.8595 8.76211 34.7274 8.82865 34.6041C9.20775 35.2129 9.55437 35.8644 9.81081 36.529C9.77757 36.4851 9.74451 36.4401 9.71142 36.3942C9.6597 36.3225 9.60706 36.2472 9.55336 36.1705C9.41806 35.9771 9.27598 35.774 9.1247 35.5932C9.03237 35.4828 8.93908 35.3691 8.84458 35.2538C8.77495 35.1689 8.70421 35.0827 8.63282 34.9965ZM7.48784 34.4634C7.71284 34.6889 7.92631 34.9326 8.13716 35.1839C8.05901 35.4097 7.98467 35.639 7.91333 35.8591C7.76488 36.317 7.62943 36.7347 7.5 36.9975C7.49759 36.9334 7.49091 36.8051 7.48233 36.6406C7.45105 36.0401 7.39458 34.9563 7.42845 34.7434C7.44343 34.6493 7.46336 34.5559 7.48784 34.4634ZM6.57248 33.7247C6.75065 33.8331 6.91878 33.9555 7.07951 34.0889C7.0153 34.2756 6.96598 34.468 6.93466 34.6648C6.90565 34.8472 6.94911 35.8119 6.97794 36.4519C6.98967 36.7125 6.99899 36.9192 7 36.9975C6.88663 36.7701 6.74258 36.2377 6.59133 35.6787C6.40536 34.9913 6.20851 34.2637 6.04442 34.0135C6.00025 33.9461 5.95561 33.8769 5.91023 33.8066C5.79158 33.6227 5.66788 33.431 5.53445 33.2438C5.9003 33.3554 6.26142 33.5356 6.57248 33.7247ZM4.01016 33.4118C4.23987 33.2197 4.51122 33.1352 4.8089 33.1295C5.05793 33.4092 5.26643 33.7318 5.48306 34.0671C5.53025 34.1401 5.57783 34.2137 5.6263 34.2876C6.08328 34.9845 6.50935 35.7478 6.8108 36.529C6.77757 36.4851 6.74451 36.4401 6.71142 36.3942C6.6597 36.3225 6.60706 36.2472 6.55336 36.1705C6.41806 35.9771 6.27598 35.774 6.1247 35.5932C6.03229 35.4827 5.93891 35.3689 5.84432 35.2535C5.31335 34.6061 4.7383 33.9049 4.01016 33.4118Z" fill="black"/>
<path d="M30.8236 28.2081C30.9986 28.2706 31.1731 28.3756 31.2637 28.5016C31.3404 28.6081 31.436 28.6939 31.5305 28.7787C31.596 28.8375 31.661 28.8959 31.7188 28.9603C31.8283 29.0824 31.9324 29.2464 31.8173 29.4231C31.6721 29.646 31.2969 29.7157 31.0569 29.7157C30.9104 29.7157 30.7786 29.7441 30.6463 29.7725C30.5539 29.7923 30.4614 29.8122 30.3634 29.8225C30.3334 29.8257 30.3038 29.834 30.2741 29.8423C30.2181 29.858 30.1614 29.8739 30.0994 29.8561C30.0718 29.8482 30.0526 29.7691 30.034 29.6927C30.0198 29.6342 30.0059 29.5773 29.9891 29.5556C29.9772 29.5403 29.9641 29.5169 29.9505 29.4875C29.8859 29.6747 29.7462 29.7869 29.5399 29.7869C29.3689 29.7869 29.1931 29.7359 29.1931 29.518L29.1928 29.475C29.1924 29.4313 29.1919 29.3854 29.1954 29.3415C29.1643 29.3201 29.1295 29.313 29.0873 29.3327C29.0885 29.3618 29.0912 29.3946 29.0941 29.4292C29.109 29.6066 29.1277 29.8293 28.9528 29.8225C28.876 29.8196 28.8128 29.7713 28.7474 29.7213C28.7115 29.6939 28.6749 29.6659 28.635 29.6447C28.5813 29.6746 28.5228 29.7014 28.4563 29.7236C28.3179 29.77 28.2214 29.756 28.125 29.714C28.1013 29.7152 28.0785 29.7157 28.0569 29.7157C27.9104 29.7157 27.7786 29.7441 27.6463 29.7725C27.5539 29.7923 27.4614 29.8122 27.3634 29.8225C27.3334 29.8257 27.3038 29.834 27.2741 29.8423C27.2181 29.858 27.1614 29.8739 27.0994 29.8561C27.0718 29.8482 27.0526 29.7691 27.034 29.6927C27.0198 29.6342 27.0059 29.5773 26.9891 29.5556C26.9772 29.5403 26.9641 29.5169 26.9505 29.4875C26.8859 29.6747 26.7462 29.7869 26.5399 29.7869C26.3689 29.7869 26.1931 29.7359 26.1931 29.518L26.1928 29.475C26.1924 29.4313 26.1919 29.3854 26.1954 29.3415C26.1643 29.3201 26.1295 29.313 26.0873 29.3327C26.0885 29.3618 26.0912 29.3946 26.0941 29.4292C26.109 29.6066 26.1277 29.8293 25.9528 29.8225C25.876 29.8196 25.8128 29.7713 25.7474 29.7213C25.7115 29.6939 25.6749 29.6659 25.635 29.6447C25.5813 29.6746 25.5228 29.7014 25.4563 29.7236C25.3179 29.77 25.2214 29.756 25.125 29.714C25.1013 29.7152 25.0785 29.7157 25.0569 29.7157C24.9104 29.7157 24.7786 29.7441 24.6463 29.7725C24.5539 29.7923 24.4614 29.8122 24.3634 29.8225C24.3334 29.8257 24.3038 29.834 24.2741 29.8423C24.2181 29.858 24.1614 29.8739 24.0994 29.8561C24.0718 29.8482 24.0526 29.7691 24.034 29.6927C24.0198 29.6342 24.0059 29.5773 23.9891 29.5556C23.9772 29.5403 23.9641 29.5169 23.9505 29.4875C23.8859 29.6747 23.7462 29.7869 23.5399 29.7869C23.3689 29.7869 23.1931 29.7359 23.1931 29.518L23.1928 29.4749C23.1924 29.4312 23.1919 29.3854 23.1954 29.3415C23.1643 29.3201 23.1295 29.313 23.0873 29.3327C23.0885 29.3618 23.0912 29.3946 23.0941 29.4292C23.109 29.6066 23.1277 29.8293 22.9528 29.8225C22.876 29.8196 22.8128 29.7713 22.7474 29.7213C22.7115 29.6939 22.6749 29.6659 22.635 29.6447C22.5813 29.6746 22.5228 29.7014 22.4563 29.7236C22.3179 29.77 22.2214 29.756 22.125 29.714C22.1013 29.7152 22.0785 29.7157 22.0569 29.7157C21.9104 29.7157 21.7786 29.7441 21.6463 29.7725C21.5539 29.7923 21.4614 29.8122 21.3634 29.8225C21.3334 29.8257 21.3038 29.834 21.2741 29.8423C21.2181 29.858 21.1614 29.8739 21.0994 29.8561C21.0718 29.8482 21.0526 29.7691 21.034 29.6927C21.0198 29.6342 21.0059 29.5773 20.9891 29.5556C20.9772 29.5403 20.9641 29.5169 20.9505 29.4875C20.8859 29.6747 20.7462 29.7869 20.5399 29.7869C20.3689 29.7869 20.1931 29.7359 20.1931 29.518L20.1928 29.4749C20.1924 29.4312 20.1919 29.3854 20.1954 29.3415C20.1643 29.3201 20.1295 29.313 20.0873 29.3327C20.0885 29.3618 20.0912 29.3946 20.0941 29.4292C20.109 29.6066 20.1277 29.8293 19.9528 29.8225C19.876 29.8196 19.8128 29.7713 19.7474 29.7213C19.7115 29.6939 19.6749 29.6659 19.635 29.6447C19.5813 29.6746 19.5228 29.7014 19.4563 29.7236C19.3179 29.77 19.2214 29.756 19.125 29.714C19.1013 29.7152 19.0785 29.7157 19.0569 29.7157C18.9104 29.7157 18.7786 29.7441 18.6463 29.7725C18.5539 29.7923 18.4614 29.8122 18.3634 29.8225C18.3334 29.8257 18.3038 29.834 18.2741 29.8423C18.2181 29.858 18.1614 29.8739 18.0994 29.8561C18.0718 29.8482 18.0526 29.7691 18.034 29.6927C18.0198 29.6342 18.0059 29.5773 17.9891 29.5556C17.9772 29.5403 17.9641 29.5169 17.9505 29.4875C17.8859 29.6747 17.7462 29.7869 17.5399 29.7869C17.3689 29.7869 17.1931 29.7359 17.1931 29.518L17.1928 29.4748C17.1924 29.4311 17.1919 29.3853 17.1954 29.3415C17.1643 29.3201 17.1295 29.313 17.0873 29.3327C17.0885 29.3618 17.0912 29.3946 17.0941 29.4292C17.109 29.6066 17.1277 29.8293 16.9528 29.8225C16.876 29.8196 16.8128 29.7713 16.7474 29.7213C16.7115 29.6939 16.6749 29.6659 16.635 29.6447C16.5813 29.6746 16.5228 29.7014 16.4563 29.7236C16.3179 29.77 16.2214 29.756 16.125 29.714C16.1013 29.7152 16.0785 29.7157 16.0569 29.7157C15.9104 29.7157 15.7786 29.7441 15.6462 29.7725C15.5539 29.7923 15.4614 29.8122 15.3634 29.8225C15.3334 29.8257 15.3038 29.834 15.2741 29.8423C15.2181 29.858 15.1614 29.8739 15.0994 29.8561C15.0718 29.8482 15.0526 29.7691 15.034 29.6927C15.0198 29.6342 15.0059 29.5773 14.9891 29.5556C14.9772 29.5403 14.9641 29.5169 14.9505 29.4875C14.8859 29.6747 14.7462 29.7869 14.5399 29.7869C14.3689 29.7869 14.1931 29.7359 14.1931 29.518L14.1928 29.475C14.1924 29.4313 14.1919 29.3854 14.1954 29.3415C14.1643 29.3201 14.1295 29.313 14.0873 29.3327C14.0885 29.3618 14.0912 29.3946 14.0941 29.4292C14.109 29.6066 14.1277 29.8293 13.9528 29.8225C13.876 29.8196 13.8128 29.7713 13.7474 29.7213C13.7115 29.6939 13.6749 29.6659 13.635 29.6447C13.5813 29.6746 13.5228 29.7014 13.4563 29.7236C13.3179 29.77 13.2214 29.756 13.125 29.714C13.1013 29.7152 13.0785 29.7157 13.0569 29.7157C12.9104 29.7157 12.7786 29.7441 12.6462 29.7725C12.5539 29.7923 12.4614 29.8122 12.3634 29.8225C12.3334 29.8257 12.3038 29.834 12.2741 29.8423C12.2181 29.858 12.1614 29.8739 12.0994 29.8561C12.0718 29.8482 12.0526 29.7691 12.034 29.6927C12.0198 29.6342 12.0059 29.5773 11.9891 29.5556C11.9772 29.5403 11.9641 29.5169 11.9505 29.4875C11.8859 29.6747 11.7462 29.7869 11.5399 29.7869C11.3689 29.7869 11.1931 29.7359 11.1931 29.518L11.1928 29.475C11.1924 29.4313 11.1919 29.3854 11.1954 29.3415C11.1643 29.3201 11.1295 29.313 11.0873 29.3327C11.0885 29.3618 11.0912 29.3946 11.0941 29.4292C11.109 29.6066 11.1277 29.8293 10.9528 29.8225C10.876 29.8196 10.8128 29.7713 10.7474 29.7213C10.7115 29.6939 10.6749 29.6659 10.635 29.6447C10.5813 29.6746 10.5228 29.7014 10.4563 29.7236C10.3179 29.77 10.2214 29.756 10.125 29.714C10.1013 29.7152 10.0785 29.7157 10.0569 29.7157C9.91042 29.7157 9.77856 29.7441 9.64625 29.7725C9.55393 29.7923 9.46135 29.8122 9.36339 29.8225C9.33335 29.8257 9.30382 29.834 9.2741 29.8423C9.21807 29.858 9.16137 29.8739 9.09939 29.8561C9.07183 29.8482 9.05258 29.7691 9.03401 29.6927C9.01977 29.6342 9.00593 29.5773 8.98906 29.5556C8.97723 29.5403 8.96411 29.5169 8.95049 29.4875C8.88591 29.6747 8.74618 29.7869 8.53988 29.7869C8.3689 29.7869 8.19314 29.7359 8.19314 29.518L8.19284 29.475C8.19238 29.4313 8.1919 29.3854 8.19536 29.3415C8.16432 29.3201 8.12951 29.313 8.08732 29.3327C8.08847 29.3618 8.09123 29.3946 8.09412 29.4292C8.109 29.6066 8.12767 29.8293 7.95279 29.8225C7.87597 29.8196 7.81276 29.7713 7.74743 29.7213C7.71147 29.6939 7.67487 29.6659 7.63501 29.6447C7.58125 29.6746 7.52282 29.7014 7.45632 29.7236C7.31791 29.77 7.22137 29.756 7.12495 29.714C7.10133 29.7152 7.07855 29.7157 7.05686 29.7157C6.91042 29.7157 6.77857 29.7441 6.64625 29.7725C6.55393 29.7923 6.46136 29.8122 6.36339 29.8225C6.33336 29.8257 6.30382 29.834 6.2741 29.8423C6.21808 29.858 6.16137 29.8739 6.09939 29.8561C6.07183 29.8482 6.05258 29.7691 6.03401 29.6927C6.01977 29.6342 6.00593 29.5773 5.98906 29.5556C5.97723 29.5403 5.96411 29.5169 5.95049 29.4875C5.88591 29.6747 5.74618 29.7869 5.53988 29.7869C5.3689 29.7869 5.19314 29.7359 5.19314 29.518L5.19284 29.475C5.19238 29.4313 5.1919 29.3854 5.19536 29.3415C5.16432 29.3201 5.12951 29.313 5.08732 29.3327C5.08847 29.3618 5.09123 29.3946 5.09412 29.4292C5.109 29.6066 5.12767 29.8293 4.95279 29.8225C4.87597 29.8196 4.81276 29.7713 4.74743 29.7213C4.71147 29.6939 4.67487 29.6659 4.63501 29.6447C4.58125 29.6746 4.52282 29.7014 4.45632 29.7236C4.24878 29.7931 4.13537 29.7271 3.97538 29.6339L3.93227 29.609C3.5825 29.4083 3.36471 29.0467 3.38458 28.6479C3.39261 28.4866 3.71239 28.3191 3.84755 28.292C4.00565 28.2602 4.16238 28.2164 4.31912 28.1726C4.50762 28.12 4.69663 28.0672 4.88974 28.0349C5.14113 27.9928 5.40398 27.9983 5.66281 28.0036C5.74919 28.0054 5.83515 28.0072 5.92011 28.0072C5.97478 28.0072 6.02419 28.0162 6.07319 28.0252C6.12144 28.034 6.16933 28.0428 6.22154 28.0428C6.29844 28.0428 6.35612 28.0697 6.41398 28.0967C6.46378 28.12 6.51371 28.1433 6.57616 28.1496C6.65223 28.1572 6.73797 28.1776 6.82362 28.2081M30.8236 28.2081C30.738 28.1776 30.6522 28.1572 30.5762 28.1496C30.5137 28.1433 30.4638 28.12 30.414 28.0967C30.3561 28.0697 30.2984 28.0428 30.2215 28.0428C30.1693 28.0428 30.1214 28.034 30.0732 28.0252C30.0242 28.0162 29.9748 28.0072 29.9201 28.0072C29.8351 28.0072 29.7492 28.0054 29.6628 28.0036C29.404 27.9983 29.1411 27.9928 28.8897 28.0349C28.6965 28.0672 28.5074 28.12 28.3189 28.1727C28.2001 28.2059 28.0815 28.239 27.9623 28.2669C27.9171 28.2446 27.8704 28.2248 27.8236 28.2081M30.8236 28.2081C30.9575 28.1695 31.1046 28.1669 31.2421 28.2129C31.362 28.253 31.482 28.3931 31.5843 28.5125C31.6227 28.5574 31.6587 28.5994 31.6912 28.6321L31.7063 28.6473C31.7604 28.7023 31.8711 28.8148 31.9257 28.8239C31.9807 28.8331 32.0966 28.8572 32.101 28.9327C32.1045 28.9916 32.1033 29.0514 32.1022 29.1109C32.1016 29.1406 32.101 29.1702 32.101 29.1996C32.101 29.262 32.065 29.3039 32.0277 29.3472C32.0055 29.3731 31.9828 29.3994 31.9671 29.431C31.9331 29.4991 31.881 29.5426 31.8277 29.5872C31.8029 29.6078 31.7779 29.6288 31.7543 29.6525C31.7326 29.6742 31.7184 29.7004 31.7042 29.7264C31.6843 29.7631 31.6645 29.7994 31.6243 29.8225C31.6005 29.8362 31.581 29.8628 31.5615 29.8893C31.5372 29.9226 31.5129 29.9557 31.4804 29.9629C31.4204 29.9763 31.3434 29.9717 31.2755 29.9677C31.2569 29.9666 31.239 29.9655 31.2224 29.9649C31.1654 29.9627 31.1346 29.9262 31.1046 29.8908C31.0765 29.8575 31.0491 29.8252 31.0017 29.8225C30.9508 29.8197 30.8992 29.8206 30.8478 29.8216C30.8222 29.8221 30.7966 29.8225 30.7712 29.8225C30.6538 29.8225 30.5827 29.881 30.5062 29.9439C30.4583 29.9833 30.4084 30.0244 30.3437 30.0539C30.2456 30.0986 30.111 30.0993 29.9838 30.1C29.9171 30.1003 29.8524 30.1006 29.796 30.1073C29.7763 30.1096 30.0047 31.2821 30.0462 31.4104C30.0589 31.4497 30.071 31.489 30.0826 31.5286M27.8236 28.2081C27.738 28.1776 27.6522 28.1572 27.5762 28.1496C27.5137 28.1433 27.4638 28.12 27.414 28.0967C27.3561 28.0697 27.2984 28.0428 27.2215 28.0428C27.1693 28.0428 27.1214 28.034 27.0732 28.0252C27.0242 28.0162 26.9748 28.0072 26.9201 28.0072C26.8351 28.0072 26.7492 28.0054 26.6628 28.0036C26.404 27.9983 26.1411 27.9928 25.8897 28.0349C25.6966 28.0672 25.5075 28.12 25.3189 28.1727C25.2001 28.2059 25.0815 28.239 24.9623 28.2669C24.9171 28.2446 24.8704 28.2248 24.8236 28.2081M27.8236 28.2081C27.9471 28.1725 28.0819 28.1675 28.2099 28.203M24.8236 28.2081C24.738 28.1776 24.6522 28.1572 24.5762 28.1496C24.5137 28.1433 24.4638 28.12 24.414 28.0967C24.3561 28.0697 24.2984 28.0428 24.2215 28.0428C24.1693 28.0428 24.1214 28.034 24.0732 28.0252C24.0242 28.0162 23.9748 28.0072 23.9201 28.0072C23.8351 28.0072 23.7492 28.0054 23.6628 28.0036C23.404 27.9983 23.1411 27.9928 22.8897 28.0349C22.6966 28.0672 22.5075 28.12 22.3189 28.1727C22.2002 28.2059 22.0815 28.239 21.9623 28.2669C21.9171 28.2446 21.8704 28.2248 21.8236 28.2081M24.8236 28.2081C24.9471 28.1725 25.0819 28.1675 25.2099 28.203M21.8236 28.2081C21.738 28.1776 21.6522 28.1572 21.5762 28.1496C21.5137 28.1433 21.4638 28.12 21.414 28.0967C21.3561 28.0697 21.2984 28.0428 21.2215 28.0428C21.1693 28.0428 21.1214 28.034 21.0732 28.0252C21.0242 28.0162 20.9748 28.0072 20.9201 28.0072C20.8351 28.0072 20.7491 28.0054 20.6626 28.0036C20.4038 27.9983 20.1411 27.9928 19.8897 28.0349C19.6966 28.0672 19.5075 28.12 19.319 28.1727C19.2002 28.2059 19.0815 28.239 18.9623 28.2669C18.9171 28.2446 18.8704 28.2248 18.8236 28.2081M21.8236 28.2081C21.9471 28.1725 22.0819 28.1675 22.2099 28.203M18.8236 28.2081C18.738 28.1776 18.6522 28.1572 18.5762 28.1496C18.5137 28.1433 18.4638 28.12 18.414 28.0967C18.3561 28.0697 18.2984 28.0428 18.2215 28.0428C18.1693 28.0428 18.1214 28.034 18.0732 28.0252C18.0242 28.0162 17.9748 28.0072 17.9201 28.0072C17.8351 28.0072 17.7492 28.0054 17.6628 28.0036C17.404 27.9983 17.1411 27.9928 16.8897 28.0349C16.6965 28.0672 16.5074 28.12 16.3188 28.1727C16.2001 28.2059 16.0815 28.239 15.9623 28.2669C15.9171 28.2446 15.8704 28.2248 15.8236 28.2081M18.8236 28.2081C18.9471 28.1725 19.0819 28.1675 19.2099 28.203M15.8236 28.2081C15.738 28.1776 15.6522 28.1572 15.5762 28.1496C15.5137 28.1433 15.4638 28.12 15.414 28.0967C15.3561 28.0697 15.2984 28.0428 15.2215 28.0428C15.1693 28.0428 15.1214 28.034 15.0732 28.0252C15.0242 28.0162 14.9748 28.0072 14.9201 28.0072C14.8351 28.0072 14.7492 28.0054 14.6628 28.0036C14.404 27.9983 14.1411 27.9928 13.8897 28.0349C13.6966 28.0672 13.5076 28.12 13.319 28.1727C13.2003 28.2058 13.0815 28.239 12.9623 28.2669C12.9171 28.2446 12.8704 28.2248 12.8236 28.2081M15.8236 28.2081C15.9471 28.1725 16.0818 28.1675 16.2099 28.203M12.8236 28.2081C12.738 28.1776 12.6522 28.1572 12.5762 28.1496C12.5137 28.1433 12.4638 28.12 12.414 28.0967C12.3561 28.0697 12.2984 28.0428 12.2215 28.0428C12.1693 28.0428 12.1214 28.034 12.0732 28.0252C12.0242 28.0162 11.9748 28.0072 11.9201 28.0072C11.8351 28.0072 11.7492 28.0054 11.6628 28.0036C11.404 27.9983 11.1411 27.9928 10.8897 28.0349C10.6966 28.0672 10.5076 28.12 10.3191 28.1726C10.2003 28.2058 10.0815 28.239 9.96226 28.2669C9.91714 28.2446 9.87039 28.2248 9.82362 28.2081M12.8236 28.2081C12.9471 28.1725 13.0818 28.1675 13.2099 28.203M9.82362 28.2081C9.73797 28.1776 9.65223 28.1572 9.57616 28.1496C9.51371 28.1433 9.46378 28.12 9.41398 28.0967C9.35612 28.0697 9.29844 28.0428 9.22154 28.0428C9.16933 28.0428 9.12144 28.034 9.07319 28.0252C9.02419 28.0162 8.97478 28.0072 8.92011 28.0072C8.83515 28.0072 8.74919 28.0054 8.66281 28.0036C8.40398 27.9983 8.14113 27.9928 7.88974 28.0349C7.69662 28.0672 7.50759 28.12 7.31908 28.1726C7.20033 28.2058 7.0815 28.239 6.96226 28.2669C6.91714 28.2446 6.87039 28.2248 6.82362 28.2081M9.82362 28.2081C9.94713 28.1725 10.0818 28.1675 10.2099 28.203M6.82362 28.2081C6.94713 28.1725 7.08185 28.1675 7.20985 28.203M6.96624 36.5499C6.90192 36.1384 6.81018 35.7322 6.71837 35.3258C6.61238 34.8565 6.50628 34.3869 6.44219 33.908C6.42976 33.8151 6.41841 33.7218 6.40768 33.6282M6.34363 33.03C6.30371 32.6569 6.25866 32.2836 6.18055 31.9181M6.0462 31.4104C6.00473 31.2821 5.77633 30.1096 5.79599 30.1073C5.85238 30.1006 5.91707 30.1003 5.98377 30.1C6.11101 30.0993 6.24557 30.0986 6.34368 30.0539C6.40836 30.0244 6.45832 29.9833 6.50619 29.9439C6.58267 29.881 6.65384 29.8225 6.7712 29.8225C6.79663 29.8225 6.82221 29.8221 6.84784 29.8216C6.89922 29.8206 6.9508 29.8197 7.0017 29.8225C7.04908 29.8252 7.07646 29.8575 7.10457 29.8908C7.13459 29.9262 7.16544 29.9627 7.22235 29.9649C7.23903 29.9655 7.25692 29.9666 7.27548 29.9677C7.34343 29.9717 7.42044 29.9763 7.48044 29.9629C7.51295 29.9557 7.53719 29.9226 7.56154 29.8893C7.58096 29.8628 7.60045 29.8362 7.62426 29.8225C7.66453 29.7994 7.68428 29.7631 7.70423 29.7264C7.70906 29.7175 7.71392 29.7086 7.71907 29.6998M9.96624 36.5499C9.90192 36.1383 9.81018 35.7322 9.71836 35.3257C9.61237 34.8565 9.50628 34.3869 9.44219 33.908C9.43929 33.8863 9.43644 33.8646 9.43365 33.8428M9.34363 33.03C9.30846 32.7014 9.26932 32.3726 9.20712 32.0491M9.0462 31.4104C9.00473 31.2821 8.77633 30.1096 8.79599 30.1073C8.85238 30.1006 8.91707 30.1003 8.98376 30.1C9.11101 30.0993 9.24557 30.0986 9.34368 30.0539C9.40836 30.0244 9.45832 29.9833 9.5062 29.9439C9.58268 29.881 9.65384 29.8225 9.7712 29.8225C9.79663 29.8225 9.82221 29.8221 9.84784 29.8216C9.89922 29.8206 9.9508 29.8197 10.0017 29.8225C10.0491 29.8252 10.0765 29.8575 10.1046 29.8908C10.1346 29.9262 10.1654 29.9627 10.2224 29.9649C10.239 29.9655 10.2569 29.9666 10.2755 29.9677C10.3434 29.9717 10.4204 29.9763 10.4804 29.9629C10.5129 29.9557 10.5372 29.9226 10.5615 29.8893C10.581 29.8628 10.6005 29.8362 10.6243 29.8225C10.6645 29.7994 10.6843 29.7631 10.7042 29.7264C10.7091 29.7175 10.7139 29.7086 10.7191 29.6998M12.9662 36.5499C12.9019 36.1383 12.8102 35.7322 12.7184 35.3257C12.6124 34.8565 12.5063 34.3869 12.4422 33.908C12.4393 33.8863 12.4364 33.8646 12.4337 33.8428M12.3436 33.03C12.3085 32.7014 12.2693 32.3726 12.2071 32.0491M12.0462 31.4104C12.0047 31.2821 11.7763 30.1096 11.796 30.1073C11.8524 30.1006 11.9171 30.1003 11.9838 30.1C12.111 30.0993 12.2456 30.0986 12.3437 30.0539C12.4084 30.0244 12.4583 29.9833 12.5062 29.9439C12.5827 29.881 12.6538 29.8225 12.7712 29.8225C12.7966 29.8225 12.8222 29.8221 12.8478 29.8216C12.8992 29.8206 12.9508 29.8197 13.0017 29.8225C13.0491 29.8252 13.0765 29.8575 13.1046 29.8908C13.1346 29.9262 13.1654 29.9627 13.2224 29.9649C13.239 29.9655 13.2569 29.9666 13.2755 29.9677C13.3434 29.9717 13.4204 29.9763 13.4804 29.9629C13.5129 29.9557 13.5372 29.9226 13.5615 29.8893C13.581 29.8628 13.6005 29.8362 13.6243 29.8225C13.6645 29.7994 13.6843 29.7631 13.7042 29.7264C13.7091 29.7175 13.7139 29.7086 13.7191 29.6998M15.9662 36.5499C15.9019 36.1383 15.8102 35.7322 15.7184 35.3257C15.6124 34.8565 15.5063 34.3869 15.4422 33.908C15.4393 33.8863 15.4364 33.8646 15.4337 33.8428M15.3436 33.03C15.3085 32.7014 15.2693 32.3726 15.2071 32.0491M15.0462 31.4104C15.0047 31.2821 14.7763 30.1096 14.796 30.1073C14.8524 30.1006 14.9171 30.1003 14.9838 30.1C15.111 30.0993 15.2456 30.0986 15.3437 30.0539C15.4084 30.0244 15.4583 29.9833 15.5062 29.9439C15.5827 29.881 15.6538 29.8225 15.7712 29.8225C15.7966 29.8225 15.8222 29.8221 15.8478 29.8216C15.8992 29.8206 15.9508 29.8197 16.0017 29.8225C16.0491 29.8252 16.0765 29.8575 16.1046 29.8908C16.1346 29.9262 16.1654 29.9627 16.2224 29.9649C16.239 29.9655 16.2569 29.9666 16.2755 29.9677C16.3434 29.9717 16.4204 29.9763 16.4804 29.9629C16.5129 29.9557 16.5372 29.9226 16.5615 29.8893C16.581 29.8628 16.6005 29.8362 16.6243 29.8225C16.6645 29.7994 16.6843 29.7631 16.7042 29.7264C16.7091 29.7175 16.7139 29.7086 16.7191 29.6998M18.9662 36.5499C18.9019 36.1383 18.8102 35.7322 18.7184 35.3257C18.6124 34.8565 18.5063 34.3869 18.4422 33.908C18.4393 33.8863 18.4364 33.8646 18.4337 33.8428M18.3436 33.03C18.3085 32.7014 18.2693 32.3726 18.2071 32.0491M18.0462 31.4104C18.0047 31.2821 17.7763 30.1096 17.796 30.1073C17.8524 30.1006 17.9171 30.1003 17.9838 30.1C18.111 30.0993 18.2456 30.0986 18.3437 30.0539C18.4084 30.0244 18.4583 29.9833 18.5062 29.9439C18.5827 29.881 18.6538 29.8225 18.7712 29.8225C18.7966 29.8225 18.8222 29.8221 18.8478 29.8216C18.8992 29.8206 18.9508 29.8197 19.0017 29.8225C19.0491 29.8252 19.0765 29.8575 19.1046 29.8908C19.1346 29.9262 19.1654 29.9627 19.2224 29.9649C19.239 29.9655 19.2569 29.9666 19.2755 29.9677C19.3434 29.9717 19.4204 29.9763 19.4804 29.9629C19.5129 29.9557 19.5372 29.9226 19.5615 29.8893C19.581 29.8628 19.6005 29.8362 19.6243 29.8225C19.6645 29.7994 19.6843 29.7631 19.7042 29.7264C19.7091 29.7175 19.7139 29.7086 19.7191 29.6998M21.9662 36.5499C21.9019 36.1383 21.8102 35.7322 21.7184 35.3257C21.6124 34.8565 21.5063 34.3869 21.4422 33.908C21.4393 33.8863 21.4364 33.8646 21.4337 33.8428M21.3436 33.03C21.3085 32.7014 21.2693 32.3726 21.2071 32.0491M21.0462 31.4104C21.0047 31.2821 20.7763 30.1096 20.796 30.1073C20.8524 30.1006 20.9171 30.1003 20.9838 30.1C21.111 30.0993 21.2456 30.0986 21.3437 30.0539C21.4084 30.0244 21.4583 29.9833 21.5062 29.9439C21.5827 29.881 21.6538 29.8225 21.7712 29.8225C21.7966 29.8225 21.8222 29.8221 21.8478 29.8216C21.8992 29.8206 21.9508 29.8197 22.0017 29.8225C22.0491 29.8252 22.0765 29.8575 22.1046 29.8908C22.1346 29.9262 22.1654 29.9627 22.2224 29.9649C22.239 29.9655 22.2569 29.9666 22.2755 29.9677C22.3434 29.9717 22.4204 29.9763 22.4804 29.9629C22.5129 29.9557 22.5372 29.9226 22.5615 29.8893C22.581 29.8628 22.6005 29.8362 22.6243 29.8225C22.6645 29.7994 22.6843 29.7631 22.7042 29.7264C22.7091 29.7175 22.7139 29.7086 22.7191 29.6998M24.9662 36.5499C24.9019 36.1383 24.8102 35.7322 24.7184 35.3257C24.6124 34.8565 24.5063 34.3869 24.4422 33.908C24.4393 33.8863 24.4364 33.8646 24.4337 33.8428M24.3436 33.03C24.3085 32.7014 24.2693 32.3726 24.2071 32.0491M24.0462 31.4104C24.0047 31.2821 23.7763 30.1096 23.796 30.1073C23.8524 30.1006 23.9171 30.1003 23.9838 30.1C24.111 30.0993 24.2456 30.0986 24.3437 30.0539C24.4084 30.0244 24.4583 29.9833 24.5062 29.9439C24.5827 29.881 24.6538 29.8225 24.7712 29.8225C24.7966 29.8225 24.8222 29.8221 24.8478 29.8216C24.8992 29.8206 24.9508 29.8197 25.0017 29.8225C25.0491 29.8252 25.0765 29.8575 25.1046 29.8908C25.1346 29.9262 25.1654 29.9627 25.2224 29.9649C25.239 29.9655 25.2569 29.9666 25.2755 29.9677C25.3434 29.9717 25.4204 29.9763 25.4804 29.9629C25.5129 29.9557 25.5372 29.9226 25.5615 29.8893C25.581 29.8628 25.6005 29.8362 25.6243 29.8225C25.6645 29.7994 25.6843 29.7631 25.7042 29.7264C25.7091 29.7175 25.7139 29.7086 25.7191 29.6998M27.9662 36.5499C27.9019 36.1383 27.8102 35.7322 27.7184 35.3257C27.6124 34.8565 27.5063 34.3869 27.4422 33.908C27.4393 33.8863 27.4364 33.8646 27.4337 33.8428M27.3436 33.03C27.3085 32.7014 27.2693 32.3726 27.2071 32.0491M27.0462 31.4104C27.0047 31.2821 26.7763 30.1096 26.796 30.1073C26.8524 30.1006 26.9171 30.1003 26.9838 30.1C27.111 30.0993 27.2456 30.0986 27.3437 30.0539C27.4084 30.0244 27.4583 29.9833 27.5062 29.9439C27.5827 29.881 27.6538 29.8225 27.7712 29.8225C27.7966 29.8225 27.8222 29.8221 27.8478 29.8216C27.8992 29.8206 27.9508 29.8197 28.0017 29.8225C28.0491 29.8252 28.0765 29.8575 28.1046 29.8908C28.1346 29.9262 28.1654 29.9627 28.2224 29.9649C28.239 29.9655 28.2569 29.9666 28.2755 29.9677C28.3434 29.9717 28.4204 29.9763 28.4804 29.9629C28.5129 29.9557 28.5372 29.9226 28.5615 29.8893C28.581 29.8628 28.6005 29.8362 28.6243 29.8225C28.6645 29.7994 28.6843 29.7631 28.7042 29.7264C28.7091 29.7175 28.7139 29.7086 28.7191 29.6998M30.9662 36.5499C30.9019 36.1383 30.8102 35.7322 30.7184 35.3257C30.6124 34.8565 30.5063 34.3869 30.4422 33.908C30.4393 33.8863 30.4364 33.8646 30.4337 33.8428M30.3684 33.2651C30.3671 33.2528 30.3658 33.2405 30.3645 33.2282C30.3233 32.8339 30.2818 32.4377 30.2071 32.0491M18 1C18 1 10.5 9.67969 10.5 15C10.5 19.4004 13.875 23 18 23C22.125 23 25.5 19.4004 25.5 15C25.5 9.67969 18 1 18 1ZM10.8222 31.2105C10.8019 31.0747 10.6757 30.9806 10.5396 31C10.1148 31.0607 9.72922 31.2023 9.35721 31.3772C9.32595 31.3919 9.2952 31.4072 9.26495 31.423C9.03298 31.3624 8.79169 31.3244 8.57694 31.2906C8.53227 31.2835 8.48871 31.2767 8.44658 31.2698C8.31412 31.2482 8.18327 31.2392 8.06546 31.2311L8.03457 31.2289C7.90478 31.2198 7.7892 31.2104 7.67529 31.1882C7.59498 31.1724 7.51692 31.1707 7.45277 31.1715C7.41178 31.172 7.38583 31.173 7.36281 31.1738C7.33824 31.1748 7.31677 31.1756 7.2832 31.1756C7.14513 31.1756 7.0332 31.2875 7.0332 31.4256C7.0332 31.5637 7.14513 31.6756 7.2832 31.6756C7.31215 31.6756 7.36012 31.6742 7.40007 31.673C7.42503 31.6722 7.44687 31.6716 7.45898 31.6714C7.51124 31.6708 7.54917 31.673 7.57928 31.6789C7.72688 31.7077 7.87047 31.7186 7.99967 31.7277L8.02692 31.7296C8.14905 31.7381 8.25762 31.7456 8.36624 31.7633C8.41331 31.771 8.46112 31.7785 8.50792 31.7859C8.57285 31.7962 8.63748 31.8064 8.70172 31.8172C8.44476 32.0437 8.22566 32.301 8.01973 32.5428L7.98177 32.5873C7.79808 32.4076 7.59957 32.2412 7.41045 32.0827C7.3161 32.0036 7.22404 31.9265 7.1372 31.8505C6.888 31.6324 6.5874 31.5101 6.29508 31.431C6.0539 31.3657 5.801 31.3259 5.57694 31.2906C5.53227 31.2835 5.48871 31.2767 5.44658 31.2698C5.31412 31.2482 5.18327 31.2392 5.06546 31.2311L5.03457 31.2289C4.90478 31.2198 4.7892 31.2104 4.67529 31.1882C4.59498 31.1724 4.51692 31.1707 4.45277 31.1715C4.41186 31.172 4.38579 31.173 4.36281 31.1738C4.33824 31.1748 4.31677 31.1756 4.2832 31.1756C4.14513 31.1756 4.0332 31.2875 4.0332 31.4256C4.0332 31.5637 4.14513 31.6756 4.2832 31.6756C4.31215 31.6756 4.36012 31.6742 4.40007 31.673C4.42503 31.6722 4.44687 31.6716 4.45898 31.6714C4.51124 31.6708 4.54917 31.673 4.57928 31.6789C4.72688 31.7077 4.87047 31.7186 4.99967 31.7277L5.02692 31.7296C5.14905 31.7381 5.25762 31.7456 5.36624 31.7633C5.41326 31.771 5.46117 31.7785 5.50792 31.7859C5.73164 31.8213 5.95183 31.8561 6.16444 31.9137C6.41905 31.9826 6.63853 32.0785 6.80795 32.2268C6.9123 32.3181 7.01522 32.4043 7.1151 32.488C7.19585 32.5557 7.27497 32.622 7.35221 32.6887C7.07399 32.7599 6.80779 32.9001 6.57322 33.1346L6.57007 33.1378L6.56464 33.1437C6.17374 32.9318 5.71561 32.7402 5.25199 32.6642C5.17911 32.6522 5.10565 32.6431 5.03194 32.6372C4.83451 32.4381 4.61695 32.2558 4.41045 32.0827C4.3161 32.0036 4.22404 31.9265 4.1372 31.8505C3.888 31.6324 3.5874 31.5101 3.29508 31.431C3.0539 31.3657 2.80096 31.3259 2.5769 31.2906L2.57495 31.2903C2.53097 31.2833 2.48808 31.2766 2.44658 31.2698C2.31412 31.2482 2.18327 31.2392 2.06546 31.2311L2.03457 31.2289C1.90478 31.2198 1.7892 31.2104 1.67529 31.1882C1.59498 31.1724 1.51692 31.1707 1.45277 31.1715C1.41186 31.172 1.38579 31.173 1.36281 31.1738C1.33824 31.1748 1.31677 31.1756 1.2832 31.1756C1.14513 31.1756 1.0332 31.2875 1.0332 31.4256C1.0332 31.5637 1.14513 31.6756 1.2832 31.6756C1.31215 31.6756 1.36012 31.6742 1.40007 31.673C1.42503 31.6722 1.44687 31.6716 1.45898 31.6714C1.51124 31.6708 1.54917 31.673 1.57928 31.6789C1.72688 31.7077 1.87047 31.7186 1.99967 31.7277L2.02692 31.7296C2.14905 31.7381 2.25762 31.7456 2.36624 31.7633C2.41328 31.771 2.46115 31.7785 2.50792 31.7859C2.73164 31.8213 2.95183 31.8561 3.16444 31.9137C3.41905 31.9826 3.63853 32.0785 3.80795 32.2268C3.9123 32.3181 4.015 32.4041 4.11488 32.4878L4.1157 32.4885C4.19624 32.556 4.27516 32.6221 4.35222 32.6887C4.074 32.7599 3.80779 32.9001 3.57322 33.1346L3.56883 33.1391L3.56464 33.1437C3.17374 32.9318 2.71561 32.7402 2.25199 32.6642C1.6724 32.569 1.05585 32.652 0.573223 33.1346C0.475592 33.2323 0.475592 33.3906 0.573223 33.4882C0.670854 33.5858 0.829146 33.5858 0.926777 33.4882C1.25918 33.1558 1.69173 33.0789 2.17103 33.1576C2.65561 33.2371 3.1584 33.4729 3.57248 33.7247C4.30713 34.1715 4.87118 34.8577 5.44865 35.5602C5.54551 35.678 5.64275 35.7963 5.74123 35.914C5.87793 36.0774 6.00034 36.2524 6.13019 36.4381C6.1867 36.5189 6.24465 36.6018 6.30588 36.6867C7.28539 38.0449 7.83661 36.7932 8.38887 35.5392L8.40371 35.5055L8.44865 35.5602C8.54551 35.678 8.64275 35.7963 8.74123 35.914C8.87792 36.0774 9.00035 36.2524 9.13019 36.4381C9.1867 36.5189 9.24466 36.6018 9.30588 36.6867C10.2854 38.0449 10.8366 36.7932 11.3889 35.5392L11.4037 35.5055L11.4486 35.5602C11.5455 35.678 11.6427 35.7963 11.7412 35.914C11.8779 36.0774 12.0003 36.2524 12.1302 36.4381C12.1867 36.5189 12.2447 36.6018 12.3059 36.6867C13.2854 38.0449 13.8366 36.7932 14.3889 35.5392L14.4037 35.5055L14.4486 35.5602C14.5455 35.678 14.6427 35.7963 14.7412 35.914C14.8779 36.0774 15.0003 36.2524 15.1302 36.4381C15.1867 36.5189 15.2447 36.6018 15.3059 36.6867C16.2854 38.0449 16.8366 36.7932 17.3889 35.5392L17.4037 35.5055L17.4486 35.5602C17.5455 35.678 17.6427 35.7963 17.7412 35.914C17.8779 36.0774 18.0004 36.2524 18.1302 36.4381C18.1867 36.5189 18.2447 36.6018 18.3059 36.6867C19.2854 38.0449 19.8366 36.7932 20.3889 35.5392L20.4037 35.5055L20.4486 35.5602C20.5455 35.678 20.6427 35.7963 20.7412 35.914C20.8779 36.0774 21.0004 36.2524 21.1302 36.4381C21.1867 36.5189 21.2447 36.6018 21.3059 36.6867C22.2854 38.0449 22.8366 36.7932 23.3889 35.5392L23.4037 35.5055L23.4486 35.5602C23.5455 35.678 23.6427 35.7963 23.7412 35.914C23.8779 36.0774 24.0004 36.2524 24.1302 36.4381C24.1867 36.5189 24.2447 36.6018 24.3059 36.6867C25.2854 38.0449 25.8366 36.7932 26.3889 35.5392L26.4037 35.5055L26.4486 35.5602C26.5455 35.678 26.6427 35.7963 26.7412 35.914C26.8779 36.0774 27.0004 36.2524 27.1302 36.4381C27.1867 36.5189 27.2447 36.6018 27.3059 36.6867C28.2854 38.0449 28.8366 36.7932 29.3889 35.5392L29.4037 35.5055L29.4486 35.5602C29.5455 35.678 29.6427 35.7963 29.7412 35.914C29.8779 36.0774 30.0004 36.2524 30.1302 36.4381C30.1867 36.5189 30.2447 36.6018 30.3059 36.6867C31.2854 38.0449 31.8366 36.7932 32.3889 35.5392C32.666 34.9099 32.9435 34.2799 33.2755 33.979C33.8757 33.4349 34.6476 33.0629 35.4291 33.0629C35.5672 33.0629 35.6791 32.951 35.6791 32.8129C35.6791 32.6748 35.5672 32.5629 35.4291 32.5629C34.4921 32.5629 33.6056 33.0048 32.9397 33.6085C32.5195 33.9894 32.1932 34.9958 31.9133 35.8592C31.7648 36.3171 31.6294 36.7347 31.5 36.9975C31.4976 36.9334 31.4909 36.8051 31.4823 36.6405C31.451 36.0401 31.3946 34.9563 31.4285 34.7434C31.5251 34.1362 31.8284 33.5582 32.2273 33.0711C32.2944 33.0657 32.3617 33.0629 32.4291 33.0629C32.5672 33.0629 32.6791 32.951 32.6791 32.8129C32.6791 32.7423 32.6498 32.6784 32.6027 32.633C32.8978 32.2976 33.1882 32.0091 33.5699 31.8297C33.9163 31.6669 34.2521 31.5461 34.6103 31.495C34.7469 31.4754 34.8419 31.3488 34.8224 31.2121C34.8029 31.0754 34.6762 30.9805 34.5396 31C34.1148 31.0607 33.7292 31.2023 33.3572 31.3772C32.7822 31.6475 32.3807 32.1189 32.0197 32.5428L31.9733 32.5973C31.2075 32.7121 30.4965 33.1038 29.9397 33.6085C29.9077 33.6375 29.8762 33.6702 29.8453 33.7061C29.7073 33.4929 29.5616 33.2725 29.4011 33.0631L29.4291 33.0629C29.5672 33.0629 29.6791 32.951 29.6791 32.8129C29.6791 32.7423 29.6498 32.6784 29.6027 32.633C29.8978 32.2976 30.1882 32.0091 30.5699 31.8297C30.9163 31.6669 31.2521 31.5461 31.6103 31.495C31.747 31.4754 31.8419 31.3488 31.8224 31.2121C31.8029 31.0754 31.6762 30.9805 31.5396 31C31.1148 31.0607 30.7292 31.2023 30.3572 31.3772C29.7822 31.6475 29.3803 32.1194 29.0193 32.5433L28.9818 32.5873C28.798 32.4076 28.5996 32.2413 28.4105 32.0827C28.3161 32.0036 28.224 31.9265 28.1372 31.8505C28.065 31.7873 27.9885 31.7322 27.9091 31.6838C28.1394 31.595 28.3698 31.5293 28.6103 31.495C28.747 31.4754 28.8419 31.3488 28.8224 31.2121C28.8029 31.0754 28.6762 30.9805 28.5396 31C28.1148 31.0607 27.7292 31.2023 27.3572 31.3772C27.326 31.3919 27.2952 31.4072 27.2649 31.423C27.033 31.3624 26.7915 31.3244 26.5768 31.2905C26.5322 31.2835 26.4887 31.2767 26.4466 31.2698C26.3141 31.2482 26.1833 31.2392 26.0655 31.2311L26.0346 31.2289C25.9599 31.2237 25.8899 31.2184 25.8222 31.2105C25.8019 31.0747 25.6757 30.9806 25.5396 31C25.1148 31.0607 24.7292 31.2023 24.3572 31.3772C24.326 31.3919 24.2952 31.4072 24.2649 31.423C24.033 31.3624 23.7925 31.3245 23.5777 31.2907C23.5328 31.2836 23.489 31.2767 23.4466 31.2698C23.3141 31.2482 23.1833 31.2392 23.0655 31.2311L23.0346 31.2289C22.9599 31.2237 22.8899 31.2184 22.8222 31.2105C22.8019 31.0747 22.6757 30.9806 22.5396 31C22.1148 31.0607 21.7292 31.2023 21.3572 31.3772C21.326 31.3919 21.2952 31.4072 21.2649 31.423C21.033 31.3624 20.7925 31.3245 20.5777 31.2907L20.5123 31.2804L20.4466 31.2698C20.3141 31.2482 20.1833 31.2392 20.0655 31.2311L20.0346 31.2289C19.9599 31.2237 19.8899 31.2184 19.8222 31.2105C19.8019 31.0747 19.6757 30.9806 19.5396 31C19.1148 31.0607 18.7292 31.2023 18.3572 31.3772C18.326 31.3919 18.2952 31.4072 18.2649 31.423C18.033 31.3624 17.7915 31.3244 17.5768 31.2905C17.5322 31.2835 17.4887 31.2767 17.4466 31.2698C17.3141 31.2482 17.1833 31.2392 17.0655 31.2311L17.0346 31.2289C16.9599 31.2237 16.8899 31.2184 16.8222 31.2105C16.8019 31.0747 16.6757 30.9806 16.5396 31C16.1148 31.0607 15.7292 31.2023 15.3572 31.3772C15.326 31.3919 15.2952 31.4072 15.2649 31.423C15.033 31.3624 14.7925 31.3245 14.5777 31.2907L14.4818 31.2755L14.4466 31.2698C14.3141 31.2482 14.1833 31.2392 14.0655 31.2311L14.0346 31.2289C13.9599 31.2237 13.8899 31.2184 13.8222 31.2105C13.8019 31.0747 13.6757 30.9806 13.5396 31C13.1148 31.0607 12.7292 31.2023 12.3572 31.3772C12.326 31.3919 12.2952 31.4072 12.2649 31.423C12.033 31.3624 11.7917 31.3244 11.5769 31.2906L11.5741 31.2901C11.5304 31.2832 11.4878 31.2765 11.4466 31.2698C11.3141 31.2482 11.1833 31.2392 11.0655 31.2311L11.0346 31.2289C10.9599 31.2237 10.8899 31.2184 10.8222 31.2105ZM25.1153 31.6108C25.0464 31.6329 24.9777 31.6573 24.9091 31.6838C24.9885 31.7322 25.065 31.7873 25.1372 31.8505C25.224 31.9265 25.3162 32.0037 25.4105 32.0827C25.5997 32.2413 25.798 32.4076 25.9818 32.5873L26.0198 32.5427C26.2257 32.301 26.4448 32.0437 26.7017 31.8172C26.6375 31.8064 26.5729 31.7962 26.5079 31.7859L26.5069 31.7858C26.4602 31.7784 26.4132 31.771 26.3662 31.7633C26.2576 31.7456 26.1491 31.7381 26.0269 31.7296L25.9997 31.7277C25.8705 31.7186 25.7269 31.7077 25.5793 31.6789C25.5492 31.673 25.5112 31.6708 25.459 31.6714C25.4469 31.6716 25.425 31.6722 25.4001 31.673C25.3601 31.6742 25.3121 31.6756 25.2832 31.6756C25.2186 31.6756 25.1597 31.6511 25.1153 31.6108ZM27.3291 31.964C27.0596 32.1389 26.8326 32.3717 26.6027 32.633C26.6386 32.6676 26.6641 32.7129 26.6743 32.7637C26.9867 32.8585 27.2876 32.9941 27.5569 33.1395C27.8219 32.9728 28.1068 32.8342 28.405 32.7347C28.3111 32.6522 28.2138 32.5707 28.1145 32.4875C28.0147 32.4038 27.9123 32.318 27.8079 32.2268C27.6763 32.1115 27.5143 32.0279 27.3291 31.964ZM29.0047 33.3674C28.878 33.552 28.766 33.7465 28.6738 33.9481C28.9086 34.1683 29.1276 34.4051 29.3361 34.6455C29.4041 34.4757 29.475 34.3148 29.5491 34.1692L29.4831 34.0671C29.3255 33.8233 29.1723 33.5862 29.0047 33.3674ZM29.8286 34.6041C29.7621 34.7274 29.697 34.8595 29.6328 34.9965C29.7042 35.0827 29.7746 35.1685 29.8442 35.2534C29.9388 35.3688 30.0323 35.4827 30.1247 35.5932C30.276 35.774 30.4181 35.9771 30.5534 36.1705C30.6071 36.2472 30.6597 36.3225 30.7114 36.3942C30.7445 36.4401 30.7776 36.4851 30.8108 36.529C30.5544 35.8644 30.2078 35.2129 29.8286 34.6041ZM29.1372 35.1839C28.9263 34.9326 28.7128 34.6889 28.4878 34.4634C28.4634 34.5559 28.4434 34.6493 28.4285 34.7434C28.3946 34.9563 28.451 36.0401 28.4823 36.6405C28.4909 36.8051 28.4976 36.9334 28.5 36.9975C28.6294 36.7347 28.7649 36.3169 28.9134 35.859C28.9847 35.639 29.059 35.4097 29.1372 35.1839ZM28.2814 33.6101C28.3463 33.4804 28.4179 33.3545 28.4947 33.2328C28.3406 33.2882 28.1896 33.356 28.0433 33.4345C28.1245 33.4906 28.2039 33.5492 28.2814 33.6101ZM27.5797 33.7292C27.7552 33.8364 27.921 33.9573 28.0795 34.0889C28.0153 34.2756 27.966 34.468 27.9347 34.6648C27.9057 34.8472 27.9491 35.8119 27.9779 36.4519C27.9897 36.7125 27.999 36.9192 28 36.9975C27.8866 36.7701 27.7426 36.2377 27.5913 35.6787C27.4323 35.0908 27.2652 34.4734 27.1176 34.1505C27.1689 34.0856 27.2215 34.0279 27.2755 33.979C27.3726 33.8909 27.4743 33.8074 27.5797 33.7292ZM27.1018 33.4684C26.9184 33.3803 26.7271 33.3026 26.5344 33.2438C26.6437 33.3971 26.7465 33.5535 26.8453 33.7061C26.8762 33.6702 26.9077 33.6375 26.9397 33.6085C26.9923 33.5608 27.0464 33.514 27.1018 33.4684ZM25.3522 32.6887C25.0797 32.7584 24.8187 32.8943 24.5877 33.1203L24.5569 33.1395C24.2876 32.9941 23.9867 32.8585 23.6743 32.7637C23.6641 32.7129 23.6386 32.6676 23.6027 32.633C23.8326 32.3717 24.0596 32.1389 24.3291 31.964C24.5143 32.0279 24.6763 32.1115 24.8079 32.2268C24.9123 32.318 25.015 32.4042 25.1149 32.4878C25.1957 32.5555 25.2749 32.6219 25.3522 32.6887ZM30.1176 34.1505C30.2652 34.4734 30.4323 35.0908 30.5913 35.6787C30.7426 36.2377 30.8866 36.7701 31 36.9975C30.999 36.9192 30.9897 36.7125 30.9779 36.4519C30.9491 35.8119 30.9057 34.8472 30.9347 34.6648C31.0166 34.1498 31.2219 33.6647 31.4947 33.2328C31.0503 33.3926 30.6325 33.6553 30.2755 33.979C30.2215 34.0279 30.1689 34.0856 30.1176 34.1505ZM22.1153 31.6108C22.0464 31.6329 21.9777 31.6573 21.9091 31.6838C21.9885 31.7322 22.065 31.7873 22.1372 31.8505C22.224 31.9265 22.3162 32.0037 22.4105 32.0827C22.5997 32.2413 22.798 32.4076 22.9818 32.5873L23.0199 32.5426C23.2258 32.3009 23.4448 32.0437 23.7017 31.8172C23.6375 31.8064 23.5729 31.7962 23.5079 31.7859L23.5069 31.7858C23.4602 31.7784 23.4132 31.771 23.3662 31.7633C23.2576 31.7456 23.1491 31.7381 23.0269 31.7296L22.9997 31.7277C22.8705 31.7186 22.7269 31.7077 22.5793 31.6789C22.5492 31.673 22.5112 31.6708 22.459 31.6714C22.4469 31.6716 22.425 31.6722 22.4001 31.673L22.3351 31.6748C22.3154 31.6753 22.2971 31.6756 22.2832 31.6756C22.2186 31.6756 22.1597 31.6511 22.1153 31.6108ZM26.0047 33.3674C25.878 33.552 25.766 33.7465 25.6738 33.9481C25.9086 34.1683 26.1276 34.4051 26.3361 34.6455C26.4041 34.4757 26.475 34.3148 26.5491 34.1692L26.4831 34.0671C26.3255 33.8233 26.1723 33.5862 26.0047 33.3674ZM26.8286 34.6041C26.7621 34.7274 26.697 34.8595 26.6328 34.9965C26.7042 35.0827 26.7746 35.1685 26.8442 35.2534C26.9388 35.3688 27.0323 35.4827 27.1247 35.5932C27.276 35.774 27.4181 35.9771 27.5534 36.1705C27.6071 36.2472 27.6597 36.3225 27.7114 36.3942C27.7445 36.4401 27.7776 36.4851 27.8108 36.529C27.5544 35.8644 27.2078 35.2129 26.8286 34.6041ZM26.1372 35.1839C25.9263 34.9326 25.7128 34.6889 25.4878 34.4634C25.4634 34.5559 25.4434 34.6493 25.4285 34.7434C25.3946 34.9563 25.451 36.0401 25.4823 36.6405C25.4909 36.8051 25.4976 36.9334 25.5 36.9975C25.6294 36.7347 25.7649 36.3169 25.9134 35.859C25.9847 35.639 26.059 35.4097 26.1372 35.1839ZM25.2814 33.6101C25.3463 33.4804 25.4179 33.3545 25.4947 33.2328C25.3406 33.2882 25.1896 33.356 25.0433 33.4345C25.1245 33.4906 25.2039 33.5492 25.2814 33.6101ZM24.5797 33.7292C24.7552 33.8364 24.921 33.9573 25.0795 34.0889C25.0153 34.2756 24.966 34.468 24.9347 34.6648C24.9057 34.8472 24.9491 35.8119 24.9779 36.4519C24.9897 36.7125 24.999 36.9192 25 36.9975C24.8866 36.7701 24.7426 36.2377 24.5913 35.6787C24.4323 35.0908 24.2652 34.4734 24.1176 34.1505C24.1689 34.0856 24.2215 34.0279 24.2755 33.979C24.3726 33.8909 24.4743 33.8074 24.5797 33.7292ZM24.1018 33.4684C23.9184 33.3803 23.7271 33.3026 23.5344 33.2438C23.6437 33.3971 23.7465 33.5535 23.8453 33.7061C23.8762 33.6702 23.9077 33.6375 23.9397 33.6085C23.9923 33.5608 24.0464 33.514 24.1018 33.4684ZM22.3522 32.6887C22.0797 32.7584 21.8188 32.8943 21.5877 33.1203L21.5569 33.1395C21.2876 32.9941 20.9867 32.8585 20.6743 32.7637C20.6641 32.7129 20.6386 32.6676 20.6027 32.633C20.8326 32.3717 21.0596 32.1389 21.3291 31.964C21.5143 32.0279 21.6763 32.1115 21.8079 32.2268C21.9123 32.318 22.015 32.4042 22.1149 32.4878C22.1957 32.5555 22.2749 32.6219 22.3522 32.6887ZM19.1153 31.6108C19.0464 31.6329 18.9777 31.6573 18.9091 31.6838C18.9885 31.7322 19.065 31.7873 19.1372 31.8505C19.224 31.9265 19.3162 32.0037 19.4105 32.0827C19.5997 32.2413 19.798 32.4075 19.9818 32.5873L20.0199 32.5426C20.2258 32.3009 20.4448 32.0437 20.7017 31.8172C20.6375 31.8064 20.5729 31.7962 20.5079 31.7859C20.4609 31.7785 20.4136 31.771 20.3662 31.7633C20.2576 31.7456 20.1491 31.7381 20.0269 31.7296L19.9997 31.7277C19.8705 31.7186 19.7269 31.7077 19.5793 31.6789C19.5492 31.673 19.5112 31.6708 19.459 31.6714C19.4469 31.6716 19.425 31.6722 19.4001 31.673C19.3601 31.6742 19.3121 31.6756 19.2832 31.6756C19.2186 31.6756 19.1597 31.6511 19.1153 31.6108ZM23.0047 33.3674C22.878 33.552 22.766 33.7465 22.6738 33.9481C22.9086 34.1683 23.1276 34.4051 23.3361 34.6455C23.4041 34.4757 23.475 34.3148 23.5491 34.1692L23.4831 34.0671C23.3255 33.8233 23.1723 33.5862 23.0047 33.3674ZM23.8286 34.6041C23.7621 34.7274 23.697 34.8595 23.6328 34.9965C23.7042 35.0827 23.7746 35.1685 23.8442 35.2534C23.9388 35.3688 24.0323 35.4827 24.1247 35.5932C24.276 35.774 24.4181 35.9771 24.5534 36.1705C24.6071 36.2472 24.6597 36.3225 24.7114 36.3942C24.7445 36.4401 24.7776 36.4851 24.8108 36.529C24.5544 35.8644 24.2078 35.2129 23.8286 34.6041ZM23.1372 35.1839C22.9263 34.9326 22.7128 34.6889 22.4878 34.4634C22.4634 34.5559 22.4434 34.6493 22.4285 34.7434C22.3946 34.9563 22.451 36.0401 22.4823 36.6405C22.4909 36.8051 22.4976 36.9334 22.5 36.9975C22.6294 36.7347 22.7649 36.3169 22.9134 35.859C22.9847 35.639 23.059 35.4097 23.1372 35.1839ZM22.2814 33.6101C22.3463 33.4804 22.4179 33.3545 22.4947 33.2328C22.3406 33.2882 22.1896 33.356 22.0433 33.4345C22.1245 33.4906 22.2039 33.5492 22.2814 33.6101ZM21.5797 33.7292C21.7552 33.8364 21.921 33.9573 22.0795 34.0889C22.0153 34.2756 21.966 34.468 21.9347 34.6648C21.9057 34.8472 21.9491 35.8119 21.9779 36.4519C21.9897 36.7125 21.999 36.9192 22 36.9975C21.8866 36.7701 21.7426 36.2377 21.5913 35.6787C21.4323 35.0908 21.2652 34.4734 21.1176 34.1505C21.1689 34.0856 21.2215 34.0279 21.2755 33.979C21.3726 33.8909 21.4743 33.8074 21.5797 33.7292ZM21.1018 33.4684C20.9184 33.3803 20.7271 33.3026 20.5344 33.2438C20.6437 33.3971 20.7465 33.5535 20.8453 33.7061C20.8762 33.6702 20.9077 33.6375 20.9397 33.6085C20.9923 33.5608 21.0464 33.514 21.1018 33.4684ZM19.3522 32.6887C19.0797 32.7584 18.8188 32.8943 18.5877 33.1203L18.5569 33.1395C18.2876 32.9941 17.9867 32.8585 17.6743 32.7637C17.6641 32.7129 17.6386 32.6676 17.6027 32.633C17.8326 32.3717 18.0596 32.1389 18.3291 31.964C18.5143 32.0279 18.6763 32.1115 18.8079 32.2268C18.9123 32.318 19.015 32.4042 19.1149 32.4878C19.1957 32.5555 19.2749 32.6219 19.3522 32.6887ZM16.1153 31.6108C16.0464 31.6329 15.9777 31.6573 15.9091 31.6838C15.9885 31.7322 16.065 31.7873 16.1372 31.8505C16.224 31.9265 16.3162 32.0037 16.4105 32.0827C16.5997 32.2413 16.798 32.4075 16.9818 32.5873L17.0199 32.5426C17.2258 32.3009 17.4448 32.0437 17.7017 31.8172C17.6375 31.8064 17.5729 31.7962 17.5079 31.7859L17.5069 31.7858C17.4602 31.7784 17.4132 31.771 17.3662 31.7633C17.2576 31.7456 17.1491 31.7381 17.0269 31.7296L16.9997 31.7277C16.8705 31.7186 16.7269 31.7077 16.5793 31.6789C16.5492 31.673 16.5112 31.6708 16.459 31.6714L16.4361 31.6719L16.4001 31.673C16.3601 31.6742 16.3122 31.6756 16.2832 31.6756C16.2186 31.6756 16.1597 31.6511 16.1153 31.6108ZM20.0047 33.3674C19.878 33.552 19.766 33.7465 19.6738 33.9481C19.9086 34.1683 20.1276 34.4051 20.3361 34.6455C20.4041 34.4757 20.475 34.3148 20.5491 34.1692L20.4831 34.0671C20.3255 33.8233 20.1723 33.5862 20.0047 33.3674ZM20.8286 34.6041C20.7621 34.7274 20.697 34.8595 20.6328 34.9965C20.7042 35.0827 20.7746 35.1685 20.8442 35.2534C20.9388 35.3688 21.0323 35.4827 21.1247 35.5932C21.276 35.774 21.4181 35.9771 21.5534 36.1705C21.6071 36.2472 21.6597 36.3225 21.7114 36.3942C21.7445 36.4401 21.7776 36.4851 21.8108 36.529C21.5544 35.8644 21.2078 35.2129 20.8286 34.6041ZM20.1372 35.1839C19.9263 34.9326 19.7128 34.6889 19.4878 34.4634C19.4634 34.5559 19.4434 34.6493 19.4285 34.7434C19.3946 34.9563 19.451 36.0401 19.4823 36.6405C19.4909 36.8051 19.4976 36.9334 19.5 36.9975C19.6294 36.7347 19.7649 36.3169 19.9134 35.859C19.9847 35.639 20.059 35.4097 20.1372 35.1839ZM19.2814 33.6101C19.3463 33.4804 19.4179 33.3545 19.4947 33.2328C19.3406 33.2882 19.1896 33.356 19.0433 33.4345C19.1245 33.4906 19.2039 33.5492 19.2814 33.6101ZM18.5797 33.7292C18.7552 33.8364 18.921 33.9573 19.0795 34.0889C19.0153 34.2756 18.966 34.468 18.9347 34.6648C18.9057 34.8472 18.9491 35.8119 18.9779 36.4519C18.9897 36.7125 18.999 36.9192 19 36.9975C18.8866 36.7701 18.7426 36.2377 18.5913 35.6787C18.4323 35.0908 18.2652 34.4734 18.1176 34.1505C18.1689 34.0856 18.2215 34.0279 18.2755 33.979C18.3726 33.8909 18.4743 33.8074 18.5797 33.7292ZM18.1018 33.4684C17.9184 33.3803 17.7271 33.3026 17.5344 33.2438C17.6437 33.3971 17.7465 33.5535 17.8453 33.7061C17.8762 33.6702 17.9077 33.6375 17.9397 33.6085C17.9923 33.5608 18.0464 33.514 18.1018 33.4684ZM16.3522 32.6887C16.0797 32.7584 15.8188 32.8943 15.5877 33.1203L15.5569 33.1395C15.2876 32.9941 14.9867 32.8585 14.6743 32.7637C14.6641 32.7129 14.6386 32.6676 14.6027 32.633C14.8326 32.3717 15.0596 32.1389 15.3291 31.964C15.5143 32.0279 15.6763 32.1115 15.8079 32.2268C15.9121 32.3179 16.0144 32.4036 16.1141 32.4871L16.1149 32.4878C16.1957 32.5555 16.2749 32.6219 16.3522 32.6887ZM13.1153 31.6108C13.0464 31.6329 12.9777 31.6573 12.9091 31.6838C12.9885 31.7322 13.065 31.7873 13.1372 31.8505C13.224 31.9265 13.3161 32.0036 13.4105 32.0827C13.5997 32.2413 13.798 32.4075 13.9818 32.5873L14.0197 32.5428C14.2257 32.301 14.4448 32.0437 14.7017 31.8172C14.6375 31.8064 14.5729 31.7962 14.5079 31.7859L14.4531 31.7772L14.3662 31.7633C14.2576 31.7456 14.1491 31.7381 14.0269 31.7296L13.9997 31.7277C13.8705 31.7186 13.7269 31.7077 13.5793 31.6789C13.5492 31.673 13.5112 31.6708 13.459 31.6714L13.4428 31.6718L13.4001 31.673C13.3601 31.6742 13.3122 31.6756 13.2832 31.6756C13.2186 31.6756 13.1597 31.6511 13.1153 31.6108ZM17.0047 33.3674C16.878 33.552 16.766 33.7465 16.6738 33.9481C16.9086 34.1683 17.1276 34.4051 17.3361 34.6455C17.4041 34.4757 17.475 34.3148 17.5491 34.1692L17.4831 34.0671C17.3255 33.8233 17.1723 33.5862 17.0047 33.3674ZM17.8286 34.6041C17.7621 34.7274 17.697 34.8595 17.6328 34.9965C17.7042 35.0827 17.7746 35.1685 17.8442 35.2534C17.9388 35.3688 18.0323 35.4827 18.1247 35.5932C18.276 35.774 18.4181 35.9771 18.5534 36.1705C18.6071 36.2472 18.6597 36.3225 18.7114 36.3942C18.7445 36.4401 18.7776 36.4851 18.8108 36.529C18.5544 35.8644 18.2078 35.2129 17.8286 34.6041ZM17.1372 35.1839C16.9263 34.9326 16.7128 34.6889 16.4878 34.4634C16.4634 34.5559 16.4434 34.6493 16.4285 34.7434C16.3946 34.9563 16.451 36.0401 16.4823 36.6405C16.4909 36.8051 16.4976 36.9334 16.5 36.9975C16.6294 36.7347 16.7649 36.3169 16.9134 35.859C16.9847 35.639 17.059 35.4097 17.1372 35.1839ZM16.2814 33.6101C16.3463 33.4804 16.4179 33.3545 16.4947 33.2328C16.3406 33.2882 16.1896 33.356 16.0433 33.4345C16.1245 33.4906 16.2039 33.5492 16.2814 33.6101ZM15.5797 33.7292C15.7552 33.8364 15.921 33.9573 16.0795 34.0889C16.0153 34.2756 15.966 34.468 15.9347 34.6648C15.9057 34.8472 15.9491 35.8122 15.978 36.4522C15.9897 36.7126 15.999 36.9192 16 36.9975C15.8866 36.7701 15.7426 36.2377 15.5913 35.6787C15.4323 35.0908 15.2652 34.4734 15.1176 34.1505C15.1689 34.0856 15.2215 34.0279 15.2755 33.979C15.3726 33.8909 15.4743 33.8074 15.5797 33.7292ZM15.1018 33.4684C14.9184 33.3803 14.7271 33.3026 14.5344 33.2438C14.6437 33.3971 14.7465 33.5535 14.8453 33.7061C14.8762 33.6702 14.9077 33.6375 14.9397 33.6085C14.9923 33.5608 15.0464 33.514 15.1018 33.4684ZM13.3522 32.6887C13.0797 32.7584 12.8188 32.8943 12.5877 33.1203L12.5569 33.1395C12.2876 32.9941 11.9867 32.8585 11.6743 32.7637C11.6641 32.7129 11.6386 32.6676 11.6027 32.633C11.8326 32.3717 12.0596 32.1389 12.3291 31.964C12.5143 32.0279 12.6763 32.1115 12.8079 32.2268C12.9121 32.3179 13.0144 32.4036 13.1141 32.4871L13.1149 32.4878C13.1957 32.5555 13.2749 32.6219 13.3522 32.6887ZM11.7017 31.8172C11.6375 31.8064 11.5729 31.7962 11.5079 31.7859L11.4163 31.7714L11.3662 31.7633C11.2576 31.7456 11.1491 31.7381 11.0269 31.7296L10.9997 31.7277C10.8705 31.7186 10.7269 31.7077 10.5793 31.6789C10.5492 31.673 10.5112 31.6708 10.459 31.6714L10.4499 31.6716L10.4001 31.673C10.3601 31.6742 10.3122 31.6756 10.2832 31.6756C10.2186 31.6756 10.1597 31.6511 10.1153 31.6108C10.0464 31.6329 9.97774 31.6573 9.90911 31.6838C9.98849 31.7322 10.065 31.7873 10.1372 31.8505C10.224 31.9265 10.3161 32.0036 10.4105 32.0827C10.5997 32.2413 10.798 32.4075 10.9818 32.5873L11.0197 32.5428C11.2257 32.301 11.4448 32.0437 11.7017 31.8172ZM14.0047 33.3674C13.878 33.552 13.766 33.7465 13.6738 33.9481C13.9086 34.1683 14.1276 34.4051 14.3361 34.6455C14.4041 34.4757 14.475 34.3148 14.5491 34.1692L14.4831 34.0671C14.3255 33.8233 14.1723 33.5862 14.0047 33.3674ZM14.8286 34.6041C14.7621 34.7274 14.6971 34.8595 14.6328 34.9965C14.7042 35.0827 14.775 35.1689 14.8446 35.2538C14.9391 35.3691 15.0324 35.4828 15.1247 35.5932C15.276 35.774 15.4181 35.9771 15.5534 36.1705C15.6071 36.2472 15.6597 36.3225 15.7114 36.3942C15.7445 36.4401 15.7776 36.4851 15.8108 36.529C15.5544 35.8644 15.2078 35.2129 14.8286 34.6041ZM14.1372 35.1839C13.9263 34.9326 13.7128 34.6889 13.4878 34.4634C13.4634 34.5559 13.4434 34.6493 13.4285 34.7434C13.3946 34.9563 13.451 36.0401 13.4823 36.6405C13.4909 36.8051 13.4976 36.9334 13.5 36.9975C13.6294 36.7347 13.7649 36.317 13.9133 35.8591C13.9847 35.6391 14.059 35.4098 14.1372 35.1839ZM13.2814 33.6101C13.3463 33.4804 13.4179 33.3545 13.4947 33.2328C13.3406 33.2882 13.1896 33.356 13.0433 33.4345C13.1245 33.4906 13.2039 33.5492 13.2814 33.6101ZM12.5797 33.7292C12.7552 33.8364 12.921 33.9573 13.0795 34.0889C13.0153 34.2756 12.966 34.468 12.9347 34.6648C12.9057 34.8472 12.9491 35.8122 12.978 36.4522C12.9897 36.7126 12.999 36.9192 13 36.9975C12.8866 36.7701 12.7426 36.2377 12.5913 35.6787C12.4323 35.0908 12.2652 34.4734 12.1176 34.1505C12.1689 34.0856 12.2215 34.0279 12.2755 33.979C12.3726 33.8909 12.4743 33.8074 12.5797 33.7292ZM12.1018 33.4684C11.9184 33.3803 11.7271 33.3026 11.5344 33.2438C11.6437 33.3971 11.7465 33.5535 11.8453 33.7061C11.8762 33.6702 11.9077 33.6375 11.9397 33.6085C11.9923 33.5608 12.0464 33.514 12.1018 33.4684ZM10.3522 32.6887C10.0797 32.7584 9.81875 32.8943 9.58774 33.1203L9.55692 33.1395C9.24498 32.971 8.89067 32.8158 8.52516 32.7219C8.7822 32.4246 9.02934 32.1586 9.32912 31.964C9.51431 32.0279 9.67625 32.1115 9.80795 32.2268C9.91212 32.3179 10.0144 32.4036 10.1141 32.4871L10.1149 32.4878C10.1957 32.5555 10.2749 32.6219 10.3522 32.6887ZM11.0047 33.3674C10.878 33.552 10.766 33.7465 10.6738 33.9481C10.9086 34.1683 11.1276 34.4051 11.3361 34.6455C11.4041 34.4757 11.475 34.3148 11.5491 34.1692L11.4831 34.0671C11.3255 33.8233 11.1723 33.5862 11.0047 33.3674ZM11.8286 34.6041C11.7621 34.7274 11.6971 34.8595 11.6328 34.9965C11.7042 35.0827 11.775 35.1689 11.8446 35.2538C11.9391 35.3691 12.0324 35.4828 12.1247 35.5932C12.276 35.774 12.4181 35.9771 12.5534 36.1705C12.6071 36.2472 12.6597 36.3225 12.7114 36.3942C12.7445 36.4401 12.7776 36.4851 12.8108 36.529C12.5544 35.8644 12.2078 35.2129 11.8286 34.6041ZM11.1372 35.1839C10.9263 34.9326 10.7128 34.6889 10.4878 34.4634C10.4634 34.5559 10.4434 34.6493 10.4285 34.7434C10.3946 34.9563 10.451 36.0401 10.4823 36.6405C10.4909 36.8051 10.4976 36.9334 10.5 36.9975C10.6294 36.7347 10.7649 36.317 10.9133 35.8591C10.9847 35.6391 11.059 35.4098 11.1372 35.1839ZM10.2814 33.6101C10.3463 33.4804 10.4179 33.3545 10.4947 33.2328C10.3406 33.2882 10.1896 33.356 10.0433 33.4345C10.1245 33.4906 10.2039 33.5492 10.2814 33.6101ZM9.57971 33.7292C9.7552 33.8364 9.92096 33.9573 10.0795 34.0889C10.0153 34.2756 9.96598 34.468 9.93466 34.6648C9.90565 34.8472 9.94912 35.8122 9.97795 36.4522C9.98968 36.7126 9.99899 36.9192 10 36.9975C9.88664 36.7701 9.74258 36.2377 9.59133 35.6787C9.43227 35.0908 9.26524 34.4734 9.11757 34.1505C9.16891 34.0856 9.22146 34.0279 9.27546 33.979C9.37261 33.8909 9.47426 33.8074 9.57971 33.7292ZM9.10177 33.4684C8.91838 33.3803 8.72708 33.3026 8.53445 33.2438C8.64373 33.3971 8.74648 33.5535 8.84528 33.7061C8.87621 33.6702 8.90766 33.6375 8.93965 33.6085C8.99234 33.5608 9.04641 33.514 9.10177 33.4684ZM7.54317 33.1577C7.34887 33.1971 7.1695 33.2786 7.01016 33.4118C7.103 33.4747 7.19335 33.541 7.28143 33.6101C7.35978 33.4536 7.44776 33.3025 7.54317 33.1577ZM8.00468 33.3674C7.87797 33.552 7.76603 33.7465 7.67382 33.9481C7.90864 34.1683 8.12761 34.4051 8.33613 34.6455C8.40415 34.4757 8.47502 34.3148 8.54914 34.1692L8.48306 34.0671C8.32554 33.8233 8.17231 33.5862 8.00468 33.3674ZM8.82865 34.6041C8.76211 34.7274 8.69705 34.8595 8.63282 34.9965C8.70421 35.0827 8.77495 35.1689 8.84458 35.2538C8.93908 35.3691 9.03237 35.4828 9.1247 35.5932C9.27598 35.774 9.41806 35.9771 9.55336 36.1705C9.60706 36.2472 9.6597 36.3225 9.71142 36.3942C9.74451 36.4401 9.77757 36.4851 9.81081 36.529C9.55437 35.8644 9.20775 35.2129 8.82865 34.6041ZM8.13716 35.1839C7.92631 34.9326 7.71284 34.6889 7.48784 34.4634C7.46336 34.5559 7.44343 34.6493 7.42845 34.7434C7.39458 34.9563 7.45105 36.0401 7.48233 36.6406C7.49091 36.8051 7.49759 36.9334 7.5 36.9975C7.62943 36.7347 7.76488 36.317 7.91333 35.8591C7.98467 35.639 8.05901 35.4097 8.13716 35.1839ZM7.07951 34.0889C6.91878 33.9555 6.75065 33.8331 6.57248 33.7247C6.26142 33.5356 5.9003 33.3554 5.53445 33.2438C5.66788 33.431 5.79158 33.6227 5.91023 33.8066C5.95561 33.8769 6.00025 33.9461 6.04442 34.0135C6.20851 34.2637 6.40536 34.9913 6.59133 35.6787C6.74258 36.2377 6.88663 36.7701 7 36.9975C6.99899 36.9192 6.98967 36.7125 6.97794 36.4519C6.94911 35.8119 6.90565 34.8472 6.93466 34.6648C6.96598 34.468 7.0153 34.2756 7.07951 34.0889ZM4.8089 33.1295C4.51122 33.1352 4.23987 33.2197 4.01016 33.4118C4.7383 33.9049 5.31335 34.6061 5.84432 35.2535C5.93891 35.3689 6.03229 35.4827 6.1247 35.5932C6.27598 35.774 6.41806 35.9771 6.55336 36.1705C6.60706 36.2472 6.6597 36.3225 6.71142 36.3942C6.74451 36.4401 6.77757 36.4851 6.8108 36.529C6.50935 35.7478 6.08328 34.9845 5.6263 34.2876C5.57783 34.2137 5.53025 34.1401 5.48306 34.0671C5.26643 33.7318 5.05793 33.4092 4.8089 33.1295Z" stroke="black" stroke-width="0.5" stroke-linecap="round"/>
</svg>
