<svg width="50" height="49" viewBox="0 0 50 49" fill="none" xmlns="http://www.w3.org/2000/svg">
<path fill-rule="evenodd" clip-rule="evenodd" d="M32.6634 33.9232C29.5185 36.6045 25.4138 38.2272 20.9235 38.2272C11.0246 38.2272 3 30.3413 3 20.6136C3 10.8859 11.0246 3 20.9235 3C30.8223 3 38.8469 10.8859 38.8469 20.6136C38.8469 25.0269 37.1952 29.0611 34.4662 32.1518L45.7059 43.1972L43.9351 45L32.6634 33.9232ZM35.6886 20.6136C35.6886 28.5442 29.1309 35.0681 20.9235 35.0681C12.7161 35.0681 6.15836 28.5442 6.15836 20.6136C6.15836 12.683 12.7161 6.1591 20.9235 6.1591C29.1309 6.1591 35.6886 12.683 35.6886 20.6136Z" fill="white" stroke="#0E006E" stroke-width="5"/>
</svg>
