<svg width="60" height="69" viewBox="0 0 60 69" fill="none" xmlns="http://www.w3.org/2000/svg">
<path d="M40.5136 68.5714C43.6181 68.5714 46.4641 66.8866 48.0137 64.1973C50.182 60.4366 51.4289 56.0826 51.4289 51.4286C51.4289 46.5911 50.0788 42.079 47.7538 38.2205L53.5717 32.4027L54.828 33.6589C55.665 34.496 57.0217 34.496 57.8588 33.6589L59.3722 32.1429C60.2093 31.3058 60.2093 29.9491 59.3722 29.1121L52.3155 22.0554C51.4784 21.2183 50.1217 21.2183 49.2846 22.0554L47.7699 23.5701C46.9328 24.4071 46.9328 25.7638 47.7699 26.6009L49.0262 27.8571L43.748 33.1353C42.1998 31.6125 40.4627 30.2786 38.5716 29.183V8.53661L40.7105 8.53393C41.8917 8.53259 42.8493 7.575 42.8507 6.39375L42.856 2.14554C42.8574 0.960269 41.8958 -0.00133789 40.7105 1.39728e-06L10.7184 0.0348228C9.53711 0.0361621 8.57951 0.993751 8.57817 2.175L8.57282 6.42456C8.57148 7.60982 9.53309 8.57009 10.7184 8.56875L12.8572 8.56607V29.1817C5.17905 33.6295 0 41.9156 0 51.4286C0 56.0826 1.24688 60.438 3.4152 64.1973C4.9661 66.8866 7.8121 68.5714 10.9152 68.5714H40.5136ZM16.0796 34.7451L19.2858 32.8875V8.55938L32.143 8.54464V32.8875L35.3493 34.7451C38.6721 36.6696 41.2583 39.5304 42.9243 42.8571H8.50451C10.1719 39.5304 12.7568 36.6696 16.0796 34.7451Z" fill="#347BB6"/>
</svg>
