<svg width="13" height="25" viewBox="0 0 13 25" fill="none" xmlns="http://www.w3.org/2000/svg">
<path d="M5.62702 13.7262L5.14047 14.2283L4.65391 13.7262L4.38183 13.9997L4.87189 14.5055L4.38183 15.0112L4.65391 15.2847L5.14047 14.7826L5.62702 15.2847L5.8991 15.0112L5.40904 14.5055L5.8991 13.9997L5.62702 13.7262Z" fill="black"/>
<path d="M7.92874 13.7262L7.44218 14.2283L6.95562 13.7262L6.68355 13.9997L7.17361 14.5055L6.68355 15.0112L6.95562 15.2847L7.44218 14.7826L7.92874 15.2847L8.20081 15.0112L7.71075 14.5055L8.20081 13.9997L7.92874 13.7262Z" fill="black"/>
<path d="M6.29284 16.4559C5.79445 16.46 5.27966 16.6676 4.58034 17.1051C4.49039 17.1614 4.37268 17.1328 4.31742 17.0411C4.26217 16.9495 4.29029 16.8296 4.38024 16.7733C5.09676 16.325 5.68499 16.0715 6.28975 16.0665C6.89619 16.0615 7.48582 16.3065 8.20561 16.7752C8.29456 16.8331 8.32057 16.9535 8.26372 17.0441C8.20686 17.1347 8.08866 17.1612 7.99971 17.1033C7.30319 16.6498 6.78955 16.4518 6.29284 16.4559Z" fill="black"/>
<path fill-rule="evenodd" clip-rule="evenodd" d="M6.32914 19.081C8.41307 19.081 10.1024 17.3376 10.1024 15.1869C10.1024 13.0363 8.41307 11.2928 6.32914 11.2928C4.2452 11.2928 2.55584 13.0363 2.55584 15.1869C2.55584 17.3376 4.2452 19.081 6.32914 19.081ZM6.32914 18.3022C7.98142 18.3022 9.33786 16.917 9.33786 15.1869C9.33786 13.4568 7.98142 12.0717 6.32914 12.0717C4.67685 12.0717 3.32042 13.4568 3.32042 15.1869C3.32042 16.917 4.67685 18.3022 6.32914 18.3022Z" fill="black"/>
<path d="M4.06513 10.7423C4.06513 10.5559 4.80529 10.3998 5.80085 10.3583V10.3979C5.39527 10.415 5.03448 10.4513 4.7521 10.5005C4.55164 10.5355 4.39487 10.5763 4.28975 10.6196C4.18379 10.6633 4.14059 10.705 4.14059 10.7423C4.14059 10.7795 4.18379 10.8212 4.28975 10.8649C4.39487 10.9083 4.55164 10.949 4.7521 10.984C5.15222 11.0538 5.70978 11.0976 6.32911 11.0976C6.94844 11.0976 7.506 11.0538 7.90612 10.984C8.10658 10.949 8.26335 10.9083 8.36846 10.8649C8.47443 10.8212 8.51762 10.7795 8.51762 10.7423C8.51762 10.705 8.47443 10.6633 8.36846 10.6196C8.26335 10.5763 8.10658 10.5355 7.90612 10.5005C7.62374 10.4513 7.26295 10.415 6.85737 10.3979V10.3583C7.85293 10.3998 8.59309 10.5559 8.59309 10.7423C8.59309 10.9603 7.57947 11.1371 6.32911 11.1371C5.07875 11.1371 4.06513 10.9603 4.06513 10.7423Z" fill="black"/>
<path fill-rule="evenodd" clip-rule="evenodd" d="M8.85854 0.623188C9.08144 0.812824 9.29957 1.10978 9.32444 1.51639C9.34856 1.91093 9.35556 2.27073 9.36144 2.57265C9.36362 2.68451 9.36564 2.78844 9.36832 2.88323C9.3777 3.21497 9.39521 3.43603 9.43265 3.60678C9.44742 3.62785 9.4692 3.6572 9.49995 3.69596C9.58975 3.80918 9.7192 3.95692 9.88744 4.14327C9.96554 4.22977 10.0509 4.32341 10.1417 4.42296L10.1422 4.42345L10.1428 4.42411L10.1429 4.42425C10.4307 4.73974 10.7726 5.11453 11.1079 5.51001C11.5505 6.03206 12.01 6.62243 12.362 7.22242C12.7043 7.80572 13 8.48901 13 9.17858V22.2176C13 23.4267 12.5664 24.1854 11.9831 24.6063C11.7116 24.8022 11.4417 24.8992 11.2396 24.9479C11.1378 24.9723 11.0502 24.9853 10.9836 24.9921C10.9501 24.9956 10.9215 24.9975 10.8986 24.9986C10.8923 24.9989 10.8864 24.9992 10.881 24.9994C10.8765 24.9995 10.8723 24.9996 10.8684 24.9997C10.8658 24.9998 10.8634 24.9998 10.861 24.9999L10.8566 24.9999L10.8515 25L10.8491 25L10.848 25C10.8475 25 10.847 25 10.847 24.2212V25H2.15304V24.2212C2.15304 25 2.15251 25 2.15197 25L2.15086 25L2.14853 25L2.14344 24.9999C2.13986 24.9999 2.13591 24.9998 2.13159 24.9997C2.12297 24.9995 2.11286 24.9992 2.10139 24.9986C2.07846 24.9975 2.04987 24.9956 2.01641 24.9921C1.94975 24.9853 1.86215 24.9723 1.7604 24.9479C1.55831 24.8992 1.28837 24.8022 1.01687 24.6063C0.433631 24.1854 3.69387e-10 23.4267 3.69387e-10 22.2176L5.46908e-06 19.6076C1.41461e-05 16.2764 2.75262e-05 11.1469 3.69387e-10 9.17859C-2.3187e-05 7.51919 1.09214 6.12696 1.98938 5.18708C2.34755 4.81189 2.7116 4.47258 3.00361 4.20042C3.08771 4.12203 3.16583 4.04922 3.23612 3.98272C3.37804 3.84845 3.47986 3.74774 3.54858 3.67208C3.55747 3.30578 3.58761 2.85537 3.62315 2.32442L3.62315 2.32433C3.63998 2.07295 3.65801 1.80351 3.67556 1.51639C3.70043 1.10978 3.91856 0.812823 4.14146 0.62319C4.35731 0.439555 4.61674 0.319032 4.85833 0.23672C5.34549 0.0707424 5.94077 1.18839e-06 6.5 0C7.05922 -1.18836e-06 7.6545 0.0707374 8.14167 0.236715C8.38326 0.319026 8.6427 0.43955 8.85854 0.623188ZM9.40981 3.57154C9.40992 3.57159 9.41119 3.57366 9.41328 3.57763C9.41201 3.57556 9.41112 3.57402 9.41055 3.57302L9.41004 3.57207C9.40989 3.57177 9.40982 3.57159 9.40981 3.57154C9.40981 3.57153 9.4098 3.57154 9.40981 3.57154ZM5.1445 2.49723L5.1445 2.49738C5.10435 3.09718 5.07508 3.53439 5.07508 3.87668C5.07508 4.11525 4.98132 4.29885 4.92983 4.38809C4.87006 4.49168 4.79804 4.58357 4.73488 4.65749C4.60837 4.80557 4.44267 4.96707 4.27677 5.12402C4.19315 5.20314 4.10582 5.28455 4.01556 5.36872L4.01546 5.36881C3.72741 5.63738 3.40936 5.93391 3.08568 6.27298C2.20994 7.19034 1.52915 8.18707 1.52916 9.17857C1.52919 11.1393 1.52918 16.2365 1.52917 19.5686L1.52916 22.2176C1.52916 23.0121 1.78976 23.2551 1.90076 23.3352C1.97637 23.3898 2.05355 23.4179 2.11179 23.4319C2.13979 23.4386 2.16047 23.4414 2.16995 23.4424H10.8301C10.8395 23.4414 10.8602 23.4386 10.8882 23.4319C10.9465 23.4179 11.0236 23.3898 11.0992 23.3352C11.2102 23.2551 11.4708 23.0121 11.4708 22.2176V9.17858C11.4708 8.9126 11.3447 8.52473 11.0494 8.02147C10.7639 7.53489 10.3704 7.02328 9.95056 6.5281C9.63532 6.15628 9.32121 5.81189 9.03672 5.49997L9.03666 5.4999C8.94139 5.39545 8.84943 5.29462 8.76187 5.19764C8.59267 5.01023 8.43391 4.83045 8.31053 4.6749C8.2488 4.59708 8.18673 4.51389 8.13362 4.43049C8.08798 4.3588 8.01447 4.23469 7.97355 4.08283C7.87233 3.70719 7.85056 3.30871 7.83979 2.92809C7.83645 2.81007 7.83417 2.69218 7.83183 2.57181C7.82703 2.32453 7.82203 2.06669 7.8073 1.7756C7.77206 1.75787 7.72285 1.73647 7.65662 1.71391C7.37479 1.61789 6.95542 1.55763 6.5 1.55763C6.04458 1.55763 5.62521 1.61789 5.34338 1.71391C5.27651 1.7367 5.22699 1.75829 5.19167 1.77613C5.17511 2.03998 5.1591 2.27916 5.14453 2.49692L5.14451 2.49709L5.1445 2.49723Z" fill="black"/>
</svg>
