<svg width="20" height="33" viewBox="0 0 20 33" fill="none" xmlns="http://www.w3.org/2000/svg">
<path fill-rule="evenodd" clip-rule="evenodd" d="M7.29469 1.49002C7.7107 1.49002 8.04795 1.15647 8.04795 0.745011C8.04795 0.333553 7.7107 0 7.29469 0C6.87868 0 6.54143 0.333553 6.54143 0.745011C6.54143 1.15647 6.87868 1.49002 7.29469 1.49002ZM7.29469 1.27716C7.59184 1.27716 7.83273 1.03891 7.83273 0.745011C7.83273 0.451112 7.59184 0.21286 7.29469 0.21286C6.99754 0.21286 6.75665 0.451112 6.75665 0.745011C6.75665 1.03891 6.99754 1.27716 7.29469 1.27716Z" fill="black"/>
<path fill-rule="evenodd" clip-rule="evenodd" d="M11.314 2.28284C11.314 2.63552 11.025 2.92142 10.6684 2.92142C10.3118 2.92142 10.0227 2.63552 10.0227 2.28284C10.0227 1.93017 10.3118 1.64426 10.6684 1.64426C11.025 1.64426 11.314 1.93017 11.314 2.28284ZM11.0988 2.28284C11.0988 2.51796 10.9061 2.70856 10.6684 2.70856C10.4307 2.70856 10.238 2.51796 10.238 2.28284C10.238 2.04772 10.4307 1.85712 10.6684 1.85712C10.9061 1.85712 11.0988 2.04772 11.0988 2.28284Z" fill="black"/>
<path fill-rule="evenodd" clip-rule="evenodd" d="M8.15094 4.83717C8.74524 4.83717 9.22702 4.36066 9.22702 3.77287C9.22702 3.18507 8.74524 2.70856 8.15094 2.70856C7.55663 2.70856 7.07485 3.18507 7.07485 3.77287C7.07485 4.36066 7.55663 4.83717 8.15094 4.83717ZM8.15094 4.62431C8.62638 4.62431 9.0118 4.2431 9.0118 3.77287C9.0118 3.30263 8.62638 2.92142 8.15094 2.92142C7.67549 2.92142 7.29007 3.30263 7.29007 3.77287C7.29007 4.2431 7.67549 4.62431 8.15094 4.62431Z" fill="black"/>
<path fill-rule="evenodd" clip-rule="evenodd" d="M16.9053 24.4688C17.006 24.2917 17.062 24.1003 17.0761 23.9086L17.109 23.5644L17.0968 23.5374L17.106 17.9571C17.107 17.3994 16.9371 16.9145 16.594 16.5418C16.2564 16.1749 15.7895 15.9582 15.2678 15.8565C14.0337 15.616 12.8368 16.4134 12.5943 17.6374C12.5085 18.0704 12.5725 18.4875 12.7046 18.8463L14.4647 23.9959L14.4725 24.0137C14.5761 24.2514 14.753 24.565 15.0867 24.7517C15.3384 24.8925 15.6556 25.01 15.9799 25.0054C16.3321 25.0005 16.6904 24.8465 16.9053 24.4688ZM13.1577 18.6878L14.9135 23.8247C15.0033 24.0307 15.1269 24.2271 15.3228 24.3367C15.741 24.5707 16.2509 24.6495 16.4868 24.2346C16.5528 24.1186 16.5888 23.994 16.5972 23.8694L16.6188 23.6439C16.6172 23.6403 16.6163 23.6363 16.6163 23.6321L16.6256 17.9563C16.6272 17.0414 16.0771 16.4999 15.1752 16.3241C14.2015 16.1343 13.257 16.7635 13.0657 17.7293C12.9998 18.0617 13.0477 18.3915 13.1577 18.6878Z" fill="black"/>
<path fill-rule="evenodd" clip-rule="evenodd" d="M13.8951 7.24265C13.8527 6.76616 13.5001 6.4826 13.2501 6.33639C12.9793 6.17805 12.644 6.06836 12.3054 5.98906C11.6189 5.82831 10.747 5.75388 9.9 5.75388C9.05297 5.75388 8.18111 5.82831 7.49464 5.98907C7.156 6.06837 6.82069 6.17805 6.54992 6.33639C6.29989 6.4826 5.9473 6.76616 5.90491 7.24265C5.87693 7.55715 5.8481 7.85319 5.82114 8.13005C5.76386 8.71832 5.71501 9.22 5.70064 9.62809C5.57493 9.72862 5.38096 9.86102 5.11631 10.0331C4.99934 10.1092 4.87099 10.1914 4.73394 10.2792C4.26571 10.5792 3.69562 10.9445 3.13129 11.3508C2.4007 11.8768 1.63521 12.5021 1.04734 13.2076C0.463001 13.9088 -1.94379e-05 14.7546 6.12025e-10 15.7095C4.42437e-05 17.8826 2.27792e-05 23.5451 8.8361e-06 27.2235L6.12025e-10 30.1069C6.12025e-10 30.7791 0.171402 31.3285 0.463781 31.7635C0.753296 32.1943 1.1344 32.4729 1.49463 32.6516C1.85218 32.8289 2.20141 32.9142 2.45547 32.9562C2.58412 32.9774 2.69283 32.9883 2.77207 32.9939C2.81181 32.9968 2.84447 32.9983 2.8689 32.9991C2.88112 32.9995 2.89132 32.9997 2.89934 32.9998L2.90975 33L2.9137 33L2.91611 33C2.91647 33 2.91681 33 2.91681 32.3193L2.91611 33H16.8832V32.3193C16.8832 33 16.8828 33 16.8832 33L16.8863 33L16.8902 33L16.9007 32.9998C16.9087 32.9997 16.9189 32.9995 16.9311 32.9991C16.9555 32.9983 16.9882 32.9968 17.0279 32.9939C17.1072 32.9883 17.2159 32.9774 17.3445 32.9562C17.5986 32.9142 17.9478 32.8289 18.3054 32.6516C18.6656 32.4729 19.0467 32.1943 19.3362 31.7635C19.6286 31.3285 19.8 30.7791 19.8 30.1069V15.7095C19.8 14.9235 19.315 14.1699 18.7866 13.5508C18.2338 12.9032 17.5102 12.2637 16.8071 11.6937C16.2742 11.2617 15.7331 10.854 15.2716 10.5062L15.2706 10.5054C15.1232 10.3943 14.9839 10.2894 14.8556 10.1917C14.5847 9.98549 14.3687 9.81625 14.2154 9.68348C14.1464 9.62366 14.0994 9.57915 14.0697 9.54822C14.0093 9.36377 13.981 9.12461 13.9658 8.75527C13.9616 8.65205 13.9583 8.53826 13.9549 8.41537C13.9454 8.08154 13.934 7.68063 13.8951 7.24265ZM7.19592 7.54422C7.19564 7.54418 7.1977 7.54206 7.20293 7.53801C7.19881 7.54223 7.19619 7.54426 7.19592 7.54422ZM7.81004 7.3141C7.54233 7.37679 7.36237 7.4448 7.25966 7.50199C7.23148 7.81224 7.2043 8.09138 7.17972 8.34382C7.11547 9.00351 7.06897 9.48095 7.06897 9.85522C7.06897 10.1432 6.9083 10.3457 6.8461 10.4197C6.76261 10.5192 6.66188 10.6078 6.57022 10.6815C6.38425 10.8311 6.13479 10.9988 5.8689 11.1717C5.739 11.2562 5.60166 11.3442 5.45851 11.4359C4.99405 11.7335 4.46847 12.0703 3.93764 12.4525C3.24413 12.9519 2.58553 13.4987 2.10534 14.0749C1.62162 14.6554 1.37261 15.2009 1.37262 15.7095C1.37266 17.8859 1.37264 23.5626 1.37263 27.2405L1.37262 30.1069C1.37262 30.5409 1.48003 30.8211 1.60587 31.0083C1.73457 31.1998 1.91109 31.336 2.10849 31.4339C2.30857 31.5331 2.51696 31.5861 2.68112 31.6132C2.76158 31.6265 2.82712 31.6329 2.86987 31.636C2.89112 31.6375 2.90638 31.6381 2.91462 31.6384L2.9204 31.6385H16.8796L16.8854 31.6384C16.8936 31.6381 16.9089 31.6375 16.9301 31.636C16.9729 31.6329 17.0384 31.6265 17.1189 31.6132C17.283 31.5861 17.4914 31.5331 17.6915 31.4339C17.8889 31.336 18.0654 31.1998 18.1941 31.0083C18.32 30.8211 18.4274 30.5409 18.4274 30.1069V15.7095C18.4274 15.4404 18.2347 15.0113 17.739 14.4305C17.2677 13.8784 16.6208 13.301 15.9384 12.7479C15.4263 12.3327 14.9138 11.9465 14.4556 11.6012C14.3038 11.4868 14.1577 11.3767 14.0198 11.2717C13.7486 11.0652 13.5016 10.8728 13.3124 10.7088C13.218 10.627 13.1265 10.5425 13.0495 10.4593C12.9864 10.3913 12.876 10.2652 12.812 10.1019C12.6473 9.68178 12.6117 9.23378 12.5943 8.81079C12.5889 8.6789 12.5852 8.54788 12.5814 8.41451C12.5734 8.13114 12.5651 7.83682 12.5393 7.50142C12.4364 7.44434 12.2568 7.37657 11.99 7.31409C11.4411 7.18555 10.683 7.11534 9.9 7.11534C9.11704 7.11534 8.35892 7.18556 7.81004 7.3141ZM12.6041 7.54421C12.6038 7.54426 12.6012 7.54223 12.5971 7.538C12.6023 7.54206 12.6044 7.54417 12.6041 7.54421Z" fill="black"/>
<path fill-rule="evenodd" clip-rule="evenodd" d="M4.92604 5.99044C4.92604 6.46068 4.54061 6.84188 4.06517 6.84188C3.58972 6.84188 3.2043 6.46068 3.2043 5.99044C3.2043 5.5202 3.58972 5.139 4.06517 5.139C4.54061 5.139 4.92604 5.5202 4.92604 5.99044ZM4.71082 5.99044C4.71082 6.34312 4.42175 6.62902 4.06517 6.62902C3.70859 6.62902 3.41952 6.34312 3.41952 5.99044C3.41952 5.63776 3.70859 5.35186 4.06517 5.35186C4.42175 5.35186 4.71082 5.63776 4.71082 5.99044Z" fill="black"/>
<path fill-rule="evenodd" clip-rule="evenodd" d="M4.94201 3.62777C5.47689 3.62777 5.91049 3.19892 5.91049 2.6699C5.91049 2.14088 5.47689 1.71203 4.94201 1.71203C4.40714 1.71203 3.97353 2.14088 3.97353 2.6699C3.97353 3.19892 4.40714 3.62777 4.94201 3.62777ZM4.94201 3.41491C5.35803 3.41491 5.69527 3.08136 5.69527 2.6699C5.69527 2.25844 5.35803 1.92489 4.94201 1.92489C4.526 1.92489 4.18875 2.25844 4.18875 2.6699C4.18875 3.08136 4.526 3.41491 4.94201 3.41491Z" fill="black"/>
<path fill-rule="evenodd" clip-rule="evenodd" d="M13.454 4.32456C13.454 4.61846 13.2131 4.85671 12.916 4.85671C12.6188 4.85671 12.3779 4.61846 12.3779 4.32456C12.3779 4.03066 12.6188 3.79241 12.916 3.79241C13.2131 3.79241 13.454 4.03066 13.454 4.32456ZM13.2388 4.32456C13.2388 4.5009 13.0943 4.64385 12.916 4.64385C12.7377 4.64385 12.5932 4.5009 12.5932 4.32456C12.5932 4.14822 12.7377 4.00527 12.916 4.00527C13.0943 4.00527 13.2388 4.14822 13.2388 4.32456Z" fill="black"/>
</svg>
