<svg width="100" height="60" viewBox="0 0 100 60" fill="none" xmlns="http://www.w3.org/2000/svg">
<path d="M67.9219 0H54.5C53.25 0 52.0469 0.46858 51.125 1.31202L35.7656 15.3694C35.75 15.385 35.7344 15.4163 35.7188 15.4319C33.125 17.8685 33.1719 21.7577 35.3906 24.1787C37.375 26.3498 41.5469 26.9277 44.1563 24.6005C44.1719 24.5848 44.2031 24.5848 44.2188 24.5692L56.7031 13.1359C57.7188 12.2143 59.3125 12.2768 60.2344 13.2921C61.1719 14.3073 61.0938 15.8849 60.0781 16.822L56 20.555L78.75 39.0171C79.2031 39.392 79.6094 39.7981 79.9844 40.2198V9.99637L71.4531 1.46822C70.5313 0.531058 69.25 0 67.9219 0ZM85 10.0276V44.9993C85 47.7639 87.2344 49.9975 90 49.9975H100V10.0276H85ZM92.5 44.9993C91.125 44.9993 90 43.8747 90 42.5002C90 41.1257 91.125 40.0011 92.5 40.0011C93.875 40.0011 95 41.1257 95 42.5002C95 43.8747 93.875 44.9993 92.5 44.9993ZM0 49.9819H10C12.7656 49.9819 15 47.7483 15 44.9837V10.0276H0V49.9819ZM7.5 40.0011C8.875 40.0011 10 41.1257 10 42.5002C10 43.8747 8.875 44.9993 7.5 44.9993C6.125 44.9993 5 43.8747 5 42.5002C5 41.1101 6.125 40.0011 7.5 40.0011ZM75.6094 42.9063L52.2813 23.9757L47.5938 28.271C42.9531 32.5038 35.8438 32.0977 31.7031 27.5837C27.5 22.9917 27.8281 15.8849 32.3906 11.6989L45.1719 0H32.0781C30.75 0 29.4844 0.531058 28.5469 1.46822L20 9.99637V44.9681H22.8594L37 57.7603C41.2813 61.2434 47.5781 60.5874 51.0625 56.3077L51.0938 56.2765L53.8906 58.6975C56.375 60.728 60.0469 60.3375 62.0625 57.854L66.9688 51.8249L67.8125 52.5122C69.9531 54.246 73.1094 53.9336 74.8438 51.7781L76.3281 49.9506C78.0781 47.7952 77.75 44.6557 75.6094 42.9063Z" fill="#2A837C"/>
</svg>
