<svg width="55" height="55" viewBox="0 0 55 55" fill="none" xmlns="http://www.w3.org/2000/svg">
<path d="M23.5 23.5V12.5H31.5V23.5H42.5V31.5H31.5V42.5H23.5V31.5H12.5V23.5H23.5Z" fill="#217C71"/>
<path fill-rule="evenodd" clip-rule="evenodd" d="M0 27.5C0 12.3122 12.3122 0 27.5 0C42.6878 0 55 12.3122 55 27.5C55 42.6878 42.6878 55 27.5 55C12.3122 55 0 42.6878 0 27.5ZM27.5 5C15.0736 5 5 15.0736 5 27.5C5 39.9264 15.0736 50 27.5 50C39.9264 50 50 39.9264 50 27.5C50 15.0736 39.9264 5 27.5 5Z" fill="#217C71"/>
</svg>
