<svg width="21" height="24" viewBox="0 0 21 24" fill="none" xmlns="http://www.w3.org/2000/svg">
<path d="M15.06 8.94L6.12 0L4.71 1.41L7.09 3.79L1.94 8.94C1.35 9.53 1.35 10.48 1.94 11.06L7.44 16.56C7.73 16.85 8.12 17 8.5 17C8.88 17 9.27 16.85 9.56 16.56L15.06 11.06C15.65 10.48 15.65 9.53 15.06 8.94ZM3.71 10L8.5 5.21L13.29 10H3.71ZM17.5 11.5C17.5 11.5 15.5 13.67 15.5 15C15.5 16.1 16.4 17 17.5 17C18.6 17 19.5 16.1 19.5 15C19.5 13.67 17.5 11.5 17.5 11.5ZM0.5 20H20.5V24H0.5V20Z" fill="black"/>
</svg>
