<svg width="60" height="69" viewBox="0 0 60 69" fill="none" xmlns="http://www.w3.org/2000/svg">
<path d="M29.9999 30C29.1523 30.0002 28.3238 30.2517 27.6191 30.7228C26.9145 31.1938 26.3654 31.8632 26.0411 32.6464C25.7169 33.4295 25.6322 34.2912 25.7977 35.1225C25.9632 35.9537 26.3714 36.7173 26.9708 37.3165C27.5702 37.9158 28.3339 38.3239 29.1652 38.4892C29.9965 38.6544 30.8582 38.5695 31.6412 38.2451C32.4243 37.9207 33.0936 37.3714 33.5644 36.6666C34.0353 35.9619 34.2866 35.1333 34.2866 34.2857C34.2844 33.1496 33.832 32.0607 33.0285 31.2574C32.225 30.4541 31.136 30.002 29.9999 30ZM58.6836 17.1429C57.2269 14.5313 53.2582 10.346 43.111 11.5346C40.231 4.67076 35.8438 0 29.9999 0C24.1559 0 19.769 4.67076 16.8887 11.5346C6.74155 10.3627 2.77312 14.5313 1.31639 17.1429C-0.877211 21.077 -0.693059 26.9364 4.68187 34.2857C-0.693059 41.635 -0.877211 47.4944 1.31639 51.4286C5.21785 58.4431 14.9298 57.2712 16.8887 57.0368C19.769 63.9007 24.1559 68.5714 29.9999 68.5714C35.8438 68.5714 40.231 63.9007 43.111 57.0368C45.0702 57.2712 54.7822 58.4431 58.6836 51.4286C60.8772 47.4944 60.6931 41.635 55.3179 34.2857C60.6931 26.9364 60.8772 21.077 58.6836 17.1429ZM8.48288 47.1429C7.94717 46.1719 8.46614 43.8281 10.4923 40.6808C11.4134 41.5513 12.3846 42.4051 13.4228 43.2422C13.6404 45.0837 13.9585 46.875 14.3268 48.6161C11.0283 48.7333 8.98538 48.0301 8.48288 47.1429ZM13.4228 25.3292C12.3846 26.1663 11.4134 27.0201 10.4923 27.8906C8.46614 24.7433 7.94717 22.3996 8.48288 21.4286C8.93516 20.6083 10.6765 19.8884 13.5567 19.8884C13.7911 19.8884 14.0757 19.9386 14.3268 19.9386C13.9418 21.7299 13.6404 23.5212 13.4228 25.3292ZM29.9999 8.57143C31.2725 8.57143 32.9806 10.3795 34.5378 13.5603C33.0308 14.0625 31.5238 14.6317 29.9999 15.2846C28.4762 14.6317 26.9692 14.0625 25.462 13.5603C27.0194 10.3795 28.7273 8.57143 29.9999 8.57143ZM29.9999 60C28.7273 60 27.0194 58.192 25.462 55.0112C26.9692 54.5089 28.4762 53.9397 29.9999 53.2868C31.5238 53.9397 33.0308 54.5089 34.5378 55.0112C32.9806 58.192 31.2725 60 29.9999 60ZM29.9999 45C27.8808 45 25.8093 44.3716 24.0473 43.1943C22.2854 42.017 20.9121 40.3437 20.1012 38.3859C19.2902 36.4281 19.078 34.2738 19.4915 32.1955C19.9049 30.1171 20.9253 28.208 22.4237 26.7096C23.9222 25.2112 25.8313 24.1907 27.9096 23.7773C29.988 23.3639 32.1423 23.5761 34.1001 24.387C36.0578 25.1979 37.7312 26.5712 38.9085 28.3332C40.0858 30.0951 40.7142 32.1666 40.7142 34.2857C40.7142 37.1273 39.5853 39.8525 37.576 41.8619C35.5667 43.8712 32.8415 45 29.9999 45ZM51.5169 47.1429C51.0314 48.0301 48.9717 48.7333 45.6729 48.6161C46.0415 46.875 46.3596 45.0837 46.5772 43.2422C47.6154 42.4051 48.5867 41.5513 49.5074 40.6808C51.5336 43.8281 52.0526 46.1719 51.5169 47.1429ZM49.5074 27.8906C48.5867 27.0201 47.6154 26.1663 46.5772 25.3292C46.3596 23.5212 46.0582 21.7299 45.6729 19.9386C45.924 19.9386 46.2089 19.8884 46.4433 19.8884C49.3233 19.8884 51.0649 20.6083 51.5169 21.4286C52.0526 22.3996 51.5336 24.7433 49.5074 27.8906Z" fill="#668013"/>
</svg>
