<svg width="154" height="50" viewBox="0 0 154 50" fill="none" xmlns="http://www.w3.org/2000/svg">
<path d="M13.76 21.22V23.34H16.62V27.42H19.26V16.3H16.62V21.22H13.76ZM14.92 24.82C11.98 24.04 10.66 22.18 10.62 20.28H14.26V18.2H10.62V16.24H7.98V18.2H4.38V20.28H7.98C7.94 22.34 6.66 24.42 3.74 25.26L4.98 27.3C7.12 26.68 8.56 25.38 9.38 23.7C10.22 25.16 11.66 26.3 13.72 26.84L14.92 24.82ZM13.04 32.7C10.6 32.7 9.36 32.24 9.36 31.24C9.36 30.24 10.6 29.76 13.04 29.76C15.44 29.76 16.7 30.24 16.7 31.24C16.7 32.24 15.44 32.7 13.04 32.7ZM13.04 27.74C9.12 27.74 6.72 29.02 6.72 31.24C6.72 33.44 9.12 34.72 13.04 34.72C16.94 34.72 19.34 33.44 19.34 31.24C19.34 29.02 16.94 27.74 13.04 27.74ZM23.6184 25.42C26.8384 24.98 29.0984 23.6 30.1984 21.72C31.2984 23.6 33.5584 24.98 36.7784 25.42L37.7184 23.36C33.9784 22.9 32.0384 21.1 31.7784 19.34H36.9984V17.24H23.3384V19.34H28.6384C28.3784 21.1 26.4184 22.9 22.6584 23.36L23.6184 25.42ZM38.5184 26.48H21.8784V28.58H28.8184V34.76H31.4584V28.58H38.5184V26.48Z" fill="white"/>
<path d="M42.727 9.886V12.694H50.422C49.909 15.988 46.804 18.715 41.296 20.092L42.646 22.873C50.044 20.983 54.229 16.501 54.229 9.886H42.727ZM48.883 26.167H58.306V30.244H48.883V26.167ZM45.373 33.025H61.816V23.359H45.373V33.025ZM58.225 8.482V22.306H61.816V8.482H58.225ZM69.1309 16.366C69.1309 14.341 70.5349 13.126 72.3979 13.126C74.2339 13.126 75.6649 14.341 75.6649 16.366C75.6649 18.391 74.2339 19.606 72.3979 19.606C70.5349 19.606 69.1309 18.391 69.1309 16.366ZM79.1209 16.366C79.1209 12.694 76.1779 10.048 72.3979 10.048C68.5909 10.048 65.6479 12.694 65.6479 16.366C65.6479 20.011 68.5909 22.684 72.3979 22.684C76.1779 22.684 79.1209 20.011 79.1209 16.366ZM72.5599 24.682H68.9959V32.89H85.9249V30.055H72.5599V24.682ZM85.0339 15.583V8.455H81.4699V26.545H85.0339V18.499H88.3279V15.583H85.0339ZM102.933 22.468C103.608 18.364 103.608 15.34 103.608 12.937V10.912H90.8098V13.747H100.098C100.098 15.961 100.017 18.634 99.4498 22.171L102.933 22.468ZM97.5058 18.04H93.9958V25.384C92.4298 25.411 90.9178 25.411 89.5408 25.411L89.8648 28.327C94.1848 28.3 99.7468 28.192 104.796 27.328L104.607 24.763C102.339 25.033 99.9088 25.195 97.5058 25.276V18.04ZM112.653 18.445H109.305V8.428H105.741V33.295H109.305V21.415H112.653V18.445Z" fill="white"/>
<path d="M120.78 17.52C117.9 17.52 115.72 19.42 115.72 22.06C115.72 24.72 117.9 26.6 120.78 26.6C123.66 26.6 125.86 24.72 125.86 22.06C125.86 19.42 123.66 17.52 120.78 17.52ZM120.78 19.78C122.2 19.78 123.28 20.62 123.28 22.06C123.28 23.5 122.2 24.34 120.78 24.34C119.36 24.34 118.28 23.5 118.28 22.06C118.28 20.62 119.36 19.78 120.78 19.78ZM127.58 16.28V34.76H130.22V16.28H127.58ZM115.28 31.02C118.46 31.02 122.78 30.98 126.74 30.18L126.58 28.28C122.7 28.86 118.18 28.88 114.94 28.88L115.28 31.02ZM142.258 27V28.8H145.718V30.26H148.358V16.3H145.718V27H142.258ZM138.718 18.84C139.938 18.84 140.798 19.32 140.798 20.22C140.798 21.12 139.938 21.58 138.718 21.58C137.478 21.58 136.618 21.12 136.618 20.22C136.618 19.32 137.478 18.84 138.718 18.84ZM138.718 23.5C141.398 23.5 143.298 22.18 143.298 20.22C143.298 18.26 141.398 16.92 138.718 16.92C136.018 16.92 134.138 18.26 134.138 20.22C134.138 22.18 136.018 23.5 138.718 23.5ZM137.738 32.3V29.78H140.278V26.3C141.758 26.18 143.238 26.02 144.678 25.78L144.498 23.9C140.618 24.4 136.138 24.44 132.778 24.46L133.118 26.56C134.498 26.56 136.038 26.54 137.658 26.46V28.92H135.098V34.4H148.758V32.3H137.738Z" fill="white"/>
<path d="M18.12 47.14C19.83 47.14 20.84 46.11 20.84 44.9C20.84 43.83 20.25 43.26 19.35 42.89L18.38 42.48C17.75 42.23 17.23 42.04 17.23 41.51C17.23 41.02 17.64 40.73 18.29 40.73C18.9 40.73 19.39 40.95 19.86 41.34L20.61 40.41C20.01 39.8 19.15 39.46 18.29 39.46C16.79 39.46 15.73 40.39 15.73 41.6C15.73 42.68 16.48 43.28 17.23 43.59L18.22 44.01C18.88 44.29 19.33 44.46 19.33 45.01C19.33 45.53 18.92 45.86 18.15 45.86C17.5 45.86 16.8 45.53 16.27 45.04L15.42 46.06C16.14 46.75 17.13 47.14 18.12 47.14ZM21.9502 47H23.4302V39.59H21.9502V47ZM25.051 47H26.451V44.03C26.451 43.18 26.341 42.25 26.271 41.45H26.321L27.071 43.04L29.211 47H30.711V39.59H29.311V42.55C29.311 43.39 29.431 44.37 29.501 45.14H29.451L28.711 43.54L26.561 39.59H25.051V47ZM35.3612 47.14C36.3212 47.14 37.1112 46.76 37.7212 46.05L36.9412 45.13C36.5412 45.56 36.0512 45.86 35.4112 45.86C34.2412 45.86 33.4812 44.89 33.4812 43.28C33.4812 41.69 34.3212 40.73 35.4412 40.73C36.0012 40.73 36.4312 40.99 36.8113 41.35L37.5812 40.41C37.1012 39.91 36.3512 39.46 35.4112 39.46C33.5412 39.46 31.9712 40.89 31.9712 43.33C31.9712 45.8 33.4912 47.14 35.3612 47.14ZM38.7135 47H43.3635V45.76H40.1935V43.78H42.7935V42.54H40.1935V40.83H43.2535V39.59H38.7135V47ZM46.6415 47H51.0915V45.81H49.7015V39.79H48.6115C48.1415 40.08 47.6315 40.27 46.8915 40.41V41.32H48.2315V45.81H46.6415V47ZM53.2602 42.04C53.2602 41.18 53.7102 40.76 54.2602 40.76C54.8702 40.76 55.3702 41.22 55.5202 42.43C55.1802 42.99 54.7102 43.22 54.3202 43.22C53.6702 43.22 53.2602 42.85 53.2602 42.04ZM54.0402 47.14C55.5302 47.14 56.9002 45.95 56.9002 43.2C56.9002 40.72 55.6402 39.65 54.2402 39.65C52.9702 39.65 51.9102 40.57 51.9102 42.04C51.9102 43.55 52.8002 44.27 54.0402 44.27C54.5202 44.27 55.1502 43.97 55.5602 43.46C55.5002 45.32 54.8002 45.94 53.9502 45.94C53.5202 45.94 53.0702 45.71 52.8102 45.41L52.0302 46.3C52.4602 46.75 53.1302 47.14 54.0402 47.14ZM60.1388 47.14C61.6388 47.14 62.6288 46.28 62.6288 45.16C62.6288 44.19 62.0588 43.66 61.3888 43.28V43.23C61.8588 42.9 62.3388 42.32 62.3388 41.61C62.3388 40.43 61.4988 39.65 60.1888 39.65C58.9088 39.65 57.9588 40.41 57.9588 41.6C57.9588 42.36 58.3788 42.89 58.9388 43.3V43.34C58.2588 43.7 57.6688 44.27 57.6688 45.16C57.6688 46.32 58.7288 47.14 60.1388 47.14ZM60.6088 42.87C59.8388 42.57 59.2588 42.26 59.2588 41.6C59.2588 41.01 59.6588 40.69 60.1588 40.69C60.7788 40.69 61.1388 41.11 61.1388 41.71C61.1388 42.12 60.9488 42.51 60.6088 42.87ZM60.1788 46.1C59.4888 46.1 58.9388 45.67 58.9388 45C58.9388 44.49 59.2288 44.05 59.6188 43.74C60.5688 44.13 61.2588 44.39 61.2588 45.11C61.2588 45.75 60.8088 46.1 60.1788 46.1ZM64.7475 47H66.2375C66.3575 44.19 66.6275 42.74 68.3075 40.69V39.79H63.3875V41.02H66.7175C65.3375 42.94 64.8775 44.51 64.7475 47ZM71.5518 47H73.0318V44.92L74.0018 43.67L75.9218 47H77.5418L74.8818 42.51L77.1418 39.59H75.5118L73.0618 42.81H73.0318V39.59H71.5518V47ZM78.0873 47H79.5573V41.4H78.0873V47ZM78.8273 40.5C79.3273 40.5 79.6773 40.18 79.6773 39.69C79.6773 39.21 79.3273 38.89 78.8273 38.89C78.3173 38.89 77.9673 39.21 77.9673 39.69C77.9673 40.18 78.3173 40.5 78.8273 40.5ZM80.9244 47H82.3944V43.15C82.7844 42.73 83.1444 42.52 83.4644 42.52C83.9944 42.52 84.2544 42.82 84.2544 43.69V47H85.7144V43.15C86.1144 42.73 86.4744 42.52 86.7944 42.52C87.3244 42.52 87.5744 42.82 87.5744 43.69V47H89.0444V43.51C89.0444 42.1 88.4944 41.26 87.3044 41.26C86.5744 41.26 86.0344 41.7 85.5244 42.24C85.2544 41.62 84.7844 41.26 83.9844 41.26C83.2544 41.26 82.7344 41.66 82.2644 42.15H82.2344L82.1244 41.4H80.9244V47ZM92.5487 47H97.1987V45.76H94.0287V43.78H96.6287V42.54H94.0287V40.83H97.0887V39.59H92.5487V47ZM98.7538 49.25C100.004 49.25 100.604 48.49 101.094 47.17L103.084 41.4H101.674L100.904 44C100.774 44.52 100.634 45.06 100.504 45.58H100.454C100.294 45.04 100.154 44.5 99.9838 44L99.0938 41.4H97.6138L99.7938 46.9L99.6938 47.23C99.5338 47.72 99.2138 48.08 98.6438 48.08C98.5138 48.08 98.3538 48.04 98.2538 48.01L97.9838 49.14C98.2038 49.21 98.4238 49.25 98.7538 49.25ZM106.168 47.14C106.858 47.14 107.568 46.9 108.118 46.52L107.618 45.62C107.218 45.87 106.818 46.01 106.358 46.01C105.528 46.01 104.928 45.53 104.808 44.61H108.258C108.298 44.48 108.328 44.21 108.328 43.93C108.328 42.39 107.528 41.26 105.988 41.26C104.658 41.26 103.378 42.39 103.378 44.2C103.378 46.05 104.598 47.14 106.168 47.14ZM104.788 43.63C104.898 42.82 105.418 42.4 106.008 42.4C106.728 42.4 107.068 42.88 107.068 43.63H104.788ZM114.544 47.14C115.504 47.14 116.294 46.76 116.904 46.05L116.124 45.13C115.724 45.56 115.234 45.86 114.594 45.86C113.424 45.86 112.664 44.89 112.664 43.28C112.664 41.69 113.504 40.73 114.624 40.73C115.184 40.73 115.614 40.99 115.994 41.35L116.764 40.41C116.284 39.91 115.534 39.46 114.594 39.46C112.724 39.46 111.154 40.89 111.154 43.33C111.154 45.8 112.674 47.14 114.544 47.14ZM119.156 47.14C119.506 47.14 119.746 47.08 119.916 47.01L119.736 45.92C119.636 45.94 119.596 45.94 119.536 45.94C119.396 45.94 119.246 45.83 119.246 45.49V39.02H117.776V45.43C117.776 46.47 118.136 47.14 119.156 47.14ZM120.731 47H122.201V41.4H120.731V47ZM121.471 40.5C121.971 40.5 122.321 40.18 122.321 39.69C122.321 39.21 121.971 38.89 121.471 38.89C120.961 38.89 120.611 39.21 120.611 39.69C120.611 40.18 120.961 40.5 121.471 40.5ZM123.568 47H125.038V43.15C125.448 42.74 125.738 42.52 126.198 42.52C126.748 42.52 126.988 42.82 126.988 43.69V47H128.458V43.51C128.458 42.1 127.938 41.26 126.728 41.26C125.968 41.26 125.398 41.66 124.908 42.14H124.878L124.768 41.4H123.568V47ZM129.774 47H131.244V41.4H129.774V47ZM130.514 40.5C131.014 40.5 131.364 40.18 131.364 39.69C131.364 39.21 131.014 38.89 130.514 38.89C130.004 38.89 129.654 39.21 129.654 39.69C129.654 40.18 130.004 40.5 130.514 40.5ZM134.991 47.14C135.611 47.14 136.291 46.93 136.831 46.46L136.241 45.49C135.931 45.75 135.551 45.94 135.151 45.94C134.351 45.94 133.761 45.26 133.761 44.2C133.761 43.15 134.341 42.46 135.201 42.46C135.511 42.46 135.771 42.59 136.051 42.83L136.751 41.88C136.341 41.53 135.811 41.26 135.121 41.26C133.601 41.26 132.261 42.34 132.261 44.2C132.261 46.06 133.441 47.14 134.991 47.14Z" fill="white"/>
</svg>
