<svg width="30" height="30" viewBox="0 0 30 30" fill="none" xmlns="http://www.w3.org/2000/svg">
<rect width="30" height="30" rx="15" fill="black"/>
<path d="M11.64 19V10H8.76V13.18H6.6V10H3.72V19H6.6V15.82H8.76V19H11.64ZM13.9713 16.864C14.2913 16.864 14.5553 16.968 14.7633 17.176C14.9793 17.384 15.0873 17.656 15.0873 17.992C15.0873 18.328 14.9793 18.6 14.7633 18.808C14.5553 19.016 14.2913 19.12 13.9713 19.12C13.6513 19.12 13.3833 19.012 13.1673 18.796C12.9513 18.58 12.8433 18.312 12.8433 17.992C12.8433 17.656 12.9513 17.384 13.1673 17.176C13.3833 16.968 13.6513 16.864 13.9713 16.864ZM16.9305 21.376H14.8425V19.504L15.5865 19.36C15.8905 19.296 16.0825 19.212 16.1625 19.108C16.2425 19.012 16.2825 18.904 16.2825 18.784V12.16L19.1625 11.8V19C19.1625 19.784 18.9705 20.376 18.5865 20.776C18.2105 21.176 17.6585 21.376 16.9305 21.376ZM16.1265 10.444C16.1265 10.228 16.1505 10.048 16.1985 9.904C16.2465 9.752 16.3305 9.632 16.4505 9.544C16.5705 9.448 16.7345 9.38 16.9425 9.34C17.1505 9.3 17.4145 9.28 17.7345 9.28C18.0545 9.28 18.3145 9.3 18.5145 9.34C18.7225 9.38 18.8865 9.448 19.0065 9.544C19.1265 9.632 19.2105 9.752 19.2585 9.904C19.3065 10.048 19.3305 10.228 19.3305 10.444C19.3305 10.66 19.3065 10.84 19.2585 10.984C19.2105 11.128 19.1265 11.248 19.0065 11.344C18.8865 11.432 18.7225 11.496 18.5145 11.536C18.3145 11.568 18.0545 11.584 17.7345 11.584C17.5025 11.584 17.2865 11.576 17.0865 11.56C16.8945 11.544 16.7265 11.5 16.5825 11.428C16.4385 11.348 16.3265 11.232 16.2465 11.08C16.1665 10.928 16.1265 10.716 16.1265 10.444ZM21.3027 12.088C21.9187 11.752 22.7627 11.584 23.8347 11.584C24.9147 11.584 25.9027 11.732 26.7987 12.028L26.4627 13.984C26.0867 13.872 25.7147 13.792 25.3467 13.744C24.9787 13.696 24.6027 13.672 24.2187 13.672C24.1067 13.672 23.9667 13.676 23.7987 13.684C23.6387 13.692 23.4547 13.708 23.2467 13.732V14.188C23.6867 14.188 24.1387 14.212 24.6027 14.26C25.0667 14.3 25.4867 14.404 25.8627 14.572C26.2467 14.732 26.5587 14.976 26.7987 15.304C27.0467 15.624 27.1707 16.064 27.1707 16.624C27.1707 17.016 27.1267 17.368 27.0387 17.68C26.9507 17.984 26.8147 18.228 26.6307 18.412C26.4387 18.596 26.2387 18.744 26.0307 18.856C25.8307 18.968 25.5667 19.048 25.2387 19.096C24.9827 19.136 24.7067 19.164 24.4107 19.18C24.1227 19.204 23.8107 19.216 23.4747 19.216C22.2987 19.216 21.2227 19.076 20.2467 18.796L20.6067 16.756C21.0147 16.876 21.4347 16.968 21.8667 17.032C22.2987 17.096 22.7507 17.128 23.2227 17.128C23.4387 17.128 23.6427 17.124 23.8347 17.116C24.0347 17.108 24.2267 17.092 24.4107 17.068V16.612C23.6427 16.612 22.9987 16.564 22.4787 16.468C21.9667 16.364 21.5507 16.208 21.2307 16C20.9187 15.792 20.6947 15.52 20.5587 15.184C20.4307 14.848 20.3667 14.448 20.3667 13.984C20.3667 13.056 20.6787 12.424 21.3027 12.088Z" fill="white"/>
</svg>
